<svg width="260" height="400" viewBox="0 0 260 400" fill="none" xmlns="http://www.w3.org/2000/svg">
<rect width="260" height="400" rx="24" fill="white"/>
<path d="M130 114C154.853 114 175 93.8528 175 69C175 44.1472 154.853 24 130 24C105.147 24 85 44.1472 85 69C85 93.8528 105.147 114 130 114Z" fill="#EAEAEA"/>
<path d="M108.49 68.1H150.88L159.07 72.6H100.93L108.49 68.1Z" fill="#343F4B"/>
<path d="M136.03 51.99C136.03 49.65 133.33 47.76 130 47.76C126.67 47.76 123.97 49.65 123.97 51.99H100.93L108.49 65.67H150.88L158.98 51.99H136.03V51.99ZM126.04 51.99C126.04 50.46 127.84 49.29 130 49.29C132.16 49.29 133.96 50.55 133.96 51.99H126.04Z" fill="#343F4B"/>
<path d="M130 54.78C132.187 54.78 133.96 53.5308 133.96 51.99C133.96 50.4491 132.187 49.2 130 49.2C127.813 49.2 126.04 50.4491 126.04 51.99C126.04 53.5308 127.813 54.78 130 54.78Z" fill="white"/>
<path d="M141.25 80.25C142.06 80.34 142.78 80.34 143.59 80.16C144.49 79.98 145.48 79.98 146.47 80.07C148.45 80.43 150.43 81.24 151.96 82.5L155.74 68.46C155.92 67.65 155.47 66.84 154.66 66.66L141.61 63.06C141.25 62.97 140.8 63.06 140.44 63.24C140.08 63.42 139.81 63.78 139.72 64.14L136.03 77.91C137.56 79.08 139.36 79.89 141.25 80.25Z" fill="#EFEFEF"/>
<path d="M146.29 76.4699C148.924 76.4699 151.06 74.3343 151.06 71.6999C151.06 69.0655 148.924 66.9299 146.29 66.9299C143.656 66.9299 141.52 69.0655 141.52 71.6999C141.52 74.3343 143.656 76.4699 146.29 76.4699Z" fill="#3399FF"/>
<path d="M157.45 68.9099C157.9 67.1099 156.91 65.3099 155.11 64.8599L142.06 61.3499C140.26 60.8999 138.46 61.8899 138.01 63.6899L131.08 89.6099C130.63 91.4099 131.62 93.2099 133.42 93.6599L146.47 97.17C148.27 97.62 150.07 96.6299 150.52 94.8299L157.45 68.9099ZM140.44 63.2399C140.8 63.0599 141.16 62.9699 141.61 63.0599L154.66 66.5699C155.47 66.7499 155.92 67.5599 155.74 68.3699L152.05 82.4099C150.43 81.1499 148.54 80.3399 146.56 79.9799C145.57 79.8899 144.67 79.8899 143.68 80.0699C142.96 80.2499 142.15 80.2499 141.34 80.1599C139.45 79.8899 137.65 79.0799 136.12 77.8199L139.81 64.0499C139.81 63.6899 140.08 63.4199 140.44 63.2399Z" fill="#3399FF"/>
<path d="M127.39 76.9199C128.2 76.8299 128.92 76.5599 129.64 76.1999C130.45 75.7499 131.44 75.4799 132.34 75.3899C134.41 75.2099 136.39 75.4799 138.28 76.2899V61.7099C138.28 60.8999 137.65 60.1799 136.75 60.1799H123.25C122.44 60.1799 121.72 60.8099 121.72 61.6199V61.7099V75.9299C123.52 76.8299 125.41 77.0999 127.39 76.9199Z" fill="#EFEFEF"/>
<path d="M130 72.15C132.634 72.15 134.77 70.0144 134.77 67.38C134.77 64.7456 132.634 62.61 130 62.61C127.366 62.61 125.23 64.7456 125.23 67.38C125.23 70.0144 127.366 72.15 130 72.15Z" fill="#77CC55"/>
<path d="M140.08 61.8C140.08 60 138.64 58.47 136.75 58.47H123.25C121.45 58.47 119.92 59.91 119.92 61.8L120.01 88.62C120.01 90.42 121.45 91.95 123.34 91.95H136.84C138.64 91.95 140.17 90.51 140.17 88.62L140.08 61.8ZM122.17 60.72C122.44 60.45 122.8 60.27 123.25 60.27H136.75C137.56 60.27 138.28 60.9 138.28 61.71V61.8V76.29C136.39 75.48 134.32 75.21 132.34 75.39C131.44 75.57 130.45 75.84 129.64 76.2C128.92 76.56 128.2 76.74 127.39 76.92C125.5 77.1 123.52 76.83 121.72 76.02V61.8C121.72 61.44 121.9 60.99 122.17 60.72Z" fill="#77CC55"/>
<path d="M113.62 80.97C114.34 80.61 114.97 80.25 115.6 79.71C116.32 79.08 117.13 78.63 118.03 78.18C119.92 77.46 121.99 77.19 124.06 77.55L120.19 63.6C120.01 62.79 119.2 62.34 118.39 62.52L105.25 65.94C104.89 66.03 104.53 66.3 104.35 66.66C104.17 67.02 104.08 67.38 104.17 67.83L107.95 81.6C109.84 81.87 111.82 81.69 113.62 80.97Z" fill="#EFEFEF"/>
<path d="M113.71 75.93C116.344 75.93 118.48 73.7944 118.48 71.16C118.48 68.5256 116.344 66.39 113.71 66.39C111.076 66.39 108.94 68.5256 108.94 71.16C108.94 73.7944 111.076 75.93 113.71 75.93Z" fill="#C95D4F"/>
<path d="M121.99 63.06C121.54 61.35 119.74 60.27 117.94 60.72L104.8 64.23C103 64.68 102.01 66.48 102.46 68.28L109.48 94.2C109.93 95.91 111.73 96.99 113.53 96.54L126.58 93.03C128.38 92.58 129.37 90.78 128.92 88.98L121.99 63.06ZM104.35 66.66C104.53 66.3 104.89 66.03 105.25 65.94L118.39 62.43C119.2 62.25 120.01 62.7 120.19 63.51L123.97 77.55C121.99 77.28 119.92 77.46 117.94 78.18C117.04 78.54 116.23 79.08 115.6 79.71C114.97 80.25 114.34 80.61 113.62 80.97C111.82 81.69 109.84 81.87 107.95 81.6L104.26 67.83C104.17 67.47 104.17 67.02 104.35 66.66Z" fill="#C95D4F"/>
<path d="M103.9 72.6H100.93V95.28C101.02 96.81 102.37 97.98 103.9 97.8H156.1C157.63 97.89 158.89 96.72 159.07 95.28V72.6H103.9Z" fill="white"/>
<path d="M123.97 51.99C123.97 49.65 126.67 47.76 130 47.76C133.33 47.76 136.03 49.65 136.03 51.99H159.07L158.17 50.82L157.36 49.74L151.15 41.37C150.61 40.74 148.9 40.2 147.28 40.2H112.72C111.1 40.2 109.39 40.74 108.85 41.37L102.64 49.74L101.83 50.82L100.93 51.99H123.97Z" fill="#E03131"/>
<path d="M44.7518 202.318V196.078L45.1598 197.182L38.0318 185.518H39.9278L46.1918 195.766H45.1838L51.4478 185.518H53.2238L46.0958 197.182L46.5038 196.078V202.318H44.7518ZM59.3245 202.438C58.1085 202.438 57.0125 202.166 56.0365 201.622C55.0765 201.062 54.3165 200.302 53.7565 199.342C53.1965 198.366 52.9165 197.254 52.9165 196.006C52.9165 194.742 53.1965 193.63 53.7565 192.67C54.3165 191.71 55.0765 190.958 56.0365 190.414C56.9965 189.87 58.0925 189.598 59.3245 189.598C60.5725 189.598 61.6765 189.87 62.6365 190.414C63.6125 190.958 64.3725 191.71 64.9165 192.67C65.4765 193.63 65.7565 194.742 65.7565 196.006C65.7565 197.254 65.4765 198.366 64.9165 199.342C64.3725 200.302 63.6125 201.062 62.6365 201.622C61.6605 202.166 60.5565 202.438 59.3245 202.438ZM59.3245 200.926C60.2365 200.926 61.0445 200.726 61.7485 200.326C62.4525 199.91 63.0045 199.334 63.4045 198.598C63.8205 197.846 64.0285 196.982 64.0285 196.006C64.0285 195.014 63.8205 194.15 63.4045 193.414C63.0045 192.678 62.4525 192.11 61.7485 191.71C61.0445 191.294 60.2445 191.086 59.3485 191.086C58.4525 191.086 57.6525 191.294 56.9485 191.71C56.2445 192.11 55.6845 192.678 55.2685 193.414C54.8525 194.15 54.6445 195.014 54.6445 196.006C54.6445 196.982 54.8525 197.846 55.2685 198.598C55.6845 199.334 56.2445 199.91 56.9485 200.326C57.6525 200.726 58.4445 200.926 59.3245 200.926ZM74.4434 202.438C73.3714 202.438 72.4354 202.238 71.6354 201.838C70.8354 201.438 70.2114 200.838 69.7634 200.038C69.3314 199.238 69.1154 198.238 69.1154 197.038V189.718H70.8194V196.846C70.8194 198.19 71.1474 199.206 71.8034 199.894C72.4754 200.566 73.4114 200.902 74.6114 200.902C75.4914 200.902 76.2514 200.726 76.8914 200.374C77.5474 200.006 78.0434 199.478 78.3794 198.79C78.7314 198.102 78.9074 197.278 78.9074 196.318V189.718H80.6114V202.318H78.9794V198.862L79.2434 199.486C78.8434 200.414 78.2194 201.142 77.3714 201.67C76.5394 202.182 75.5634 202.438 74.4434 202.438ZM85.3604 202.318V189.718H86.9924V193.15L86.8244 192.55C87.1764 191.59 87.7684 190.862 88.6004 190.366C89.4324 189.854 90.4644 189.598 91.6964 189.598V191.254C91.6324 191.254 91.5684 191.254 91.5044 191.254C91.4404 191.238 91.3764 191.23 91.3124 191.23C89.9844 191.23 88.9444 191.638 88.1924 192.454C87.4404 193.254 87.0644 194.398 87.0644 195.886V202.318H85.3604ZM106.506 202.438C105.258 202.438 104.138 202.166 103.146 201.622C102.17 201.062 101.402 200.302 100.842 199.342C100.282 198.366 100.002 197.254 100.002 196.006C100.002 194.742 100.282 193.63 100.842 192.67C101.402 191.71 102.17 190.958 103.146 190.414C104.138 189.87 105.258 189.598 106.506 189.598C107.578 189.598 108.546 189.806 109.41 190.222C110.274 190.638 110.954 191.262 111.45 192.094L110.178 192.958C109.746 192.318 109.21 191.846 108.57 191.542C107.93 191.238 107.234 191.086 106.482 191.086C105.586 191.086 104.778 191.294 104.058 191.71C103.338 192.11 102.77 192.678 102.354 193.414C101.938 194.15 101.73 195.014 101.73 196.006C101.73 196.998 101.938 197.862 102.354 198.598C102.77 199.334 103.338 199.91 104.058 200.326C104.778 200.726 105.586 200.926 106.482 200.926C107.234 200.926 107.93 200.774 108.57 200.47C109.21 200.166 109.746 199.702 110.178 199.078L111.45 199.942C110.954 200.758 110.274 201.382 109.41 201.814C108.546 202.23 107.578 202.438 106.506 202.438ZM119.723 202.438C118.507 202.438 117.411 202.166 116.435 201.622C115.475 201.062 114.715 200.302 114.155 199.342C113.595 198.366 113.315 197.254 113.315 196.006C113.315 194.742 113.595 193.63 114.155 192.67C114.715 191.71 115.475 190.958 116.435 190.414C117.395 189.87 118.491 189.598 119.723 189.598C120.971 189.598 122.075 189.87 123.035 190.414C124.011 190.958 124.771 191.71 125.315 192.67C125.875 193.63 126.155 194.742 126.155 196.006C126.155 197.254 125.875 198.366 125.315 199.342C124.771 200.302 124.011 201.062 123.035 201.622C122.059 202.166 120.955 202.438 119.723 202.438ZM119.723 200.926C120.635 200.926 121.443 200.726 122.147 200.326C122.851 199.91 123.403 199.334 123.803 198.598C124.219 197.846 124.427 196.982 124.427 196.006C124.427 195.014 124.219 194.15 123.803 193.414C123.403 192.678 122.851 192.11 122.147 191.71C121.443 191.294 120.643 191.086 119.747 191.086C118.851 191.086 118.051 191.294 117.347 191.71C116.643 192.11 116.083 192.678 115.667 193.414C115.251 194.15 115.043 195.014 115.043 196.006C115.043 196.982 115.251 197.846 115.667 198.598C116.083 199.334 116.643 199.91 117.347 200.326C118.051 200.726 118.843 200.926 119.723 200.926ZM129.634 202.318V184.51H131.338V202.318H129.634ZM136.079 202.318V184.51H137.783V202.318H136.079ZM147.876 202.438C146.564 202.438 145.412 202.166 144.42 201.622C143.428 201.062 142.652 200.302 142.092 199.342C141.532 198.366 141.252 197.254 141.252 196.006C141.252 194.758 141.516 193.654 142.044 192.694C142.588 191.734 143.324 190.982 144.252 190.438C145.196 189.878 146.252 189.598 147.42 189.598C148.604 189.598 149.652 189.87 150.564 190.414C151.492 190.942 152.22 191.694 152.748 192.67C153.276 193.63 153.54 194.742 153.54 196.006C153.54 196.086 153.532 196.174 153.516 196.27C153.516 196.35 153.516 196.438 153.516 196.534H142.548V195.262H152.604L151.932 195.766C151.932 194.854 151.732 194.046 151.332 193.342C150.948 192.622 150.42 192.062 149.748 191.662C149.076 191.262 148.3 191.062 147.42 191.062C146.556 191.062 145.78 191.262 145.092 191.662C144.404 192.062 143.868 192.622 143.484 193.342C143.1 194.062 142.908 194.886 142.908 195.814V196.078C142.908 197.038 143.116 197.886 143.532 198.622C143.964 199.342 144.556 199.91 145.308 200.326C146.076 200.726 146.948 200.926 147.924 200.926C148.692 200.926 149.404 200.79 150.06 200.518C150.732 200.246 151.308 199.83 151.788 199.27L152.748 200.374C152.188 201.046 151.484 201.558 150.636 201.91C149.804 202.262 148.884 202.438 147.876 202.438ZM162.241 202.438C160.993 202.438 159.873 202.166 158.881 201.622C157.905 201.062 157.137 200.302 156.577 199.342C156.017 198.366 155.737 197.254 155.737 196.006C155.737 194.742 156.017 193.63 156.577 192.67C157.137 191.71 157.905 190.958 158.881 190.414C159.873 189.87 160.993 189.598 162.241 189.598C163.313 189.598 164.281 189.806 165.145 190.222C166.009 190.638 166.689 191.262 167.185 192.094L165.913 192.958C165.481 192.318 164.945 191.846 164.305 191.542C163.665 191.238 162.969 191.086 162.217 191.086C161.321 191.086 160.513 191.294 159.793 191.71C159.073 192.11 158.505 192.678 158.089 193.414C157.673 194.15 157.465 195.014 157.465 196.006C157.465 196.998 157.673 197.862 158.089 198.598C158.505 199.334 159.073 199.91 159.793 200.326C160.513 200.726 161.321 200.926 162.217 200.926C162.969 200.926 163.665 200.774 164.305 200.47C164.945 200.166 165.481 199.702 165.913 199.078L167.185 199.942C166.689 200.758 166.009 201.382 165.145 201.814C164.281 202.23 163.313 202.438 162.241 202.438ZM174.657 202.438C173.473 202.438 172.561 202.118 171.921 201.478C171.281 200.838 170.961 199.934 170.961 198.766V186.934H172.665V198.67C172.665 199.406 172.849 199.974 173.217 200.374C173.601 200.774 174.145 200.974 174.849 200.974C175.601 200.974 176.225 200.758 176.721 200.326L177.321 201.55C176.985 201.854 176.577 202.078 176.097 202.222C175.633 202.366 175.153 202.438 174.657 202.438ZM168.705 191.134V189.718H176.505V191.134H168.705ZM180.423 202.318V189.718H182.127V202.318H180.423ZM181.287 186.934C180.935 186.934 180.639 186.814 180.399 186.574C180.159 186.334 180.039 186.046 180.039 185.71C180.039 185.374 180.159 185.094 180.399 184.87C180.639 184.63 180.935 184.51 181.287 184.51C181.639 184.51 181.935 184.622 182.175 184.846C182.415 185.07 182.535 185.35 182.535 185.686C182.535 186.038 182.415 186.334 182.175 186.574C181.951 186.814 181.655 186.934 181.287 186.934ZM192.004 202.438C190.788 202.438 189.692 202.166 188.716 201.622C187.756 201.062 186.996 200.302 186.436 199.342C185.876 198.366 185.596 197.254 185.596 196.006C185.596 194.742 185.876 193.63 186.436 192.67C186.996 191.71 187.756 190.958 188.716 190.414C189.676 189.87 190.772 189.598 192.004 189.598C193.252 189.598 194.356 189.87 195.316 190.414C196.292 190.958 197.052 191.71 197.596 192.67C198.156 193.63 198.436 194.742 198.436 196.006C198.436 197.254 198.156 198.366 197.596 199.342C197.052 200.302 196.292 201.062 195.316 201.622C194.34 202.166 193.236 202.438 192.004 202.438ZM192.004 200.926C192.916 200.926 193.724 200.726 194.428 200.326C195.132 199.91 195.684 199.334 196.084 198.598C196.5 197.846 196.708 196.982 196.708 196.006C196.708 195.014 196.5 194.15 196.084 193.414C195.684 192.678 195.132 192.11 194.428 191.71C193.724 191.294 192.924 191.086 192.028 191.086C191.132 191.086 190.332 191.294 189.628 191.71C188.924 192.11 188.364 192.678 187.948 193.414C187.532 194.15 187.324 195.014 187.324 196.006C187.324 196.982 187.532 197.846 187.948 198.598C188.364 199.334 188.924 199.91 189.628 200.326C190.332 200.726 191.124 200.926 192.004 200.926ZM208.347 189.598C209.371 189.598 210.267 189.798 211.035 190.198C211.819 190.582 212.427 191.174 212.859 191.974C213.307 192.774 213.531 193.782 213.531 194.998V202.318H211.827V195.166C211.827 193.838 211.491 192.838 210.819 192.166C210.163 191.478 209.235 191.134 208.035 191.134C207.139 191.134 206.355 191.318 205.683 191.686C205.027 192.038 204.515 192.558 204.147 193.246C203.795 193.918 203.619 194.734 203.619 195.694V202.318H201.915V189.718H203.547V193.174L203.283 192.526C203.683 191.614 204.323 190.902 205.203 190.39C206.083 189.862 207.131 189.598 208.347 189.598ZM218.206 197.278L217.87 185.518H219.886L219.526 197.278H218.206ZM218.878 202.438C218.526 202.438 218.222 202.318 217.966 202.078C217.726 201.822 217.606 201.526 217.606 201.19C217.606 200.838 217.726 200.55 217.966 200.326C218.222 200.086 218.526 199.966 218.878 199.966C219.246 199.966 219.542 200.086 219.766 200.326C220.006 200.55 220.126 200.838 220.126 201.19C220.126 201.526 220.006 201.822 219.766 202.078C219.542 202.318 219.246 202.438 218.878 202.438ZM31.3875 231.462C30.1235 231.462 28.9555 231.254 27.8835 230.838C26.8115 230.406 25.8835 229.806 25.0995 229.038C24.3155 228.27 23.6995 227.366 23.2515 226.326C22.8195 225.286 22.6035 224.15 22.6035 222.918C22.6035 221.686 22.8195 220.55 23.2515 219.51C23.6995 218.47 24.3155 217.566 25.0995 216.798C25.8995 216.03 26.8355 215.438 27.9075 215.022C28.9795 214.59 30.1475 214.374 31.4115 214.374C32.6275 214.374 33.7715 214.582 34.8435 214.998C35.9155 215.398 36.8195 216.006 37.5555 216.822L36.4275 217.95C35.7395 217.246 34.9795 216.742 34.1475 216.438C33.3155 216.118 32.4195 215.958 31.4595 215.958C30.4515 215.958 29.5155 216.134 28.6515 216.486C27.7875 216.822 27.0355 217.31 26.3955 217.95C25.7555 218.574 25.2515 219.31 24.8835 220.158C24.5315 220.99 24.3555 221.91 24.3555 222.918C24.3555 223.926 24.5315 224.854 24.8835 225.702C25.2515 226.534 25.7555 227.27 26.3955 227.91C27.0355 228.534 27.7875 229.022 28.6515 229.374C29.5155 229.71 30.4515 229.878 31.4595 229.878C32.4195 229.878 33.3155 229.718 34.1475 229.398C34.9795 229.078 35.7395 228.566 36.4275 227.862L37.5555 228.99C36.8195 229.806 35.9155 230.422 34.8435 230.838C33.7715 231.254 32.6195 231.462 31.3875 231.462ZM47.4135 218.598C48.4375 218.598 49.3335 218.798 50.1015 219.198C50.8855 219.582 51.4935 220.174 51.9255 220.974C52.3735 221.774 52.5975 222.782 52.5975 223.998V231.318H50.8935V224.166C50.8935 222.838 50.5575 221.838 49.8855 221.166C49.2295 220.478 48.3015 220.134 47.1015 220.134C46.2055 220.134 45.4215 220.318 44.7495 220.686C44.0935 221.038 43.5815 221.558 43.2135 222.246C42.8615 222.918 42.6855 223.734 42.6855 224.694V231.318H40.9815V213.51H42.6855V222.174L42.3495 221.526C42.7495 220.614 43.3895 219.902 44.2695 219.39C45.1495 218.862 46.1975 218.598 47.4135 218.598ZM62.5522 231.438C61.2402 231.438 60.0882 231.166 59.0962 230.622C58.1042 230.062 57.3282 229.302 56.7682 228.342C56.2082 227.366 55.9282 226.254 55.9282 225.006C55.9282 223.758 56.1922 222.654 56.7202 221.694C57.2642 220.734 58.0002 219.982 58.9282 219.438C59.8722 218.878 60.9282 218.598 62.0962 218.598C63.2802 218.598 64.3282 218.87 65.2402 219.414C66.1682 219.942 66.8962 220.694 67.4242 221.67C67.9522 222.63 68.2162 223.742 68.2162 225.006C68.2162 225.086 68.2082 225.174 68.1922 225.27C68.1922 225.35 68.1922 225.438 68.1922 225.534H57.2242V224.262H67.2802L66.6082 224.766C66.6082 223.854 66.4082 223.046 66.0082 222.342C65.6242 221.622 65.0962 221.062 64.4242 220.662C63.7522 220.262 62.9762 220.062 62.0962 220.062C61.2322 220.062 60.4562 220.262 59.7682 220.662C59.0802 221.062 58.5442 221.622 58.1602 222.342C57.7762 223.062 57.5842 223.886 57.5842 224.814V225.078C57.5842 226.038 57.7922 226.886 58.2082 227.622C58.6402 228.342 59.2322 228.91 59.9842 229.326C60.7522 229.726 61.6242 229.926 62.6002 229.926C63.3682 229.926 64.0802 229.79 64.7362 229.518C65.4082 229.246 65.9842 228.83 66.4642 228.27L67.4242 229.374C66.8642 230.046 66.1602 230.558 65.3122 230.91C64.4802 231.262 63.5602 231.438 62.5522 231.438ZM76.9166 231.438C75.6686 231.438 74.5486 231.166 73.5566 230.622C72.5806 230.062 71.8126 229.302 71.2526 228.342C70.6926 227.366 70.4126 226.254 70.4126 225.006C70.4126 223.742 70.6926 222.63 71.2526 221.67C71.8126 220.71 72.5806 219.958 73.5566 219.414C74.5486 218.87 75.6686 218.598 76.9166 218.598C77.9886 218.598 78.9566 218.806 79.8206 219.222C80.6846 219.638 81.3646 220.262 81.8606 221.094L80.5886 221.958C80.1566 221.318 79.6206 220.846 78.9806 220.542C78.3406 220.238 77.6446 220.086 76.8926 220.086C75.9966 220.086 75.1886 220.294 74.4686 220.71C73.7486 221.11 73.1806 221.678 72.7646 222.414C72.3486 223.15 72.1406 224.014 72.1406 225.006C72.1406 225.998 72.3486 226.862 72.7646 227.598C73.1806 228.334 73.7486 228.91 74.4686 229.326C75.1886 229.726 75.9966 229.926 76.8926 229.926C77.6446 229.926 78.3406 229.774 78.9806 229.47C79.6206 229.166 80.1566 228.702 80.5886 228.078L81.8606 228.942C81.3646 229.758 80.6846 230.382 79.8206 230.814C78.9566 231.23 77.9886 231.438 76.9166 231.438ZM86.3645 228.054L86.4125 225.87L94.2605 218.718H96.3485L90.8045 224.022L89.8445 224.838L86.3645 228.054ZM85.0205 231.318V213.51H86.7245V231.318H85.0205ZM94.7885 231.318L89.5325 224.766L90.6365 223.446L96.8765 231.318H94.7885ZM105.812 236.094C105.22 236.094 104.652 235.998 104.108 235.806C103.58 235.614 103.124 235.326 102.74 234.942L103.532 233.67C103.852 233.974 104.196 234.206 104.564 234.366C104.948 234.542 105.372 234.63 105.836 234.63C106.396 234.63 106.876 234.47 107.276 234.15C107.692 233.846 108.084 233.302 108.452 232.518L109.268 230.67L109.46 230.406L114.644 218.718H116.324L110.012 232.83C109.66 233.646 109.268 234.294 108.836 234.774C108.42 235.254 107.964 235.59 107.468 235.782C106.972 235.99 106.42 236.094 105.812 236.094ZM109.172 231.678L103.364 218.718H105.14L110.276 230.286L109.172 231.678ZM123.508 231.438C122.292 231.438 121.196 231.166 120.22 230.622C119.26 230.062 118.5 229.302 117.94 228.342C117.38 227.366 117.1 226.254 117.1 225.006C117.1 223.742 117.38 222.63 117.94 221.67C118.5 220.71 119.26 219.958 120.22 219.414C121.18 218.87 122.276 218.598 123.508 218.598C124.756 218.598 125.86 218.87 126.82 219.414C127.796 219.958 128.556 220.71 129.1 221.67C129.66 222.63 129.94 223.742 129.94 225.006C129.94 226.254 129.66 227.366 129.1 228.342C128.556 229.302 127.796 230.062 126.82 230.622C125.844 231.166 124.74 231.438 123.508 231.438ZM123.508 229.926C124.42 229.926 125.228 229.726 125.932 229.326C126.636 228.91 127.188 228.334 127.588 227.598C128.004 226.846 128.212 225.982 128.212 225.006C128.212 224.014 128.004 223.15 127.588 222.414C127.188 221.678 126.636 221.11 125.932 220.71C125.228 220.294 124.428 220.086 123.532 220.086C122.636 220.086 121.836 220.294 121.132 220.71C120.428 221.11 119.868 221.678 119.452 222.414C119.036 223.15 118.828 224.014 118.828 225.006C118.828 225.982 119.036 226.846 119.452 227.598C119.868 228.334 120.428 228.91 121.132 229.326C121.836 229.726 122.628 229.926 123.508 229.926ZM138.627 231.438C137.555 231.438 136.619 231.238 135.819 230.838C135.019 230.438 134.395 229.838 133.947 229.038C133.515 228.238 133.299 227.238 133.299 226.038V218.718H135.003V225.846C135.003 227.19 135.331 228.206 135.987 228.894C136.659 229.566 137.595 229.902 138.795 229.902C139.675 229.902 140.435 229.726 141.075 229.374C141.731 229.006 142.227 228.478 142.563 227.79C142.915 227.102 143.091 226.278 143.091 225.318V218.718H144.795V231.318H143.163V227.862L143.427 228.486C143.027 229.414 142.403 230.142 141.555 230.67C140.723 231.182 139.747 231.438 138.627 231.438ZM149.544 231.318V218.718H151.176V222.15L151.008 221.55C151.36 220.59 151.952 219.862 152.784 219.366C153.616 218.854 154.648 218.598 155.88 218.598V220.254C155.816 220.254 155.752 220.254 155.688 220.254C155.624 220.238 155.56 220.23 155.496 220.23C154.168 220.23 153.128 220.638 152.376 221.454C151.624 222.254 151.248 223.398 151.248 224.886V231.318H149.544ZM169.442 231.438C168.258 231.438 167.346 231.118 166.706 230.478C166.066 229.838 165.746 228.934 165.746 227.766V215.934H167.45V227.67C167.45 228.406 167.634 228.974 168.002 229.374C168.386 229.774 168.93 229.974 169.634 229.974C170.386 229.974 171.01 229.758 171.506 229.326L172.106 230.55C171.77 230.854 171.362 231.078 170.882 231.222C170.418 231.366 169.938 231.438 169.442 231.438ZM163.49 220.134V218.718H171.29V220.134H163.49ZM180.115 231.438C178.803 231.438 177.651 231.166 176.659 230.622C175.667 230.062 174.891 229.302 174.331 228.342C173.771 227.366 173.491 226.254 173.491 225.006C173.491 223.758 173.755 222.654 174.283 221.694C174.827 220.734 175.563 219.982 176.491 219.438C177.435 218.878 178.491 218.598 179.659 218.598C180.843 218.598 181.891 218.87 182.803 219.414C183.731 219.942 184.459 220.694 184.987 221.67C185.515 222.63 185.779 223.742 185.779 225.006C185.779 225.086 185.771 225.174 185.755 225.27C185.755 225.35 185.755 225.438 185.755 225.534H174.787V224.262H184.843L184.171 224.766C184.171 223.854 183.971 223.046 183.571 222.342C183.187 221.622 182.659 221.062 181.987 220.662C181.315 220.262 180.539 220.062 179.659 220.062C178.795 220.062 178.019 220.262 177.331 220.662C176.643 221.062 176.107 221.622 175.723 222.342C175.339 223.062 175.147 223.886 175.147 224.814V225.078C175.147 226.038 175.355 226.886 175.771 227.622C176.203 228.342 176.795 228.91 177.547 229.326C178.315 229.726 179.187 229.926 180.163 229.926C180.931 229.926 181.643 229.79 182.299 229.518C182.971 229.246 183.547 228.83 184.027 228.27L184.987 229.374C184.427 230.046 183.723 230.558 182.875 230.91C182.043 231.262 181.123 231.438 180.115 231.438ZM196.792 231.318V228.534L196.72 228.078V223.422C196.72 222.35 196.416 221.526 195.808 220.95C195.216 220.374 194.328 220.086 193.144 220.086C192.328 220.086 191.552 220.222 190.816 220.494C190.08 220.766 189.456 221.126 188.944 221.574L188.176 220.302C188.816 219.758 189.584 219.342 190.48 219.054C191.376 218.75 192.32 218.598 193.312 218.598C194.944 218.598 196.2 219.006 197.08 219.822C197.976 220.622 198.424 221.846 198.424 223.494V231.318H196.792ZM192.448 231.438C191.504 231.438 190.68 231.286 189.976 230.982C189.288 230.662 188.76 230.23 188.392 229.686C188.024 229.126 187.84 228.486 187.84 227.766C187.84 227.11 187.992 226.518 188.296 225.99C188.616 225.446 189.128 225.014 189.832 224.694C190.552 224.358 191.512 224.19 192.712 224.19H197.056V225.462H192.76C191.544 225.462 190.696 225.678 190.216 226.11C189.752 226.542 189.52 227.078 189.52 227.718C189.52 228.438 189.8 229.014 190.36 229.446C190.92 229.878 191.704 230.094 192.712 230.094C193.672 230.094 194.496 229.878 195.184 229.446C195.888 228.998 196.4 228.358 196.72 227.526L197.104 228.702C196.784 229.534 196.224 230.198 195.424 230.694C194.64 231.19 193.648 231.438 192.448 231.438ZM218.796 218.598C219.82 218.598 220.708 218.798 221.46 219.198C222.228 219.582 222.82 220.174 223.236 220.974C223.668 221.774 223.884 222.782 223.884 223.998V231.318H222.18V224.166C222.18 222.838 221.86 221.838 221.22 221.166C220.596 220.478 219.708 220.134 218.556 220.134C217.692 220.134 216.94 220.318 216.3 220.686C215.676 221.038 215.188 221.558 214.836 222.246C214.5 222.918 214.332 223.734 214.332 224.694V231.318H212.628V224.166C212.628 222.838 212.308 221.838 211.668 221.166C211.028 220.478 210.132 220.134 208.98 220.134C208.132 220.134 207.388 220.318 206.748 220.686C206.108 221.038 205.612 221.558 205.26 222.246C204.924 222.918 204.756 223.734 204.756 224.694V231.318H203.052V218.718H204.684V222.126L204.42 221.526C204.804 220.614 205.42 219.902 206.268 219.39C207.132 218.862 208.148 218.598 209.316 218.598C210.548 218.598 211.596 218.91 212.46 219.534C213.324 220.142 213.884 221.062 214.14 222.294L213.468 222.03C213.836 221.006 214.484 220.182 215.412 219.558C216.356 218.918 217.484 218.598 218.796 218.598ZM228.577 226.278L228.241 214.518H230.257L229.897 226.278H228.577ZM229.249 231.438C228.897 231.438 228.593 231.318 228.337 231.078C228.097 230.822 227.977 230.526 227.977 230.19C227.977 229.838 228.097 229.55 228.337 229.326C228.593 229.086 228.897 228.966 229.249 228.966C229.617 228.966 229.913 229.086 230.137 229.326C230.377 229.55 230.497 229.838 230.497 230.19C230.497 230.526 230.377 230.822 230.137 231.078C229.913 231.318 229.617 231.438 229.249 231.438Z" fill="#343F4B"/>
<path d="M196.394 327.273C197.588 327.073 198.755 326.751 199.874 326.313C201.292 325.785 202.775 325.422 204.288 325.233C207.46 324.927 210.662 325.371 213.601 326.523L213.407 307.143C213.399 306.872 213.333 306.604 213.214 306.356C213.094 306.108 212.923 305.884 212.711 305.697C212.498 305.51 212.248 305.365 211.975 305.268C211.702 305.171 211.411 305.125 211.119 305.133H190.046C189.743 305.125 189.441 305.174 189.159 305.278C188.876 305.381 188.619 305.536 188.403 305.733C187.985 306.128 187.733 306.65 187.694 307.203V326.283C190.465 327.266 193.451 327.606 196.394 327.273V327.273Z" fill="white"/>
<path d="M200.486 321.063C204.579 321.063 207.897 318.203 207.897 314.673C207.897 311.144 204.579 308.283 200.486 308.283C196.393 308.283 193.075 311.144 193.075 314.673C193.075 318.203 196.393 321.063 200.486 321.063Z" fill="#C95D4F"/>
<path d="M216.146 307.083C216.079 305.869 215.507 304.726 214.551 303.897C213.594 303.068 212.329 302.618 211.023 302.643H189.917C189.266 302.611 188.614 302.7 188.001 302.906C187.387 303.111 186.824 303.428 186.343 303.839C185.863 304.25 185.476 304.746 185.204 305.298C184.933 305.85 184.782 306.447 184.762 307.053V343.053C184.82 344.268 185.391 345.413 186.35 346.238C187.309 347.064 188.579 347.504 189.885 347.463H210.862C211.513 347.492 212.164 347.398 212.776 347.189C213.388 346.98 213.949 346.66 214.426 346.246C214.903 345.833 215.287 345.335 215.554 344.781C215.822 344.228 215.969 343.63 215.985 343.023L216.146 307.083ZM188.177 305.613C188.394 305.416 188.651 305.261 188.933 305.158C189.216 305.054 189.517 305.005 189.821 305.013H210.926C211.218 305.005 211.509 305.051 211.782 305.148C212.055 305.244 212.305 305.39 212.517 305.577C212.73 305.764 212.901 305.987 213.02 306.236C213.14 306.484 213.206 306.752 213.214 307.023V326.493C210.267 325.409 207.092 324.968 203.934 325.203C202.492 325.346 201.092 325.744 199.809 326.373C198.691 326.811 197.524 327.133 196.329 327.333C193.36 327.613 190.362 327.212 187.597 326.163V307.113C187.599 306.566 187.804 306.036 188.177 305.613Z" fill="#C95D4F"/>
<path d="M182.796 347.403C184.598 350.932 185.183 354.893 184.472 358.743C183.189 364.277 179.652 369.131 174.604 372.287C169.557 375.442 163.391 376.653 157.405 375.663C152.462 374.977 147.869 372.881 144.258 369.663L143.743 369.993L140.005 372.333C139.784 372.487 139.519 372.576 139.244 372.592C138.969 372.607 138.695 372.548 138.456 372.42C138.216 372.293 138.022 372.103 137.897 371.875C137.771 371.646 137.72 371.389 137.749 371.133L139.167 363.513L140.778 354.753C140.863 354.414 141.083 354.116 141.394 353.922C141.705 353.727 142.084 353.649 142.454 353.703L161.433 356.343C161.707 356.356 161.971 356.45 162.184 356.612C162.397 356.774 162.549 356.995 162.617 357.244C162.685 357.492 162.667 357.753 162.564 357.991C162.461 358.228 162.279 358.429 162.045 358.563L157.792 361.233C159.829 362.614 162.175 363.547 164.655 363.963C165.905 364.201 167.183 364.292 168.457 364.233C169.776 364.207 171.086 364.026 172.356 363.693C174.974 363.132 177.373 361.907 179.29 360.154C181.206 358.402 182.565 356.19 183.215 353.763C183.717 351.649 183.572 349.445 182.796 347.403Z" fill="#FFA94D"/>
<path d="M51.2327 335.973C51.9561 335.875 52.661 335.683 53.3272 335.403C54.1592 335.093 55.0228 334.862 55.905 334.713C57.8249 334.538 59.7617 334.806 61.5439 335.493V323.793C61.5441 323.627 61.5079 323.462 61.4375 323.308C61.3671 323.155 61.264 323.017 61.1344 322.902C61.0048 322.787 60.8515 322.697 60.6837 322.639C60.5159 322.581 60.3371 322.555 60.1583 322.563H47.4305C47.2463 322.555 47.0622 322.583 46.8901 322.645C46.7181 322.707 46.5619 322.802 46.4316 322.923C46.1823 323.159 46.0237 323.465 45.9805 323.793V335.343C47.6489 335.952 49.453 336.169 51.2327 335.973Z" fill="white"/>
<path d="M53.7139 332.223C56.1875 332.223 58.1928 330.491 58.1928 328.353C58.1928 326.216 56.1875 324.483 53.7139 324.483C51.2403 324.483 49.235 326.216 49.235 328.353C49.235 330.491 51.2403 332.223 53.7139 332.223Z" fill="#E08780"/>
<path d="M63.1872 323.733C63.0996 322.996 62.7218 322.315 62.1268 321.822C61.5317 321.329 60.7616 321.059 59.965 321.063H47.0761C46.6737 321.031 46.2683 321.075 45.8849 321.193C45.5014 321.311 45.148 321.501 44.8463 321.751C44.5445 322.001 44.3008 322.306 44.1302 322.647C43.9595 322.988 43.8655 323.357 43.8539 323.733V345.453C43.87 345.828 43.9671 346.196 44.1392 346.534C44.3114 346.873 44.5551 347.176 44.8559 347.426C45.1566 347.675 45.5082 347.865 45.8897 347.985C46.2712 348.105 46.6747 348.152 47.0761 348.123H59.7717C60.1741 348.156 60.5794 348.112 60.9629 347.994C61.3463 347.876 61.6998 347.686 62.0015 347.436C62.3033 347.186 62.5469 346.881 62.7176 346.54C62.8882 346.199 62.9823 345.829 62.9939 345.453L63.1872 323.733ZM46.3994 322.863C46.5297 322.742 46.6859 322.647 46.8579 322.585C47.03 322.523 47.2141 322.495 47.3983 322.503H60.2872C60.465 322.499 60.6418 322.528 60.8076 322.588C60.9735 322.647 61.125 322.737 61.2537 322.851C61.3824 322.965 61.4856 323.102 61.5575 323.253C61.6294 323.405 61.6686 323.568 61.6728 323.733V335.493C59.8918 334.84 57.9744 334.574 56.0661 334.713C55.1897 334.797 54.3375 335.031 53.5528 335.403C52.8866 335.683 52.1816 335.875 51.4583 335.973C49.6626 336.155 47.8467 335.918 46.1739 335.283V323.763C46.1782 323.435 46.3033 323.117 46.5283 322.863H46.3994Z" fill="#E08780"/>
<path d="M75.1417 335.973C75.8744 335.871 76.5895 335.68 77.2683 335.403C78.0891 335.093 78.9422 334.861 79.8139 334.713C81.7338 334.538 83.6707 334.806 85.4528 335.493V323.793C85.4528 323.629 85.4176 323.467 85.3492 323.316C85.2808 323.164 85.1806 323.028 85.0545 322.913C84.9284 322.798 84.7789 322.708 84.6149 322.648C84.4509 322.588 84.2756 322.559 84.0995 322.563H71.2106C71.0263 322.555 70.8422 322.583 70.6702 322.645C70.4981 322.707 70.3419 322.802 70.2117 322.923C69.9578 323.153 69.808 323.464 69.7928 323.793V335.343C71.4909 335.967 73.3302 336.184 75.1417 335.973V335.973Z" fill="white"/>
<path d="M77.6228 332.223C80.0964 332.223 82.1016 330.491 82.1016 328.353C82.1016 326.216 80.0964 324.483 77.6228 324.483C75.1491 324.483 73.1439 326.216 73.1439 328.353C73.1439 330.491 75.1491 332.223 77.6228 332.223Z" fill="#E08780"/>
<path d="M87.0961 323.733C87.0756 323.36 86.9756 322.995 86.802 322.658C86.6284 322.321 86.3847 322.019 86.0848 321.771C85.785 321.522 85.4352 321.332 85.0556 321.211C84.6761 321.089 84.2744 321.039 83.8739 321.063H70.985C70.5826 321.031 70.1772 321.075 69.7938 321.193C69.4103 321.311 69.0569 321.501 68.7551 321.751C68.4534 322.001 68.2097 322.306 68.0391 322.647C67.8684 322.988 67.7744 323.357 67.7628 323.733V345.453C67.7833 345.827 67.8832 346.192 68.0568 346.529C68.2304 346.866 68.4742 347.167 68.774 347.416C69.0738 347.664 69.4237 347.855 69.8032 347.976C70.1828 348.098 70.5845 348.148 70.985 348.123H83.6483C84.0507 348.156 84.4561 348.112 84.8395 347.994C85.223 347.876 85.5764 347.686 85.8782 347.436C86.1799 347.186 86.4236 346.881 86.5942 346.54C86.7649 346.199 86.8589 345.829 86.8705 345.453L87.0961 323.733ZM70.2116 322.863C70.3419 322.742 70.4981 322.647 70.6701 322.585C70.8422 322.523 71.0263 322.495 71.2105 322.503H84.0994C84.2772 322.499 84.454 322.528 84.6198 322.588C84.7857 322.647 84.9372 322.737 85.0659 322.851C85.1946 322.965 85.2978 323.102 85.3697 323.253C85.4416 323.405 85.4808 323.568 85.485 323.733V335.493C83.7046 334.838 81.7867 334.571 79.8783 334.713C79.0113 334.793 78.1688 335.027 77.3972 335.403C76.7184 335.68 76.0033 335.871 75.2705 335.973C73.4749 336.155 71.6589 335.918 69.9861 335.283V323.763C69.9904 323.435 70.1155 323.117 70.3405 322.863H70.2116Z" fill="#E08780"/>
<path d="M99.5339 335.973C100.267 335.871 100.982 335.68 101.661 335.403C102.481 335.093 103.334 334.861 104.206 334.713C106.126 334.538 108.063 334.806 109.845 335.493V323.793C109.845 323.629 109.81 323.467 109.742 323.316C109.673 323.164 109.573 323.027 109.447 322.913C109.321 322.798 109.171 322.708 109.007 322.648C108.843 322.588 108.668 322.559 108.492 322.563H95.6028C95.423 322.551 95.2425 322.578 95.0751 322.64C94.9076 322.702 94.7576 322.799 94.6362 322.923C94.3731 323.15 94.2119 323.461 94.1851 323.793V335.343C95.8831 335.967 97.7225 336.184 99.5339 335.973V335.973Z" fill="white"/>
<path d="M102.015 332.223C104.489 332.223 106.494 330.491 106.494 328.353C106.494 326.216 104.489 324.483 102.015 324.483C99.5414 324.483 97.5361 326.216 97.5361 328.353C97.5361 330.491 99.5414 332.223 102.015 332.223Z" fill="#E08780"/>
<path d="M111.488 323.733C111.468 323.36 111.368 322.995 111.194 322.658C111.021 322.321 110.777 322.019 110.477 321.771C110.177 321.522 109.827 321.332 109.448 321.211C109.068 321.089 108.667 321.039 108.266 321.063H95.3773C94.9749 321.031 94.5695 321.075 94.186 321.193C93.8026 321.311 93.4491 321.501 93.1474 321.751C92.8457 322.001 92.602 322.306 92.4313 322.647C92.2607 322.988 92.1667 323.357 92.155 323.733V345.453C92.1755 345.827 92.2755 346.192 92.4491 346.529C92.6227 346.866 92.8665 347.167 93.1663 347.416C93.4661 347.664 93.8159 347.855 94.1955 347.976C94.5751 348.098 94.9768 348.148 95.3773 348.123H108.041C108.443 348.156 108.848 348.112 109.232 347.994C109.615 347.876 109.969 347.686 110.27 347.436C110.572 347.186 110.816 346.881 110.987 346.54C111.157 346.199 111.251 345.829 111.263 345.453L111.488 323.733ZM94.7328 322.863C94.8542 322.739 95.0043 322.642 95.1717 322.58C95.3391 322.518 95.5196 322.491 95.6995 322.503H108.588C108.766 322.499 108.943 322.528 109.109 322.588C109.275 322.647 109.426 322.737 109.555 322.851C109.684 322.965 109.787 323.102 109.859 323.253C109.931 323.405 109.97 323.568 109.974 323.733V335.493C108.194 334.838 106.276 334.571 104.367 334.713C103.5 334.793 102.658 335.027 101.886 335.403C101.207 335.68 100.492 335.871 99.7595 335.973C97.9638 336.155 96.1478 335.918 94.475 335.283V323.763C94.4767 323.429 94.6149 323.107 94.8617 322.863H94.7328Z" fill="#E08780"/>
<path d="M124.345 335.973C125.067 335.871 125.772 335.68 126.439 335.403C127.27 335.089 128.134 334.858 129.017 334.713C130.927 334.538 132.853 334.806 134.624 335.493V323.793C134.624 323.629 134.589 323.467 134.52 323.316C134.452 323.164 134.352 323.028 134.226 322.913C134.1 322.798 133.95 322.708 133.786 322.648C133.622 322.588 133.447 322.559 133.271 322.563H120.382C120.202 322.556 120.023 322.584 119.856 322.646C119.69 322.708 119.539 322.803 119.415 322.923C119.152 323.15 118.991 323.461 118.964 323.793V335.343C120.673 335.967 122.523 336.184 124.345 335.973V335.973Z" fill="white"/>
<path d="M126.794 332.223C129.268 332.223 131.273 330.491 131.273 328.353C131.273 326.216 129.268 324.483 126.794 324.483C124.32 324.483 122.315 326.216 122.315 328.353C122.315 330.491 124.32 332.223 126.794 332.223Z" fill="#E08780"/>
<path d="M136.267 323.733C136.247 323.36 136.147 322.995 135.973 322.658C135.8 322.321 135.556 322.019 135.256 321.771C134.956 321.522 134.606 321.332 134.227 321.211C133.847 321.089 133.445 321.039 133.045 321.063H120.511C120.108 321.031 119.703 321.075 119.319 321.193C118.936 321.311 118.582 321.501 118.281 321.751C117.979 322.001 117.735 322.306 117.565 322.647C117.394 322.988 117.3 323.357 117.288 323.733V345.453C117.287 345.839 117.372 346.221 117.536 346.576C117.7 346.93 117.941 347.25 118.243 347.514C118.545 347.778 118.902 347.982 119.292 348.113C119.682 348.243 120.097 348.298 120.511 348.273H133.174C133.576 348.306 133.982 348.262 134.365 348.144C134.749 348.026 135.102 347.836 135.404 347.586C135.705 347.336 135.949 347.031 136.12 346.69C136.29 346.349 136.384 345.979 136.396 345.603L136.267 323.733ZM119.415 322.863C119.539 322.743 119.69 322.648 119.856 322.586C120.023 322.524 120.202 322.496 120.382 322.503H133.271C133.449 322.495 133.628 322.521 133.796 322.579C133.964 322.637 134.117 322.727 134.247 322.842C134.376 322.957 134.479 323.095 134.55 323.248C134.62 323.402 134.656 323.567 134.656 323.733V335.493C132.876 334.838 130.958 334.571 129.049 334.713C128.182 334.793 127.34 335.027 126.568 335.403C125.901 335.68 125.196 335.871 124.474 335.973C122.668 336.155 120.841 335.918 119.157 335.283V323.763C119.173 323.431 119.309 323.114 119.544 322.863H119.415Z" fill="#E08780"/>
</svg>
