<svg width="180" height="127" viewBox="0 0 180 127" fill="none" xmlns="http://www.w3.org/2000/svg">
<g opacity="0.9">
<path d="M128.173 30.216C117.776 22.928 105.801 18.086 93.1813 16.0665C80.5612 14.047 67.6353 14.9044 55.4088 18.572L87.4252 70.1596C89.583 69.963 91.7409 69.8648 93.8987 69.8648C108.704 69.9268 123.106 74.5997 135.019 83.2071C146.932 91.8145 155.739 103.91 160.165 117.743C164.569 101.7 163.865 84.7229 158.148 69.0819C152.431 53.4409 141.974 39.8813 128.173 30.216Z" fill="#F4A062"/>
<path d="M164.38 82.8107C160.648 60.8261 148.15 41.1928 129.634 28.2293C111.119 15.2657 88.1017 10.0335 65.646 13.6834C63.8143 13.9782 62.0329 14.3467 60.2263 14.7643L54.5055 4.93809C53.8498 3.81864 52.9753 2.8366 51.932 2.04804C50.8887 1.25948 49.6969 0.679851 48.4247 0.342242C47.1526 0.00463399 45.8249 -0.0843405 44.5177 0.0804028C43.2104 0.245146 41.9491 0.660383 40.8057 1.30239L5.05071 21.397C3.89629 22.0441 2.88477 22.9094 2.07497 23.9426C1.26516 24.9758 0.673218 26.1563 0.333563 27.4155C-0.338255 29.9028 0.0130852 32.5488 1.31212 34.7852L42.0101 103.962C43.3342 106.216 45.517 107.864 48.0802 108.546C50.6434 109.227 53.3779 108.886 55.6848 107.597L91.4649 87.5765C93.7715 86.2816 95.459 84.1435 96.1569 81.6316C96.5136 80.3739 96.6108 79.0592 96.4428 77.7644C96.2747 76.4695 95.8449 75.2204 95.1784 74.09L94.1496 72.3458C109.098 72.4632 123.58 77.4538 135.308 86.5291C147.036 95.6045 155.341 108.247 158.91 122.459L159.939 126.685L161.319 122.558C165.624 109.749 166.675 96.1064 164.38 82.8107ZM160.165 117.743C155.729 103.899 146.906 91.797 134.973 83.1928C123.04 74.5885 108.618 69.9289 93.7983 69.8893C91.6405 69.8893 89.4827 69.9875 87.3248 70.1841L55.3084 18.5719C66.6597 15.1662 78.6235 14.1754 90.3978 15.6659C102.172 17.1564 113.485 21.0937 123.578 27.214C133.672 33.3343 142.312 41.4962 148.921 51.1526C155.529 60.809 159.953 71.7369 161.896 83.2038C163.888 94.7033 163.298 106.49 160.165 117.743Z" fill="#FFD366"/>
</g>
<path d="M44.2683 62.2003C45.9625 60.861 47.4499 59.2889 48.6843 57.5328C50.2018 55.4151 52.0473 53.542 54.1542 51.981C58.7765 48.7193 64.1757 46.6725 69.8362 46.0362L49.6127 11.6444C49.0489 10.7177 48.1329 10.0474 47.0654 9.78038C45.9979 9.51334 44.8658 9.67129 43.917 10.2196L11.1479 28.4472C10.6697 28.7068 10.2499 29.0581 9.9136 29.4802C9.57731 29.9023 9.33147 30.3865 9.19078 30.9038C9.04346 31.424 9.00309 31.9676 9.072 32.5031C9.14092 33.0387 9.31775 33.5555 9.59224 34.0236L29.4143 67.6784C34.7696 67.1548 39.8911 65.266 44.2683 62.2003Z" fill="#DFE2E5"/>
<path d="M31.9234 36.1117C31.93 34.6738 32.5163 33.2967 33.5548 32.2799C34.5933 31.2632 35.9999 30.6892 37.4686 30.6827C38.4613 30.6866 39.4338 30.9586 40.2788 31.4688L47.3043 27.4155C45.2955 25.1692 42.553 23.6747 39.5444 23.1872C36.5358 22.6996 33.4477 23.2491 30.8067 24.7419C28.1658 26.2347 26.1357 28.5784 25.0627 31.3731C23.9897 34.1678 23.9403 37.2404 24.923 40.0667L31.9485 36.1117H31.9234Z" fill="#D85855"/>
<path d="M43.0137 36.038C43.0071 37.4759 42.4208 38.853 41.3823 39.8697C40.3438 40.8865 38.9372 41.4605 37.4686 41.467C36.4758 41.4631 35.5034 41.1911 34.6583 40.6809L27.6328 44.6605C29.6416 46.9068 32.3842 48.4012 35.3927 48.8888C38.4013 49.3764 41.4894 48.8269 44.1304 47.3341C46.7713 45.8412 48.8015 43.4976 49.8744 40.7029C50.9474 37.9082 50.9968 34.8356 50.0142 32.0093L43.0137 36.038Z" fill="white"/>
<path d="M37.4686 41.5406C38.9372 41.5342 40.3438 40.9601 41.3823 39.9434C42.4208 38.9267 43.0071 37.5495 43.0137 36.1117L50.0142 32.1566C49.8509 31.6195 49.6496 31.0942 49.412 30.5844C49.304 30.279 49.1697 29.9832 49.0105 29.7001C48.8349 29.3807 48.6091 29.1351 48.4084 28.8403C48.0677 28.3925 47.699 27.9659 47.3043 27.5629L40.2788 31.5425C39.4338 31.0323 38.4614 30.7603 37.4686 30.7564C36 30.7628 34.5933 31.3369 33.5549 32.3536C32.5164 33.3704 31.93 34.7475 31.9234 36.1854L24.8979 40.1404C25.0986 40.6563 25.2492 41.1967 25.5001 41.7126C25.751 42.2285 25.7259 42.3022 25.9015 42.597C26.0772 42.8917 26.3281 43.162 26.5288 43.4322C26.8607 43.8875 27.221 44.3224 27.6077 44.7342L34.6333 40.7545C35.4855 41.2691 36.4673 41.5413 37.4686 41.5406ZM34.6333 35.1536C34.7452 34.8923 34.8884 34.6449 35.0598 34.4166C35.3052 34.0693 35.6258 33.7791 35.9988 33.5668C36.3717 33.3545 36.7879 33.2253 37.2177 33.1884H37.4686C37.8673 33.1884 38.2621 33.2652 38.6304 33.4146C38.9988 33.564 39.3335 33.783 39.6154 34.059C39.8973 34.335 40.1209 34.6627 40.2735 35.0233C40.4261 35.3839 40.5046 35.7705 40.5046 36.1608C40.4913 36.4807 40.4234 36.7962 40.3039 37.0943C40.1953 37.3601 40.0608 37.6151 39.9024 37.8558C39.6506 38.2005 39.3246 38.4869 38.9474 38.6949C38.5703 38.9028 38.1511 39.0273 37.7195 39.0595C37.6365 39.0738 37.5516 39.0738 37.4686 39.0595C36.9811 39.0767 36.4968 38.9747 36.0597 38.7627C35.6225 38.5507 35.2462 38.2354 34.9648 37.8453C34.6834 37.4552 34.5057 37.0025 34.4478 36.5283C34.3899 36.054 34.4537 35.5731 34.6333 35.129V35.1536Z" fill="#343F4B"/>
<path d="M39.9024 37.8067C40.2498 37.367 40.4606 36.8387 40.5099 36.285C40.5592 35.7312 40.4448 35.1752 40.1804 34.6833C39.9159 34.1914 39.5126 33.7843 39.0185 33.5105C38.5243 33.2368 37.9602 33.1079 37.3933 33.1393H37.1424C36.7126 33.1762 36.2965 33.3054 35.9235 33.5177C35.5505 33.73 35.2299 34.0201 34.9845 34.3675C34.6372 34.8073 34.4263 35.3355 34.3771 35.8893C34.3278 36.4431 34.4422 36.999 34.7066 37.4909C34.971 37.9828 35.3744 38.3899 35.8685 38.6637C36.3627 38.9375 36.9268 39.0663 37.4937 39.035C37.5767 39.0492 37.6616 39.0492 37.7446 39.035C38.1726 38.9917 38.5864 38.8597 38.9584 38.648C39.3304 38.4362 39.6522 38.1495 39.9024 37.8067Z" fill="white"/>
<path d="M53.9786 9.16335C52.7599 7.09943 50.7578 5.59037 48.4082 4.96466C46.0586 4.33895 43.5516 4.64724 41.433 5.82244L8.66386 24.1729C6.56005 25.3701 5.02401 27.332 4.3897 29.6321C3.75539 31.9322 4.07411 34.3844 5.27655 36.4556L42.5119 99.8101C43.7306 101.874 45.7327 103.383 48.0823 104.009C50.432 104.634 52.9389 104.326 55.0575 103.151L87.8267 84.8005C89.9255 83.5987 91.4572 81.6369 92.091 79.3387C92.7248 77.0405 92.4098 74.5905 91.214 72.5178L53.9786 9.16335ZM9.1406 30.9284C9.28129 30.4111 9.52713 29.9269 9.86342 29.5048C10.1997 29.0827 10.6195 28.7314 11.0977 28.4718L43.917 10.2197C44.3913 9.95123 44.9151 9.77704 45.4582 9.70708C46.0014 9.63712 46.5533 9.67277 47.0824 9.81196C47.6115 9.95116 48.1073 10.1912 48.5415 10.5183C48.9757 10.8454 49.3397 11.2531 49.6127 11.7182L69.8362 46.1099C64.1827 46.7243 58.784 48.7456 54.1542 51.981C52.0573 53.5757 50.2286 55.4821 48.7345 57.6311C47.4771 59.3558 45.973 60.8946 44.2683 62.2003C39.8793 65.2828 34.7392 67.1805 29.3641 67.7029L9.54206 34.0482C9.26757 33.5801 9.09074 33.0632 9.02182 32.5277C8.95291 31.9922 8.99328 31.4485 9.1406 30.9284Z" fill="#DD5952"/>
<g filter="url(#filter0_d_80_669)">
<path d="M73.2675 111.157V92.9809H66.0995V88.7569H85.6195V92.9809H78.4515V111.157H73.2675ZM87.6817 111.157V93.9409H92.4497V98.8049L91.7777 97.3969C92.2897 96.1809 93.111 95.2635 94.2417 94.6449C95.3724 94.0049 96.7484 93.6849 98.3697 93.6849V98.2929C98.1564 98.2715 97.9644 98.2609 97.7937 98.2609C97.6231 98.2395 97.4417 98.2289 97.2497 98.2289C95.8844 98.2289 94.775 98.6235 93.9217 99.4129C93.0897 100.181 92.6737 101.386 92.6737 103.029V111.157H87.6817ZM108.727 111.413C107.298 111.413 106.018 111.136 104.887 110.581C103.778 110.026 102.914 109.184 102.295 108.053C101.676 106.901 101.367 105.44 101.367 103.669V93.9409H106.359V102.933C106.359 104.362 106.658 105.418 107.255 106.101C107.874 106.762 108.738 107.093 109.847 107.093C110.615 107.093 111.298 106.933 111.895 106.613C112.492 106.272 112.962 105.76 113.303 105.077C113.644 104.373 113.815 103.498 113.815 102.453V93.9409H118.807V111.157H114.071V106.421L114.935 107.797C114.359 108.992 113.506 109.898 112.375 110.517C111.266 111.114 110.05 111.413 108.727 111.413ZM133.896 93.6849C135.261 93.6849 136.477 93.9622 137.544 94.5169C138.632 95.0502 139.485 95.8822 140.104 97.0129C140.722 98.1222 141.032 99.5515 141.032 101.301V111.157H136.04V102.069C136.04 100.682 135.73 99.6582 135.112 98.9969C134.514 98.3355 133.661 98.0049 132.552 98.0049C131.762 98.0049 131.048 98.1755 130.408 98.5169C129.789 98.8369 129.298 99.3382 128.936 100.021C128.594 100.704 128.424 101.578 128.424 102.645V111.157H123.432V93.9409H128.2V98.7089L127.304 97.2689C127.922 96.1169 128.808 95.2315 129.96 94.6129C131.112 93.9942 132.424 93.6849 133.896 93.6849ZM146.165 111.157V93.5569C146.165 91.6155 146.741 90.0689 147.893 88.9169C149.045 87.7435 150.687 87.1569 152.821 87.1569C153.546 87.1569 154.239 87.2315 154.901 87.3809C155.583 87.5302 156.159 87.7649 156.629 88.0849L155.317 91.7009C155.039 91.5089 154.73 91.3595 154.389 91.2529C154.047 91.1462 153.685 91.0929 153.301 91.0929C152.575 91.0929 152.01 91.3062 151.605 91.7329C151.221 92.1382 151.029 92.7569 151.029 93.5889V95.1889L151.157 97.3329V111.157H146.165ZM143.509 98.1649V94.3249H155.445V98.1649H143.509ZM165.905 111.413C164.07 111.413 162.438 111.029 161.009 110.261C159.601 109.493 158.481 108.448 157.649 107.125C156.838 105.781 156.433 104.256 156.433 102.549C156.433 100.821 156.838 99.2955 157.649 97.9729C158.481 96.6289 159.601 95.5835 161.009 94.8369C162.438 94.0689 164.07 93.6849 165.905 93.6849C167.718 93.6849 169.34 94.0689 170.769 94.8369C172.198 95.5835 173.318 96.6182 174.129 97.9409C174.94 99.2635 175.345 100.8 175.345 102.549C175.345 104.256 174.94 105.781 174.129 107.125C173.318 108.448 172.198 109.493 170.769 110.261C169.34 111.029 167.718 111.413 165.905 111.413ZM165.905 107.317C166.737 107.317 167.484 107.125 168.145 106.741C168.806 106.357 169.329 105.813 169.713 105.109C170.097 104.384 170.289 103.53 170.289 102.549C170.289 101.546 170.097 100.693 169.713 99.9889C169.329 99.2849 168.806 98.7409 168.145 98.3569C167.484 97.9729 166.737 97.7809 165.905 97.7809C165.073 97.7809 164.326 97.9729 163.665 98.3569C163.004 98.7409 162.47 99.2849 162.065 99.9889C161.681 100.693 161.489 101.546 161.489 102.549C161.489 103.53 161.681 104.384 162.065 105.109C162.47 105.813 163.004 106.357 163.665 106.741C164.326 107.125 165.073 107.317 165.905 107.317Z" fill="#343F4B"/>
</g>
<g filter="url(#filter1_d_80_669)">
<path d="M21.5025 83.1569V60.7569H31.1985C33.2038 60.7569 34.9318 61.0875 36.3825 61.7489C37.8331 62.3889 38.9531 63.3169 39.7425 64.5329C40.5318 65.7489 40.9265 67.1995 40.9265 68.8849C40.9265 70.5489 40.5318 71.9889 39.7425 73.2049C38.9531 74.4209 37.8331 75.3595 36.3825 76.0209C34.9318 76.6609 33.2038 76.9809 31.1985 76.9809H24.3825L26.6865 74.6449V83.1569H21.5025ZM26.6865 75.2209L24.3825 72.7569H30.9105C32.5105 72.7569 33.7051 72.4155 34.4945 71.7329C35.2838 71.0502 35.6785 70.1009 35.6785 68.8849C35.6785 67.6475 35.2838 66.6875 34.4945 66.0049C33.7051 65.3222 32.5105 64.9809 30.9105 64.9809H24.3825L26.6865 62.5169V75.2209ZM52.4362 83.4129C50.6015 83.4129 48.9695 83.0289 47.5402 82.2609C46.1322 81.4929 45.0122 80.4475 44.1802 79.1249C43.3695 77.7809 42.9642 76.2555 42.9642 74.5489C42.9642 72.8209 43.3695 71.2955 44.1802 69.9729C45.0122 68.6289 46.1322 67.5835 47.5402 66.8369C48.9695 66.0689 50.6015 65.6849 52.4362 65.6849C54.2495 65.6849 55.8709 66.0689 57.3002 66.8369C58.7296 67.5835 59.8496 68.6182 60.6602 69.9409C61.4709 71.2635 61.8762 72.7995 61.8762 74.5489C61.8762 76.2555 61.4709 77.7809 60.6602 79.1249C59.8496 80.4475 58.7296 81.4929 57.3002 82.2609C55.8709 83.0289 54.2495 83.4129 52.4362 83.4129ZM52.4362 79.3169C53.2682 79.3169 54.0149 79.1249 54.6762 78.7409C55.3376 78.3569 55.8602 77.8129 56.2442 77.1089C56.6282 76.3835 56.8202 75.5302 56.8202 74.5489C56.8202 73.5462 56.6282 72.6929 56.2442 71.9889C55.8602 71.2849 55.3376 70.7409 54.6762 70.3569C54.0149 69.9729 53.2682 69.7809 52.4362 69.7809C51.6042 69.7809 50.8575 69.9729 50.1962 70.3569C49.5349 70.7409 49.0015 71.2849 48.5962 71.9889C48.2122 72.6929 48.0202 73.5462 48.0202 74.5489C48.0202 75.5302 48.2122 76.3835 48.5962 77.1089C49.0015 77.8129 49.5349 78.3569 50.1962 78.7409C50.8575 79.1249 51.6042 79.3169 52.4362 79.3169ZM69.341 79.6369L69.469 73.5569L77.501 65.9409H83.453L75.741 73.7809L73.149 75.8929L69.341 79.6369ZM65.213 83.1569V59.4129H70.205V83.1569H65.213ZM78.045 83.1569L72.221 75.9249L75.357 72.0529L84.093 83.1569H78.045ZM94.1632 83.4129C92.2005 83.4129 90.4725 83.0289 88.9792 82.2609C87.5072 81.4929 86.3659 80.4475 85.5552 79.1249C84.7445 77.7809 84.3392 76.2555 84.3392 74.5489C84.3392 72.8209 84.7339 71.2955 85.5232 69.9729C86.3339 68.6289 87.4325 67.5835 88.8192 66.8369C90.2059 66.0689 91.7739 65.6849 93.5232 65.6849C95.2086 65.6849 96.7232 66.0475 98.0672 66.7729C99.4326 67.4769 100.51 68.5009 101.299 69.8449C102.089 71.1675 102.483 72.7569 102.483 74.6129C102.483 74.8049 102.473 75.0289 102.451 75.2849C102.43 75.5195 102.409 75.7435 102.387 75.9569H88.4032V73.0449H99.7632L97.8432 73.9089C97.8432 73.0129 97.6619 72.2342 97.2992 71.5729C96.9365 70.9115 96.4352 70.3995 95.7952 70.0369C95.1552 69.6529 94.4085 69.4609 93.5552 69.4609C92.7019 69.4609 91.9445 69.6529 91.2832 70.0369C90.6432 70.3995 90.1419 70.9222 89.7792 71.6049C89.4165 72.2662 89.2352 73.0555 89.2352 73.9729V74.7409C89.2352 75.6795 89.4379 76.5115 89.8432 77.2369C90.2699 77.9409 90.8565 78.4849 91.6032 78.8689C92.3712 79.2315 93.2672 79.4129 94.2912 79.4129C95.2085 79.4129 96.0085 79.2742 96.6912 78.9969C97.3952 78.7195 98.0352 78.3035 98.6112 77.7489L101.267 80.6289C100.478 81.5249 99.4859 82.2182 98.2912 82.7089C97.0966 83.1782 95.7206 83.4129 94.1632 83.4129ZM90.5152 63.7329L94.8352 59.1249H100.211L94.4192 63.7329H90.5152Z" fill="#343F4B"/>
</g>
<defs>
<filter id="filter0_d_80_669" x="62.0995" y="83.1569" width="117.246" height="32.256" filterUnits="userSpaceOnUse" color-interpolation-filters="sRGB">
<feFlood flood-opacity="0" result="BackgroundImageFix"/>
<feColorMatrix in="SourceAlpha" type="matrix" values="0 0 0 0 0 0 0 0 0 0 0 0 0 0 0 0 0 0 127 0" result="hardAlpha"/>
<feOffset/>
<feGaussianBlur stdDeviation="2"/>
<feComposite in2="hardAlpha" operator="out"/>
<feColorMatrix type="matrix" values="0 0 0 0 0 0 0 0 0 0 0 0 0 0 0 0 0 0 0.25 0"/>
<feBlend mode="normal" in2="BackgroundImageFix" result="effect1_dropShadow_80_669"/>
<feBlend mode="normal" in="SourceGraphic" in2="effect1_dropShadow_80_669" result="shape"/>
</filter>
<filter id="filter1_d_80_669" x="17.5025" y="55.1249" width="88.9807" height="32.288" filterUnits="userSpaceOnUse" color-interpolation-filters="sRGB">
<feFlood flood-opacity="0" result="BackgroundImageFix"/>
<feColorMatrix in="SourceAlpha" type="matrix" values="0 0 0 0 0 0 0 0 0 0 0 0 0 0 0 0 0 0 127 0" result="hardAlpha"/>
<feOffset/>
<feGaussianBlur stdDeviation="2"/>
<feComposite in2="hardAlpha" operator="out"/>
<feColorMatrix type="matrix" values="0 0 0 0 0 0 0 0 0 0 0 0 0 0 0 0 0 0 0.25 0"/>
<feBlend mode="normal" in2="BackgroundImageFix" result="effect1_dropShadow_80_669"/>
<feBlend mode="normal" in="SourceGraphic" in2="effect1_dropShadow_80_669" result="shape"/>
</filter>
</defs>
</svg>
