<svg width="400" height="400" viewBox="0 0 400 400" fill="none" xmlns="http://www.w3.org/2000/svg">
<g clip-path="url(#clip0_173_2673)">
<path d="M197.52 397.84C155.371 398.008 114.246 384.854 80.0175 360.258C45.7886 335.662 20.2054 300.881 6.92017 260.88C16.9615 273.81 30.0136 284.088 44.9382 290.816C59.8629 297.545 76.2069 300.52 92.5453 299.483C108.884 298.445 124.72 293.427 138.674 284.864C152.628 276.302 164.275 264.456 172.6 250.36L33.7601 202.72L174.08 154.72C165.985 139.993 154.322 127.535 140.16 118.489C125.998 109.442 109.792 104.096 93.0266 102.941C76.2616 101.787 59.475 104.861 44.2068 111.881C28.9386 118.901 15.6775 129.642 5.64014 143.12C18.1409 102.738 43.1155 67.3554 76.9784 42.0516C110.841 16.7478 151.851 2.82438 194.12 2.2801C304.4 0.480096 396.24 88.36 397.8 197.32C399.56 307.72 309.12 397.84 197.52 397.84Z" fill="#E2D6AF"/>
<path d="M197.52 400C154.895 400.247 113.287 386.983 78.6694 362.11C44.0521 337.238 18.2056 302.037 4.84021 261.56L0.84021 249.76L8.44019 259.6C18.1346 272.073 30.693 282.026 45.0511 288.614C59.4093 295.202 75.1441 298.232 90.9221 297.448C106.7 296.663 122.057 292.086 135.69 284.105C149.323 276.124 160.832 264.974 169.24 251.6L27.0402 202.8L170.8 153.48C162.618 139.517 151.111 127.794 137.303 119.354C123.495 110.914 107.814 106.019 91.6569 105.104C75.4995 104.19 59.3667 107.284 44.6943 114.112C30.022 120.94 17.2654 131.29 7.56018 144.24L0.160156 154.24L3.76013 142.24C14.118 109.228 32.7318 79.4072 57.8386 55.6014C82.9454 31.7956 113.714 14.7934 147.23 6.20516C180.746 -2.38309 215.899 -2.273 249.36 6.52498C282.822 15.323 313.483 32.5175 338.44 56.4801C357.642 74.6907 372.996 96.5687 383.592 120.819C394.188 145.069 399.811 171.199 400.128 197.661C400.445 224.124 395.449 250.381 385.437 274.878C375.426 299.375 360.601 321.615 341.84 340.28C322.946 359.307 300.456 374.385 275.679 384.637C250.903 394.89 224.334 400.112 197.52 400ZM12.8002 270.96C25.1328 301.492 44.8335 328.496 70.1437 349.561C95.4538 370.625 125.586 385.095 157.85 391.678C190.114 398.262 223.507 396.755 255.046 387.29C286.586 377.826 315.291 360.7 338.6 337.44C356.961 319.172 371.469 297.406 381.268 273.43C391.067 249.455 395.956 223.757 395.646 197.858C395.337 171.96 389.835 146.386 379.466 122.652C369.097 98.9175 354.072 77.5045 335.28 59.6801C311.545 36.8786 282.525 20.32 250.82 11.4875C219.114 2.65498 185.713 1.82426 153.608 9.06978C121.502 16.3153 91.6952 31.4108 66.8562 53.0042C42.0172 74.5977 22.9217 102.015 11.2802 132.8C22.3486 120.991 36.0566 111.972 51.2817 106.481C66.5068 100.99 82.8159 99.1831 98.8738 101.208C114.932 103.234 130.282 109.034 143.666 118.133C157.051 127.233 168.09 139.373 175.88 153.56L177.08 155.76L40.3202 202.72L175.8 249.12L174.48 251.36C166.462 264.908 155.435 276.43 142.252 285.035C129.068 293.64 114.082 299.097 98.453 300.984C82.8236 302.871 66.9695 301.137 52.1172 295.917C37.2649 290.697 23.8123 282.131 12.8002 270.88V270.96Z" fill="#343F4B"/>
<path d="M273.68 279.12C302.531 279.12 325.92 246.92 325.92 207.2C325.92 167.479 302.531 135.28 273.68 135.28C244.829 135.28 221.44 167.479 221.44 207.2C221.44 246.92 244.829 279.12 273.68 279.12Z" fill="#343F4B"/>
<path d="M285.828 305.387C291.144 307.43 294.94 312.299 296.658 318.762C298.377 325.222 297.974 333.16 294.957 341.012C291.94 348.864 286.923 355.029 281.321 358.676C275.717 362.324 269.637 363.399 264.321 361.357C259.005 359.314 255.209 354.444 253.49 347.982C251.772 341.521 252.175 333.583 255.192 325.732C258.209 317.88 263.226 311.715 268.828 308.067C274.432 304.419 280.512 303.344 285.828 305.387Z" fill="#E2D6AF" stroke="#343F4B" stroke-width="3"/>
<path d="M225.806 344.186C226.554 350.331 225.411 356.054 223.032 360.332C220.653 364.611 217.108 367.346 213.031 367.842C208.954 368.339 204.856 366.534 201.519 362.95C198.184 359.368 195.702 354.086 194.954 347.941C194.206 341.796 195.349 336.073 197.727 331.795C200.107 327.516 203.652 324.78 207.729 324.284C211.806 323.788 215.903 325.593 219.24 329.176C222.575 332.759 225.058 338.041 225.806 344.186Z" fill="#E2D6AF" stroke="#343F4B" stroke-width="3"/>
<path d="M310.371 78.0027C312.508 83.8254 312.712 89.6673 311.383 94.3804C310.054 99.0955 307.238 102.567 303.395 103.978C299.553 105.389 295.16 104.564 291.095 101.829C287.033 99.0951 283.408 94.5093 281.27 88.6866C279.132 82.8639 278.929 77.0219 280.258 72.3089C281.587 67.5938 284.402 64.122 288.245 62.7113C292.087 61.3006 296.481 62.1258 300.545 64.8606C304.608 67.5942 308.233 72.18 310.371 78.0027Z" fill="#E2D6AF" stroke="#343F4B" stroke-width="3"/>
<path d="M376.51 271.635C377.526 272.379 378.238 273.75 378.427 275.934C378.615 278.114 378.256 280.913 377.324 284.175C375.465 290.688 371.415 298.724 365.577 306.691C359.739 314.659 353.297 320.942 347.648 324.678C344.819 326.549 342.257 327.735 340.122 328.213C337.983 328.691 336.461 328.425 335.446 327.681C334.43 326.937 333.718 325.566 333.529 323.382C333.341 321.202 333.7 318.403 334.632 315.141C336.491 308.628 340.541 300.592 346.379 292.625C352.217 284.657 358.658 278.374 364.308 274.638C367.137 272.767 369.699 271.581 371.834 271.103C373.973 270.625 375.495 270.891 376.51 271.635Z" fill="##E2D6AF" stroke="#343F4B" stroke-width="3"/>
<path d="M278.28 239.12C289.303 239.12 298.24 224.829 298.24 207.2C298.24 189.571 289.303 175.28 278.28 175.28C267.256 175.28 258.32 189.571 258.32 207.2C258.32 224.829 267.256 239.12 278.28 239.12Z" fill="#D5737C"/>
<line x1="45.5137" y1="202.587" x2="222.024" y2="205.466" stroke="#343F4B" stroke-width="12" stroke-linecap="round"/>
<path d="M12 131.015L57.5522 91.3192C89.8417 63.181 137.454 61.59 171.55 87.5099V87.5099C242.951 141.789 247.424 247.606 180.86 307.719L177.709 310.564C141.365 343.385 85.7429 342.209 50.8182 307.882L12 269.728" stroke="#343F4B" stroke-width="3" stroke-linecap="round"/>
<line x1="173.448" y1="250.583" x2="184.583" y2="253.552" stroke="#343F4B" stroke-width="4" stroke-linecap="round"/>
<line x1="184.882" y1="253.174" x2="228.174" y2="206.118" stroke="#343F4B" stroke-width="4" stroke-linecap="round"/>
<line x1="2" y1="-2" x2="13.5242" y2="-2" transform="matrix(0.966235 -0.257663 -0.257663 -0.966235 170 154)" stroke="#343F4B" stroke-width="4" stroke-linecap="round"/>
<line x1="2" y1="-2" x2="65.9412" y2="-2" transform="matrix(0.677056 0.735931 0.735931 -0.677056 184 150)" stroke="#343F4B" stroke-width="4" stroke-linecap="round"/>
</g>
<defs>
<clipPath id="clip0_173_2673">
<rect width="400" height="400" fill="#E2D6AF"/>
</clipPath>
</defs>
</svg>
