<svg width="90" height="90" viewBox="0 0 90 90" fill="none" xmlns="http://www.w3.org/2000/svg">
<path d="M45 90C69.8528 90 90 69.8528 90 45C90 20.1472 69.8528 0 45 0C20.1472 0 0 20.1472 0 45C0 69.8528 20.1472 90 45 90Z" fill="#EAEAEA"/>
<path d="M23.49 44.1H65.88L74.07 48.6H15.93L23.49 44.1Z" fill="#343F4B"/>
<path d="M51.03 27.99C51.03 25.65 48.33 23.76 45 23.76C41.67 23.76 38.97 25.65 38.97 27.99H15.93L23.49 41.67H65.88L73.98 27.99H51.03ZM41.04 27.99C41.04 26.46 42.84 25.29 45 25.29C47.16 25.29 48.96 26.55 48.96 27.99H41.04Z" fill="#343F4B"/>
<path d="M45 30.78C47.187 30.78 48.96 29.5308 48.96 27.99C48.96 26.4491 47.187 25.2 45 25.2C42.8129 25.2 41.04 26.4491 41.04 27.99C41.04 29.5308 42.8129 30.78 45 30.78Z" fill="white"/>
<path d="M56.25 56.25C57.06 56.34 57.78 56.34 58.59 56.16C59.49 55.98 60.48 55.98 61.47 56.07C63.45 56.43 65.43 57.24 66.96 58.5L70.74 44.46C70.92 43.65 70.47 42.84 69.66 42.66L56.61 39.06C56.25 38.97 55.8 39.06 55.44 39.24C55.08 39.42 54.81 39.78 54.72 40.14L51.03 53.91C52.56 55.08 54.36 55.89 56.25 56.25Z" fill="#EFEFEF"/>
<path d="M61.29 52.4699C63.9244 52.4699 66.06 50.3343 66.06 47.6999C66.06 45.0655 63.9244 42.9299 61.29 42.9299C58.6556 42.9299 56.52 45.0655 56.52 47.6999C56.52 50.3343 58.6556 52.4699 61.29 52.4699Z" fill="#3399FF"/>
<path d="M72.45 44.9099C72.9 43.1099 71.91 41.3099 70.11 40.8599L57.06 37.3499C55.26 36.8999 53.46 37.8899 53.01 39.6899L46.08 65.6099C45.63 67.4099 46.62 69.2099 48.42 69.66L61.47 73.17C63.27 73.6199 65.07 72.6299 65.52 70.8299L72.45 44.9099ZM55.44 39.2399C55.8 39.0599 56.16 38.9699 56.61 39.0599L69.66 42.5699C70.47 42.7499 70.92 43.5599 70.74 44.3699L67.05 58.4099C65.43 57.1499 63.54 56.3399 61.56 55.9799C60.57 55.8899 59.67 55.8899 58.68 56.0699C57.96 56.2499 57.15 56.2499 56.34 56.1599C54.45 55.8899 52.65 55.0799 51.12 53.8199L54.81 40.0499C54.81 39.6899 55.08 39.4199 55.44 39.2399Z" fill="#3399FF"/>
<path d="M42.39 52.9199C43.2 52.8299 43.92 52.5599 44.64 52.1999C45.45 51.7499 46.44 51.4799 47.34 51.3899C49.41 51.2099 51.39 51.4799 53.28 52.2899V37.7099C53.28 36.8999 52.65 36.1799 51.75 36.1799H38.25C37.44 36.1799 36.72 36.8099 36.72 37.6199V37.7099V51.9299C38.52 52.8299 40.41 53.0999 42.39 52.9199Z" fill="#EFEFEF"/>
<path d="M45 48.15C47.6344 48.15 49.77 46.0144 49.77 43.38C49.77 40.7456 47.6344 38.61 45 38.61C42.3656 38.61 40.23 40.7456 40.23 43.38C40.23 46.0144 42.3656 48.15 45 48.15Z" fill="#77CC55"/>
<path d="M55.08 37.8C55.08 36 53.64 34.47 51.75 34.47H38.25C36.45 34.47 34.92 35.91 34.92 37.8L35.01 64.62C35.01 66.42 36.45 67.95 38.34 67.95H51.84C53.64 67.95 55.17 66.51 55.17 64.62L55.08 37.8ZM37.17 36.72C37.44 36.45 37.8 36.27 38.25 36.27H51.75C52.56 36.27 53.28 36.9 53.28 37.71V37.8V52.29C51.39 51.48 49.32 51.21 47.34 51.39C46.44 51.57 45.45 51.84 44.64 52.2C43.92 52.56 43.2 52.74 42.39 52.92C40.5 53.1 38.52 52.83 36.72 52.02V37.8C36.72 37.44 36.9 36.99 37.17 36.72Z" fill="#77CC55"/>
<path d="M28.62 56.97C29.34 56.61 29.97 56.25 30.6 55.71C31.32 55.08 32.13 54.63 33.03 54.18C34.92 53.46 36.99 53.19 39.06 53.55L35.19 39.6C35.01 38.79 34.2 38.34 33.39 38.52L20.25 41.94C19.89 42.03 19.53 42.3 19.35 42.66C19.17 43.02 19.08 43.38 19.17 43.83L22.95 57.6C24.84 57.87 26.82 57.69 28.62 56.97Z" fill="#EFEFEF"/>
<path d="M28.71 51.93C31.3444 51.93 33.48 49.7944 33.48 47.16C33.48 44.5256 31.3444 42.39 28.71 42.39C26.0756 42.39 23.94 44.5256 23.94 47.16C23.94 49.7944 26.0756 51.93 28.71 51.93Z" fill="#C95D4F"/>
<path d="M36.99 39.06C36.54 37.35 34.74 36.27 32.94 36.72L19.8 40.23C18 40.68 17.01 42.48 17.46 44.28L24.48 70.2C24.93 71.91 26.73 72.99 28.53 72.54L41.58 69.03C43.38 68.58 44.37 66.78 43.92 64.98L36.99 39.06ZM19.35 42.66C19.53 42.3 19.89 42.03 20.25 41.94L33.39 38.43C34.2 38.25 35.01 38.7 35.19 39.51L38.97 53.55C36.99 53.28 34.92 53.46 32.94 54.18C32.04 54.54 31.23 55.08 30.6 55.71C29.97 56.25 29.34 56.61 28.62 56.97C26.82 57.69 24.84 57.87 22.95 57.6L19.26 43.83C19.17 43.47 19.17 43.02 19.35 42.66Z" fill="#C95D4F"/>
<path d="M18.9 48.6H15.93V71.28C16.02 72.81 17.37 73.98 18.9 73.8H71.1C72.63 73.89 73.89 72.72 74.07 71.28V48.6H18.9Z" fill="white"/>
<path d="M38.97 27.99C38.97 25.65 41.67 23.76 45 23.76C48.33 23.76 51.03 25.65 51.03 27.99H74.07L73.17 26.82L72.36 25.74L66.15 17.37C65.61 16.74 63.9 16.2 62.28 16.2H27.72C26.1 16.2 24.39 16.74 23.85 17.37L17.64 25.74L16.83 26.82L15.93 27.99H38.97Z" fill="#E03131"/>
</svg>
