<svg width="90" height="90" viewBox="0 0 90 90" fill="none" xmlns="http://www.w3.org/2000/svg">
<path d="M45 90C69.8528 90 90 69.8528 90 45C90 20.1472 69.8528 0 45 0C20.1472 0 0 20.1472 0 45C0 69.8528 20.1472 90 45 90Z" fill="#EAEAEA"/>
<path d="M62.289 66.3479L60.408 48.3479C60.2538 47.0487 59.8118 45.8002 59.1144 44.6933C58.4169 43.5863 57.4814 42.6488 56.376 41.9489C55.0193 41.039 53.4859 40.4257 51.876 40.1489L52.398 42.0929L55.998 55.5929L55.098 55.8269L54.198 56.0609V55.7999L43.74 55.1519L42.84 55.3859L42.489 53.9999L42.03 52.2539L40.5 46.4939L35.721 43.1999H35.361L34.686 43.2719L34.506 41.5259C33.3596 41.7893 32.321 42.3968 31.5296 43.2671C30.7382 44.1373 30.2317 45.2287 30.078 46.3949L29.61 46.5479C28.3587 46.9692 27.3242 47.8672 26.731 49.0467C26.1379 50.2263 26.034 51.5922 26.442 52.8479V52.9379C25.3827 53.6127 24.6189 54.6644 24.3048 55.8805C23.9908 57.0966 24.1499 58.3866 24.75 59.4899L30.294 69.7949C30.6229 70.4097 31.0772 70.9484 31.6276 71.3763C32.178 71.8042 32.8122 72.1117 33.489 72.2789C34.5122 73.7057 35.7653 74.9527 37.197 75.9689C42.975 76.6169 49.212 76.0949 54.954 76.1129C55.089 76.1129 55.224 76.1129 55.359 76.1129C56.9752 75.5176 58.4407 74.5743 59.652 73.3499C60.5799 72.4489 61.2975 71.3541 61.7533 70.1437C62.2092 68.9333 62.3921 67.6372 62.289 66.3479V66.3479Z" fill="white"/>
<path d="M52.2 76.9769C52.8901 76.9066 53.5734 76.7802 54.243 76.5989C56.3219 76.0607 58.2161 74.969 59.724 73.4399C60.6594 72.5265 61.3791 71.4159 61.8307 70.1889C62.2822 68.962 62.4542 67.6498 62.334 66.3479L60.453 48.3479C60.2988 47.0487 59.8568 45.8002 59.1594 44.6933C58.4619 43.5863 57.5264 42.6488 56.421 41.9489C55.0643 41.039 53.5309 40.4257 51.921 40.1489L52.443 42.0929C53.4991 42.3629 54.5029 42.807 55.413 43.4069C56.2969 43.9615 57.0467 44.7053 57.6085 45.5846C58.1703 46.4639 58.5301 47.4568 58.662 48.4919L60.552 66.4919C60.6394 67.5318 60.495 68.5781 60.1292 69.5554C59.7635 70.5328 59.1856 71.4169 58.437 72.1439C56.7102 73.862 54.4371 74.9222 52.011 75.1409L45 75.6809C43.2364 75.8547 41.4564 75.7484 39.726 75.3659C37.224 74.8349 34.956 72.1529 34.326 69.9659C33.8467 68.1655 33.7399 66.2862 34.0123 64.443C34.2847 62.5999 34.9304 60.8318 35.91 59.2469C37.4074 56.7695 39.7406 54.9087 42.489 53.9999L42.03 52.2539C38.8295 53.2821 36.1091 55.4335 34.371 58.3109C34.1081 58.7422 33.8678 59.1868 33.651 59.6429C33.2415 59.0854 32.9841 58.431 32.904 57.7439L31.842 47.5829C31.7284 46.5352 32.0351 45.4853 32.6949 44.6635C33.3546 43.8418 34.3135 43.3154 35.361 43.1999L34.686 43.2719L34.506 41.5259C33.3596 41.7893 32.321 42.3968 31.5296 43.2671C30.7381 44.1373 30.2317 45.2287 30.078 46.3949L29.61 46.5479C28.3587 46.9692 27.3242 47.8672 26.731 49.0467C26.1379 50.2263 26.034 51.5922 26.442 52.8479V52.9379C25.3827 53.6127 24.6189 54.6644 24.3048 55.8805C23.9908 57.0966 24.1499 58.3866 24.75 59.4899L30.294 69.7949C30.6229 70.4097 31.0772 70.9484 31.6276 71.3763C32.178 71.8042 32.8122 72.1117 33.489 72.2789C34.713 74.1599 36.72 76.1759 38.763 76.8239C41.742 77.7779 44.082 77.3729 45.963 77.3729M30.114 48.3209L31.122 57.9239C31.2656 59.3025 31.9053 60.5819 32.922 61.5239C32.6319 62.4045 32.4151 63.3076 32.274 64.2239C32.1055 63.9785 31.9693 63.7123 31.869 63.4319L28.179 52.3259C27.918 51.5378 27.974 50.679 28.3351 49.9314C28.6963 49.1839 29.3343 48.6062 30.114 48.3209V48.3209ZM31.914 69.0209L26.361 58.6979C26.015 58.0629 25.8959 57.3288 26.0236 56.617C26.1512 55.9051 26.5179 55.2581 27.063 54.7829L30.141 64.0169C30.4868 65.0762 31.1816 65.9868 32.112 66.5999C32.1276 67.6687 32.2513 68.7331 32.481 69.7769C32.2536 69.5506 32.0597 69.293 31.905 69.0119L31.914 69.0209Z" fill="#343F4B"/>
<path d="M50.7329 30.7709C51.5123 30.876 52.304 30.8455 53.0729 30.6809C54.0238 30.5147 54.9935 30.4844 55.9529 30.5909C57.9575 30.9285 59.8452 31.7641 61.4429 33.0209L65.2229 18.9809C65.2714 18.7918 65.2818 18.5949 65.2536 18.4017C65.2254 18.2085 65.1592 18.0228 65.0587 17.8554C64.9583 17.688 64.8256 17.5422 64.6684 17.4264C64.5112 17.3106 64.3326 17.2272 64.1429 17.1809L51.0929 13.5809C50.6938 13.5073 50.2815 13.5707 49.9229 13.7609C49.7471 13.8528 49.5923 13.9803 49.4683 14.1352C49.3444 14.2901 49.254 14.4692 49.2029 14.6609L45.5129 28.4309C47.0482 29.6047 48.8352 30.4058 50.7329 30.7709V30.7709Z" fill="#EFEFEF"/>
<path d="M55.773 26.9909C58.4074 26.9909 60.543 24.8553 60.543 22.2209C60.543 19.5865 58.4074 17.4509 55.773 17.4509C53.1386 17.4509 51.003 19.5865 51.003 22.2209C51.003 24.8553 53.1386 26.9909 55.773 26.9909Z" fill="#3399FF"/>
<path d="M66.933 19.4309C67.0496 19.0113 67.0814 18.5726 67.0265 18.1406C66.9716 17.7085 66.8311 17.2917 66.6132 16.9146C66.3953 16.5375 66.1044 16.2077 65.7575 15.9443C65.4107 15.681 65.0147 15.4894 64.593 15.3809L51.543 11.8709C51.1233 11.7542 50.6847 11.7225 50.2526 11.7774C49.8206 11.8323 49.4038 11.9728 49.0267 12.1906C48.6496 12.4085 48.3197 12.6994 48.0564 13.0463C47.793 13.3932 47.6015 13.7891 47.493 14.2109L40.563 40.1309C40.4463 40.5505 40.4145 40.9892 40.4694 41.4212C40.5243 41.8533 40.6648 42.27 40.8827 42.6471C41.1006 43.0242 41.3915 43.3541 41.7384 43.6175C42.0853 43.8808 42.4812 44.0724 42.903 44.1809L55.953 47.6999C56.3726 47.8165 56.8112 47.8483 57.2433 47.7934C57.6753 47.7385 58.0921 47.598 58.4692 47.3801C58.8463 47.1622 59.1762 46.8714 59.4395 46.5245C59.7029 46.1776 59.8944 45.7817 60.003 45.3599L66.933 19.4309ZM49.923 13.7609C50.2794 13.5643 50.694 13.5005 51.093 13.5809V13.5809L64.143 17.0999C64.3326 17.1462 64.5112 17.2296 64.6684 17.3454C64.8256 17.4612 64.9583 17.607 65.0587 17.7744C65.1592 17.9418 65.2254 18.1275 65.2536 18.3207C65.2818 18.5139 65.2714 18.7108 65.223 18.8999L61.533 32.9399C59.9255 31.6994 58.042 30.8657 56.043 30.5099C55.0835 30.4049 54.114 30.4352 53.163 30.5999C52.3942 30.7664 51.6022 30.7968 50.823 30.6899C48.901 30.4043 47.0949 29.5946 45.603 28.3499L49.293 14.5799C49.3093 14.3976 49.3772 14.2238 49.4888 14.0787C49.6004 13.9337 49.751 13.8234 49.923 13.7609V13.7609Z" fill="#3399FF"/>
<path d="M40.599 30.5998C41.3862 30.4973 42.1485 30.2534 42.849 29.8798C43.6868 29.4345 44.6044 29.1592 45.549 29.0698C47.5731 28.8678 49.6155 29.1773 51.489 29.9698V15.3628C51.4901 15.1615 51.4514 14.962 51.3749 14.7759C51.2985 14.5897 51.1858 14.4206 51.0435 14.2783C50.9012 14.1359 50.732 14.0233 50.5459 13.9468C50.3597 13.8704 50.1602 13.8316 49.959 13.8328H36.459C36.0664 13.8254 35.6865 13.9719 35.4005 14.241C35.1146 14.5101 34.9453 14.8805 34.929 15.2728V29.5828C36.6835 30.4548 38.6507 30.8077 40.599 30.5998Z" fill="#EFEFEF"/>
<path d="M43.209 25.8027C45.8434 25.8027 47.979 23.6671 47.979 21.0327C47.979 18.3983 45.8434 16.2627 43.209 16.2627C40.5746 16.2627 38.439 18.3983 38.439 21.0327C38.439 23.6671 40.5746 25.8027 43.209 25.8027Z" fill="#77CC55"/>
<path d="M53.289 15.4528C53.2902 15.0152 53.2048 14.5816 53.0379 14.1771C52.871 13.7725 52.6257 13.405 52.3163 13.0955C52.0068 12.786 51.6393 12.5408 51.2347 12.3739C50.8302 12.2069 50.3966 12.1216 49.959 12.1228H36.459C36.0213 12.1216 35.5878 12.2069 35.1832 12.3739C34.7787 12.5408 34.4111 12.786 34.1017 13.0955C33.7922 13.405 33.547 13.7725 33.38 14.1771C33.2131 14.5816 33.1278 15.0152 33.129 15.4528V15.4528L33.219 42.2728C33.2178 42.7105 33.3031 43.144 33.47 43.5486C33.637 43.9531 33.8822 44.3207 34.1917 44.6301C34.5011 44.9396 34.8687 45.1848 35.2732 45.3518C35.6778 45.5187 36.1113 45.604 36.549 45.6028H50.049C50.4866 45.604 50.9202 45.5187 51.3247 45.3518C51.7293 45.1848 52.0968 44.9396 52.4063 44.6301C52.7157 44.3207 52.961 43.9531 53.1279 43.5486C53.2948 43.144 53.3802 42.7105 53.379 42.2728L53.289 15.4528ZM35.379 14.3998C35.5195 14.256 35.6875 14.142 35.8731 14.0647C36.0587 13.9874 36.2579 13.9483 36.459 13.9498H49.959C50.3516 13.9424 50.7315 14.089 51.0174 14.3581C51.3033 14.6272 51.4726 14.9975 51.489 15.3898V29.9698C49.6137 29.1839 47.5729 28.8747 45.549 29.0698C44.623 29.2441 43.718 29.5156 42.849 29.8798C42.1323 30.2136 41.3763 30.4555 40.599 30.5998C38.663 30.7948 36.7095 30.4847 34.929 29.6998V15.4528C34.9434 15.0502 35.1033 14.6665 35.379 14.3728V14.3998Z" fill="#77CC55"/>
<path d="M34.2 33.0659C34.911 32.7321 35.5764 32.3087 36.18 31.8059C36.9204 31.193 37.7372 30.6787 38.61 30.2759C40.5264 29.5261 42.6099 29.3084 44.64 29.6459L40.77 15.6959C40.7237 15.5063 40.6403 15.3277 40.5245 15.1705C40.4087 15.0133 40.2629 14.8806 40.0955 14.7802C39.928 14.6797 39.7424 14.6135 39.5492 14.5853C39.356 14.5571 39.1591 14.5675 38.97 14.6159L25.857 17.9999C25.6652 18.051 25.4862 18.1414 25.3313 18.2653C25.1764 18.3893 25.0489 18.5441 24.957 18.7199C24.7604 19.0763 24.6966 19.4909 24.777 19.8899L28.557 33.6599C30.4577 33.9539 32.4021 33.7492 34.2 33.0659Z" fill="#EFEFEF"/>
<path d="M34.317 28.0261C36.9514 28.0261 39.087 25.8905 39.087 23.2561C39.087 20.6217 36.9514 18.4861 34.317 18.4861C31.6826 18.4861 29.547 20.6217 29.547 23.2561C29.547 25.8905 31.6826 28.0261 34.317 28.0261Z" fill="#C95D4F"/>
<path d="M42.597 15.156C42.3629 14.3132 41.8075 13.5959 41.0502 13.1583C40.2928 12.7208 39.394 12.5978 38.547 12.816L25.407 16.326C24.9852 16.4345 24.5893 16.626 24.2424 16.8894C23.8955 17.1527 23.6046 17.4826 23.3868 17.8597C23.1689 18.2368 23.0284 18.6536 22.9735 19.0856C22.9186 19.5177 22.9504 19.9564 23.067 20.376L30.087 46.296C30.321 47.1387 30.8765 47.856 31.6338 48.2936C32.3911 48.7312 33.29 48.8541 34.137 48.636L47.187 45.126C47.6088 45.0174 48.0047 44.8259 48.3516 44.5626C48.6985 44.2992 48.9893 43.9693 49.2072 43.5922C49.4251 43.2151 49.5656 42.7983 49.6205 42.3663C49.6754 41.9342 49.6436 41.4956 49.527 41.076L42.597 15.156ZM24.957 18.756C25.0489 18.5801 25.1764 18.4253 25.3313 18.3014C25.4862 18.1774 25.6653 18.087 25.857 18.036V18.036L38.997 14.526C39.1861 14.4776 39.383 14.4671 39.5762 14.4953C39.7694 14.5235 39.955 14.5897 40.1225 14.6902C40.2899 14.7906 40.4357 14.9233 40.5515 15.0805C40.6673 15.2377 40.7507 15.4163 40.797 15.606L44.577 29.646C42.5457 29.3621 40.4758 29.5783 38.547 30.276C37.6725 30.6244 36.8768 31.1446 36.207 31.806C35.6034 32.3087 34.938 32.7322 34.227 33.066C32.4241 33.7661 30.4696 33.9833 28.557 33.696L24.867 19.926C24.7655 19.5369 24.7971 19.125 24.957 18.756Z" fill="#C95D4F"/>
<path d="M44.154 35.7839C43.0354 36.0378 42.062 36.7227 41.4453 37.6899C40.8286 38.6572 40.6182 39.8286 40.86 40.9499L44.208 53.4329L42.489 53.9999L42.867 55.3949L43.767 55.1609L54.198 55.7999L49.59 38.6099C49.2405 37.5166 48.4729 36.6059 47.4545 36.0765C46.4361 35.5471 45.2496 35.4419 44.154 35.7839V35.7839Z" fill="white"/>
<path d="M52.398 42.138L51.876 40.194L51.3 38.142C50.9169 36.5129 49.9023 35.1027 48.4795 34.2216C47.0566 33.3406 45.3421 33.0608 43.713 33.444C42.0839 33.8271 40.6737 34.8416 39.7927 36.2645C38.9116 37.6873 38.6319 39.4019 39.015 41.031C39.015 41.157 39.015 41.2829 39.096 41.4089L39.465 42.795L40.5 46.494L42.048 52.245L42.489 54L44.208 53.442L40.86 40.95C40.5497 39.7923 40.712 38.5588 41.3112 37.5207C41.9103 36.4827 42.8973 35.7253 44.055 35.4149C45.2127 35.1046 46.4462 35.2669 47.4842 35.8661C48.5222 36.4653 49.2797 37.4523 49.59 38.61L54.198 55.8L54.27 56.088L55.17 55.854L56.07 55.62L52.398 42.138Z" fill="#343F4B"/>
</svg>
