<svg width="700" height="700" viewBox="0 0 700 700" fill="none" xmlns="http://www.w3.org/2000/svg">
<g clip-path="url(#clip0_171_2650)">
<path d="M686.513 425.46L587.16 395.873L544.18 367.22L491.073 374.267L484.727 369.32C484.727 365.773 485.053 362.553 485.053 359.52C485.029 341.229 481.873 323.078 475.72 305.853L491.213 292.973L526.12 270.76H551.693L589.447 191.427V170.847L484.633 216.487L477.54 230.767L445.993 246.727L434.047 237.393L417.387 228.387C410.499 223.535 403.244 219.229 395.687 215.507V188.72L433.02 163.473V91.8867L446.6 12.0401L417.387 0L404.973 25.06L342.113 81.06L335.02 126L304.033 166.553L319.433 199.22C310.678 199.586 301.968 200.679 293.393 202.487H277.06L263.06 211.213V187.227L235.387 129.22L198.66 121.847L170.94 107.847L144.153 124.553L200.153 204.54L194.087 229.787L206.64 247.94L205.473 248.267L200.807 261.1C187.829 277.919 178.313 297.142 172.807 317.66L146.393 299.927L70.6533 310.193L0 315.887L8.16667 344.633L55.3467 353.313L110.973 381.593H168.653C171.277 400.624 177.35 419.016 186.573 435.867L166.04 448.933H152.973L125.253 467.6L84.98 514.593L94.08 527.753L151.013 515.013L202.72 504.513L207.993 482.3L217.327 476.513L230.3 492.007L234.407 490C244.242 496.997 254.841 502.852 266 507.453L269.687 515.153L248.453 566.767V610.867L275.1 636.627L293.767 700L330.54 672.887V596.167L356.253 555.8L349.02 540.213L359.287 515.807C371.585 513.209 383.525 509.135 394.847 503.673L402.407 500.407L422.52 549.64L479.08 573.393L511.747 594.813L519.867 554.493L500.127 527.24L492.847 503.253L472.92 489.533L447.767 462.653C454.721 454.411 460.819 445.483 465.967 436.007L486.267 432.553L520.333 455.887L592.573 447.673L668.78 463.027L700.373 445.947L686.513 425.46ZM417.387 237.953L429.473 244.393L445.34 256.713L484.167 237.113L491.167 223.113L581.327 183.867V189.56L546.7 262.08H524.02L486.687 285.787L471.66 298.247L456.867 278.927L462.607 294.14L458.313 288.587H441.233L431.153 274.587L404.04 276.593L396.993 260.913L404.04 254.473L413.14 235.807L417.013 238.513L417.387 237.953ZM308.98 375.807C313.04 342.02 337.54 317.147 363.72 320.32C389.9 323.493 407.82 353.5 403.807 387.333C399.793 421.167 375.247 445.993 349.067 442.82C322.887 439.647 304.78 409.64 308.793 375.807H308.98ZM314.067 167.767L343.327 129.5L350.28 85.4467L412.067 30.3333L421.727 10.8734L437.08 17.1733L424.573 90.6733V158.9L387.24 184.147V220.873L389.713 222.04L351.54 215.647L325.407 228.807L313.367 224.747L322.7 207.853H325.687H332.36L314.067 167.767ZM203.187 228.013L209.207 202.72L156.053 127.027L171.313 117.693L195.86 130.013L229.507 136.78L254.287 189.607V226.94L279.253 211.493H287.513L287 213.033L291.293 212.1L283.173 234.173L262.033 251.953L252 241.033L254.753 231.14L231.887 245.14L226.053 262.267L212.987 271.367L212.007 276.407L206.547 267.353L207.807 265.673L209.627 263.293L209.113 262.5L211.727 255.267L220.127 252.933L203.187 228.013ZM232.26 414.913L244.347 406.28L258.347 433.113H232.213L232.26 414.913ZM223.253 363.253L244.347 340.9L252.373 349.393V385.607L232.26 377.533L223.253 363.253ZM252.373 313.833L244.347 295.167L258.347 276.5H277.387L258.3 313.833H252.373ZM193.993 406.933C187.927 406.513 182.793 400.773 179.293 391.813C177.73 384.854 176.685 377.788 176.167 370.673H174.72C174.274 365.145 174.274 359.589 174.72 354.06C176.587 325.687 188.3 303.38 200.9 304.22C213.5 305.06 222.18 328.72 220.313 357.093C218.447 385.467 206.407 407.773 193.807 406.933H193.993ZM167.72 370.673V373.287H112.98L58.1 345.287L14.84 337.353L10.9667 323.633L71.3534 318.547L144.153 308.7L172.853 327.973L174.72 325.22L171.36 370.58L167.72 370.673ZM200.947 476.98L196.28 497.233L149.613 506.847L98.28 518.327L96.18 515.293L131.413 474.18L156.053 457.613H169.027L194.973 441.093L215.88 467.973L200.947 476.98ZM219.893 466.2L223.253 458.407H232.26L244.347 480.293L239.213 482.813L237.487 481.647L235.433 480.153L232.727 481.46L219.893 466.2ZM339.687 540.4L346.547 555.147L322 593.647V668.593L298.667 685.953L282.94 632.053L257.273 607.273V568.447L279.3 514.92L272.58 500.92L271.04 500.313L265.72 497.887L263.247 492.707L266.28 469.373H273.793L308.467 504.793L343.42 510.113L332.64 512.26L350.047 515.247L339.687 540.4ZM391.3 495.927C389.76 496.673 388.173 497.327 386.633 498.027L379.073 495.833L358.96 486.733L349.907 472.733L358.96 469.7H370.02L381.547 472.733L401.053 491.913L391.3 495.927ZM466.9 495.693L485.567 508.62L492.38 531.113L510.813 556.453L505.867 580.813L483.467 566.067L429.147 543.153L407.073 489.207L402.173 491.307L390.18 471.567L426.393 467.507L437.453 458.407L438.853 459.947L436.287 462.84L466.9 495.693ZM667.287 453.927L592.62 438.947L522.153 446.927L487.853 423.593L465.313 427.42L463.027 422.753L460.227 428.073L448.233 406.187L441.187 397.647L446.18 392.607H431.107L426.113 377.44L441.187 363.16L462.28 359.24V371.373H476.28L475.953 375.62H479.547L488.88 382.9L542.313 375.807L583.707 403.573L681.147 432.553L687.773 442.54L667.287 453.927Z" fill="#FFA94D"/>
<path d="M325.593 228.9L351.68 215.74L390.88 222.32V218.167V186.433L428.073 161.14V91.3733L441.14 14.5133L419.02 5.41333L407.96 27.6733L345.66 83.3L338.613 127.773L308.467 167.207L325.593 203.607L313.507 224.84L325.593 228.9Z" fill="#FFE066"/>
<path d="M232.12 245.047L254.94 230.907L258.253 219.1V188.44L232.12 132.813L196.933 125.767L170.8 112.607L149.707 125.767L203.98 203.607L197.913 228.9L212.8 250.413L232.12 245.047Z" fill="#FFE066"/>
<path d="M431.106 274.4L441.14 288.54H458.22L470.353 304.22L470.4 304.313L488.366 289.333L524.58 266.28H548.706L584.873 190.447V177.333L487.386 219.8L480.34 233.94L445.153 251.72L431.106 274.4Z" fill="#FFE066"/>
<path d="M683.34 429.1L584.873 399.747L542.64 371.467L489.393 378.513L480.34 371.467H479.827H462.233L454.207 384.58L446.18 392.7L441.14 397.74L448.187 406.28L462.373 432.133L486.36 428.073L520.567 451.313L591.873 443.24L667.287 458.407L693.42 444.267L683.34 429.1Z" fill="#FFE066"/>
<path d="M426.067 467.507L389.9 471.567L403.387 493.873L403.947 494.807L425.087 546.373L480.34 569.613L507.967 587.813L514.5 555.473L495.413 529.2L488.367 505.913L469.28 492.8L441.187 462.747L437.127 458.407L426.067 467.507Z" fill="#FFE066"/>
<path d="M174.72 324.473L144.666 304.313L70.2798 314.393L4.99316 319.9L11.0132 341.133L56.2332 349.393L111.486 377.533H170.8L171.266 371L174.673 324.753L174.72 324.473Z" fill="#FFE066"/>
<path d="M191.847 437.687L191.707 437.5L166.787 453.367H153.767L127.587 470.96L89.8335 515.013L95.4335 523.133L149.707 511L198.94 500.873L203.98 479.64L217.7 470.96L217.56 470.82L191.847 437.687Z" fill="#FFE066"/>
<path d="M273.793 469.513H266.28L263.247 492.8L268.613 504.093L273.793 515.013L252.187 567.607V609.046L278.32 634.34L295.4 693L325.593 670.74V594.907L350.7 555.473L343.653 540.307L355.553 512.073H355.507L308.467 504.933L273.793 469.513Z" fill="#FFE066"/>
<path d="M254.94 230.907L252.187 240.8L262.267 251.72L283.36 233.94L293.253 207.013H277.76L258.253 219.1L254.94 230.907Z" fill="#FFE066"/>
<path d="M213.033 271.367L226.1 262.267L232.12 245.047L212.8 250.414L207.993 251.72L203.98 262.967V263.014L212.007 276.407L213.033 271.367Z" fill="#FFE066"/>
<path d="M244.16 295.12L252.187 313.833H258.253L277.34 276.407H258.253L244.16 295.12Z" fill="#FFE066"/>
<path d="M252.187 385.607V349.393L244.16 340.9L223.067 363.253L232.12 377.533L252.187 385.607Z" fill="#FFE066"/>
<path d="M232.12 414.913V433.113H258.253L244.16 406.28L232.12 414.913Z" fill="#FFE066"/>
<path d="M232.12 458.407H223.067L217.7 470.913V470.96L230.907 486.733L234.314 485.053L244.16 480.293L232.12 458.407Z" fill="#FFE066"/>
<path d="M381.36 472.547L369.787 469.513H358.727L349.673 472.547L358.727 486.733L378.84 495.833L392.467 499.753L403.947 494.807L403.153 494.013L381.36 472.547Z" fill="#FFE066"/>
<path d="M441.14 363.253L426.067 377.534L431.107 392.7H446.18L462.234 371.467V359.333L441.14 363.253Z" fill="#FFE066"/>
<path d="M396.947 260.727L403.947 276.407L431.107 274.4L445.153 251.72L431.107 240.8L414.867 232.12V232.167L403.947 254.287L396.947 260.727Z" fill="#FFE066"/>
<path d="M403.663 387.254C407.644 353.415 389.644 323.486 363.458 320.405C337.273 317.325 312.818 342.259 308.837 376.098C304.856 409.937 322.856 439.866 349.041 442.947C375.227 446.028 399.682 421.093 403.663 387.254Z" fill="white"/>
<path d="M219.977 356.919C221.836 328.552 213.128 304.887 200.526 304.061C187.924 303.235 176.201 325.561 174.342 353.928C172.482 382.295 181.191 405.961 193.793 406.787C206.395 407.613 218.118 385.287 219.977 356.919Z" fill="white"/>
<path d="M373.447 383.767C375.263 369.916 368.698 357.634 358.783 356.334C348.867 355.034 339.357 365.208 337.541 379.059C335.725 392.909 342.291 405.191 352.206 406.491C362.121 407.791 371.631 397.617 373.447 383.767Z" fill="#343F4B"/>
<path d="M209.138 357.883C210.971 344.035 207.093 332.098 200.475 331.222C193.858 330.346 187.007 340.863 185.174 354.711C183.341 368.559 187.22 380.496 193.837 381.372C200.455 382.248 207.305 371.731 209.138 357.883Z" fill="#343F4B"/>
</g>
<defs>
<clipPath id="clip0_171_2650">
<rect width="700" height="700" fill="white"/>
</clipPath>
</defs>
</svg>
