<svg width="260" height="400" viewBox="0 0 260 400" fill="none" xmlns="http://www.w3.org/2000/svg">
<rect width="260" height="400" rx="24" fill="white"/>
<path d="M130 114C154.853 114 175 93.8528 175 69C175 44.1472 154.853 24 130 24C105.147 24 85 44.1472 85 69C85 93.8528 105.147 114 130 114Z" fill="#EAEAEA"/>
<path d="M147.289 90.348L145.408 72.348C145.254 71.0488 144.812 69.8003 144.114 68.6934C143.417 67.5865 142.481 66.6489 141.376 65.949C140.019 65.0392 138.486 64.4258 136.876 64.149L137.398 66.093L140.998 79.593L140.098 79.827L139.198 80.061V79.8L128.74 79.152L127.84 79.386L127.489 78L127.03 76.254L125.5 70.494L120.721 67.2H120.361L119.686 67.272L119.506 65.526C118.36 65.7894 117.321 66.3969 116.53 67.2672C115.738 68.1374 115.232 69.2288 115.078 70.395L114.61 70.548C113.359 70.9694 112.324 71.8673 111.731 73.0469C111.138 74.2264 111.034 75.5924 111.442 76.848V76.938C110.383 77.6129 109.619 78.6645 109.305 79.8806C108.991 81.0967 109.15 82.3867 109.75 83.49L115.294 93.795C115.623 94.4098 116.077 94.9485 116.628 95.3765C117.178 95.8044 117.812 96.1119 118.489 96.279C119.512 97.7058 120.765 98.9528 122.197 99.969C127.975 100.617 134.212 100.095 139.954 100.113C140.089 100.113 140.224 100.113 140.359 100.113C141.975 99.5177 143.441 98.5745 144.652 97.35C145.58 96.4491 146.298 95.3543 146.753 94.1439C147.209 92.9335 147.392 91.6373 147.289 90.348V90.348Z" fill="white"/>
<path d="M137.2 100.977C137.89 100.907 138.573 100.78 139.243 100.599C141.322 100.061 143.216 98.9691 144.724 97.44C145.659 96.5267 146.379 95.416 146.831 94.1891C147.282 92.9621 147.454 91.6499 147.334 90.348L145.453 72.348C145.299 71.0488 144.857 69.8003 144.159 68.6934C143.462 67.5865 142.526 66.6489 141.421 65.949C140.064 65.0392 138.531 64.4258 136.921 64.149L137.443 66.093C138.499 66.363 139.503 66.8071 140.413 67.407C141.297 67.9617 142.047 68.7054 142.609 69.5847C143.17 70.464 143.53 71.457 143.662 72.492L145.552 90.492C145.639 91.5319 145.495 92.5782 145.129 93.5556C144.764 94.5329 144.186 95.417 143.437 96.144C141.71 97.8621 139.437 98.9223 137.011 99.141L130 99.681C128.236 99.8548 126.456 99.7485 124.726 99.366C122.224 98.835 119.956 96.153 119.326 93.966C118.847 92.1656 118.74 90.2863 119.012 88.4431C119.285 86.6 119.93 84.8319 120.91 83.247C122.407 80.7697 124.741 78.9088 127.489 78L127.03 76.254C123.83 77.2822 121.109 79.4336 119.371 82.311C119.108 82.7423 118.868 83.1869 118.651 83.643C118.242 83.0856 117.984 82.4311 117.904 81.7441L116.842 71.583C116.728 70.5354 117.035 69.4854 117.695 68.6636C118.355 67.8419 119.314 67.3155 120.361 67.2L119.686 67.272L119.506 65.526C118.36 65.7894 117.321 66.3969 116.53 67.2672C115.738 68.1374 115.232 69.2288 115.078 70.395L114.61 70.548C113.359 70.9694 112.324 71.8673 111.731 73.0469C111.138 74.2264 111.034 75.5924 111.442 76.848V76.938C110.383 77.6129 109.619 78.6645 109.305 79.8806C108.991 81.0967 109.15 82.3867 109.75 83.49L115.294 93.795C115.623 94.4098 116.077 94.9485 116.628 95.3765C117.178 95.8044 117.812 96.1119 118.489 96.279C119.713 98.16 121.72 100.176 123.763 100.824C126.742 101.778 129.082 101.373 130.963 101.373M115.114 72.321L116.122 81.924C116.266 83.3026 116.905 84.582 117.922 85.524C117.632 86.4046 117.415 87.3077 117.274 88.224C117.106 87.9786 116.969 87.7124 116.869 87.432L113.179 76.326C112.918 75.5379 112.974 74.6791 113.335 73.9315C113.696 73.184 114.334 72.6064 115.114 72.321V72.321ZM116.914 93.021L111.361 82.698C111.015 82.063 110.896 81.3289 111.024 80.6171C111.151 79.9053 111.518 79.2583 112.063 78.783L115.141 88.017C115.487 89.0763 116.182 89.9869 117.112 90.6C117.128 91.6688 117.251 92.7332 117.481 93.777C117.254 93.5507 117.06 93.2931 116.905 93.012L116.914 93.021Z" fill="#343F4B"/>
<path d="M135.733 54.771C136.512 54.8761 137.304 54.8457 138.073 54.681C139.024 54.5148 139.994 54.4845 140.953 54.591C142.958 54.9286 144.845 55.7642 146.443 57.021L150.223 42.981C150.271 42.7919 150.282 42.595 150.254 42.4018C150.226 42.2086 150.159 42.023 150.059 41.8555C149.958 41.6881 149.826 41.5423 149.669 41.4265C149.511 41.3107 149.333 41.2273 149.143 41.181L136.093 37.581C135.694 37.5074 135.282 37.5708 134.923 37.761C134.747 37.8529 134.592 37.9804 134.468 38.1353C134.344 38.2903 134.254 38.4693 134.203 38.661L130.513 52.431C132.048 53.6048 133.835 54.4059 135.733 54.771V54.771Z" fill="#EFEFEF"/>
<path d="M140.773 50.991C143.407 50.991 145.543 48.8554 145.543 46.2211C145.543 43.5867 143.407 41.451 140.773 41.451C138.139 41.451 136.003 43.5867 136.003 46.2211C136.003 48.8554 138.139 50.991 140.773 50.991Z" fill="#3399FF"/>
<path d="M151.933 43.431C152.05 43.0114 152.081 42.5727 152.027 42.1407C151.972 41.7086 151.831 41.2919 151.613 40.9148C151.395 40.5377 151.104 40.2078 150.758 39.9444C150.411 39.6811 150.015 39.4895 149.593 39.381L136.543 35.871C136.123 35.7544 135.685 35.7226 135.253 35.7775C134.821 35.8324 134.404 35.9729 134.027 36.1908C133.65 36.4087 133.32 36.6995 133.056 37.0464C132.793 37.3933 132.602 37.7892 132.493 38.211L125.563 64.131C125.446 64.5506 125.415 64.9893 125.469 65.4213C125.524 65.8534 125.665 66.2702 125.883 66.6473C126.101 67.0244 126.392 67.3542 126.738 67.6176C127.085 67.8809 127.481 68.0725 127.903 68.181L140.953 71.7C141.373 71.8166 141.811 71.8484 142.243 71.7935C142.675 71.7386 143.092 71.5981 143.469 71.3803C143.846 71.1624 144.176 70.8715 144.44 70.5246C144.703 70.1777 144.894 69.7818 145.003 69.36L151.933 43.431ZM134.923 37.761C135.279 37.5644 135.694 37.5006 136.093 37.581V37.581L149.143 41.1C149.333 41.1463 149.511 41.2297 149.668 41.3455C149.826 41.4613 149.958 41.6071 150.059 41.7745C150.159 41.942 150.225 42.1276 150.254 42.3208C150.282 42.514 150.271 42.7109 150.223 42.9L146.533 56.94C144.926 55.6995 143.042 54.8658 141.043 54.51C140.084 54.405 139.114 54.4353 138.163 54.6C137.394 54.7665 136.602 54.7969 135.823 54.69C133.901 54.4044 132.095 53.5948 130.603 52.35L134.293 38.58C134.309 38.3977 134.377 38.2239 134.489 38.0789C134.6 37.9338 134.751 37.8236 134.923 37.761V37.761Z" fill="#3399FF"/>
<path d="M125.599 54.6C126.386 54.4976 127.149 54.2536 127.849 53.88C128.687 53.4348 129.604 53.1595 130.549 53.07C132.573 52.8681 134.616 53.1775 136.489 53.97V39.363C136.49 39.1618 136.452 38.9623 136.375 38.7761C136.299 38.5899 136.186 38.4208 136.044 38.2785C135.901 38.1362 135.732 38.0235 135.546 37.9471C135.36 37.8706 135.16 37.8318 134.959 37.833H121.459C121.066 37.8256 120.687 37.9722 120.401 38.2413C120.115 38.5104 119.945 38.8807 119.929 39.273V53.583C121.684 54.4551 123.651 54.8079 125.599 54.6Z" fill="#EFEFEF"/>
<path d="M128.209 49.8031C130.843 49.8031 132.979 47.6675 132.979 45.0331C132.979 42.3987 130.843 40.2631 128.209 40.2631C125.575 40.2631 123.439 42.3987 123.439 45.0331C123.439 47.6675 125.575 49.8031 128.209 49.8031Z" fill="#77CC55"/>
<path d="M138.289 39.4531C138.29 39.0154 138.205 38.5819 138.038 38.1773C137.871 37.7728 137.626 37.4052 137.316 37.0957C137.007 36.7863 136.639 36.541 136.235 36.3741C135.83 36.2072 135.397 36.1219 134.959 36.1231H121.459C121.021 36.1219 120.588 36.2072 120.183 36.3741C119.779 36.541 119.411 36.7863 119.102 37.0957C118.792 37.4052 118.547 37.7728 118.38 38.1773C118.213 38.5819 118.128 39.0154 118.129 39.4531V39.4531L118.219 66.2731C118.218 66.7107 118.303 67.1443 118.47 67.5488C118.637 67.9534 118.882 68.3209 119.192 68.6304C119.501 68.9398 119.869 69.1851 120.273 69.352C120.678 69.5189 121.111 69.6042 121.549 69.6031H135.049C135.487 69.6042 135.92 69.5189 136.325 69.352C136.729 69.1851 137.097 68.9398 137.406 68.6304C137.716 68.3209 137.961 67.9534 138.128 67.5488C138.295 67.1443 138.38 66.7107 138.379 66.2731L138.289 39.4531ZM120.379 38.4001C120.52 38.2562 120.688 38.1423 120.873 38.0649C121.059 37.9876 121.258 37.9485 121.459 37.9501H134.959C135.352 37.9427 135.732 38.0892 136.017 38.3583C136.303 38.6274 136.473 38.9977 136.489 39.3901V53.9701C134.614 53.1842 132.573 52.875 130.549 53.0701C129.623 53.2443 128.718 53.5158 127.849 53.8801C127.132 54.2139 126.376 54.4558 125.599 54.6001C123.663 54.7951 121.71 54.485 119.929 53.7001V39.4531C119.943 39.0505 120.103 38.6668 120.379 38.3731V38.4001Z" fill="#77CC55"/>
<path d="M119.2 57.0659C119.911 56.7321 120.576 56.3087 121.18 55.8059C121.92 55.193 122.737 54.6787 123.61 54.2759C125.526 53.5261 127.61 53.3084 129.64 53.6459L125.77 39.6959C125.724 39.5063 125.64 39.3277 125.525 39.1705C125.409 39.0133 125.263 38.8806 125.096 38.7802C124.928 38.6797 124.742 38.6135 124.549 38.5853C124.356 38.5571 124.159 38.5675 123.97 38.6159L110.857 41.9999C110.665 42.051 110.486 42.1414 110.331 42.2653C110.176 42.3893 110.049 42.5441 109.957 42.7199C109.76 43.0763 109.697 43.4909 109.777 43.8899L113.557 57.6599C115.458 57.9539 117.402 57.7492 119.2 57.0659Z" fill="#EFEFEF"/>
<path d="M119.317 52.026C121.951 52.026 124.087 49.8904 124.087 47.256C124.087 44.6216 121.951 42.486 119.317 42.486C116.683 42.486 114.547 44.6216 114.547 47.256C114.547 49.8904 116.683 52.026 119.317 52.026Z" fill="#C95D4F"/>
<path d="M127.597 39.156C127.363 38.3132 126.808 37.5959 126.05 37.1583C125.293 36.7208 124.394 36.5978 123.547 36.816L110.407 40.326C109.985 40.4345 109.589 40.626 109.242 40.8894C108.896 41.1527 108.605 41.4826 108.387 41.8597C108.169 42.2368 108.028 42.6536 107.974 43.0856C107.919 43.5177 107.95 43.9564 108.067 44.376L115.087 70.296C115.321 71.1387 115.877 71.856 116.634 72.2936C117.391 72.7312 118.29 72.8541 119.137 72.636L132.187 69.126C132.609 69.0174 133.005 68.8259 133.352 68.5626C133.699 68.2992 133.989 67.9693 134.207 67.5922C134.425 67.2151 134.566 66.7983 134.621 66.3663C134.675 65.9342 134.644 65.4956 134.527 65.076L127.597 39.156ZM109.957 42.756C110.049 42.5801 110.176 42.4253 110.331 42.3014C110.486 42.1774 110.665 42.087 110.857 42.036V42.036L123.997 38.526C124.186 38.4776 124.383 38.4671 124.576 38.4953C124.769 38.5235 124.955 38.5897 125.123 38.6902C125.29 38.7906 125.436 38.9233 125.552 39.0805C125.667 39.2377 125.751 39.4163 125.797 39.606L129.577 53.646C127.546 53.3621 125.476 53.5783 123.547 54.276C122.673 54.6244 121.877 55.1446 121.207 55.806C120.604 56.3087 119.938 56.7322 119.227 57.066C117.424 57.7661 115.47 57.9833 113.557 57.696L109.867 43.926C109.766 43.5369 109.797 43.125 109.957 42.756Z" fill="#C95D4F"/>
<path d="M129.154 59.7839C128.035 60.0378 127.062 60.7227 126.445 61.6899C125.828 62.6572 125.618 63.8286 125.86 64.9499L129.208 77.4329L127.489 77.9999L127.867 79.3949L128.767 79.1609L139.198 79.7999L134.59 62.6099C134.24 61.5166 133.473 60.6059 132.454 60.0765C131.436 59.5471 130.25 59.4419 129.154 59.7839V59.7839Z" fill="white"/>
<path d="M137.398 66.138L136.876 64.194L136.3 62.142C135.917 60.5129 134.902 59.1027 133.479 58.2216C132.057 57.3406 130.342 57.0608 128.713 57.444C127.084 57.8271 125.674 58.8416 124.793 60.2645C123.912 61.6873 123.632 63.4019 124.015 65.031C124.015 65.157 124.015 65.2829 124.096 65.4089L124.465 66.795L125.5 70.494L127.048 76.245L127.489 78L129.208 77.442L125.86 64.95C125.55 63.7923 125.712 62.5588 126.311 61.5207C126.91 60.4827 127.897 59.7253 129.055 59.4149C130.213 59.1046 131.446 59.2669 132.484 59.8661C133.522 60.4653 134.28 61.4523 134.59 62.61L139.198 79.8L139.27 80.088L140.17 79.854L141.07 79.62L137.398 66.138Z" fill="#343F4B"/>
<path d="M58.9118 201.726V184.926H65.1998C66.6238 184.926 67.8478 185.158 68.8718 185.622C69.8958 186.07 70.6798 186.726 71.2238 187.59C71.7838 188.438 72.0638 189.47 72.0638 190.686C72.0638 191.87 71.7838 192.894 71.2238 193.758C70.6798 194.606 69.8958 195.262 68.8718 195.726C67.8478 196.19 66.6238 196.422 65.1998 196.422H59.8958L60.6878 195.582V201.726H58.9118ZM60.6878 195.726L59.8958 194.862H65.1518C66.8318 194.862 68.1038 194.502 68.9678 193.782C69.8478 193.046 70.2878 192.014 70.2878 190.686C70.2878 189.342 69.8478 188.302 68.9678 187.566C68.1038 186.83 66.8318 186.462 65.1518 186.462H59.8958L60.6878 185.622V195.726ZM75.7783 201.726V189.126H77.4823V201.726H75.7783ZM76.6423 186.342C76.2903 186.342 75.9943 186.222 75.7543 185.982C75.5143 185.742 75.3943 185.454 75.3943 185.118C75.3943 184.782 75.5143 184.502 75.7543 184.278C75.9943 184.038 76.2903 183.918 76.6423 183.918C76.9943 183.918 77.2903 184.03 77.5303 184.254C77.7703 184.478 77.8903 184.758 77.8903 185.094C77.8903 185.446 77.7703 185.742 77.5303 185.982C77.3063 186.222 77.0103 186.342 76.6423 186.342ZM87.4557 201.846C86.2077 201.846 85.0877 201.574 84.0957 201.03C83.1197 200.47 82.3517 199.71 81.7917 198.75C81.2317 197.774 80.9517 196.662 80.9517 195.414C80.9517 194.15 81.2317 193.038 81.7917 192.078C82.3517 191.118 83.1197 190.366 84.0957 189.822C85.0877 189.278 86.2077 189.006 87.4557 189.006C88.5277 189.006 89.4957 189.214 90.3597 189.63C91.2237 190.046 91.9037 190.67 92.3997 191.502L91.1277 192.366C90.6957 191.726 90.1597 191.254 89.5197 190.95C88.8797 190.646 88.1837 190.494 87.4317 190.494C86.5357 190.494 85.7277 190.702 85.0077 191.118C84.2877 191.518 83.7197 192.086 83.3037 192.822C82.8877 193.558 82.6797 194.422 82.6797 195.414C82.6797 196.406 82.8877 197.27 83.3037 198.006C83.7197 198.742 84.2877 199.318 85.0077 199.734C85.7277 200.134 86.5357 200.334 87.4317 200.334C88.1837 200.334 88.8797 200.182 89.5197 199.878C90.1597 199.574 90.6957 199.11 91.1277 198.486L92.3997 199.35C91.9037 200.166 91.2237 200.79 90.3597 201.222C89.4957 201.638 88.5277 201.846 87.4557 201.846ZM96.9036 198.462L96.9516 196.278L104.8 189.126H106.888L101.344 194.43L100.384 195.246L96.9036 198.462ZM95.5596 201.726V183.918H97.2636V201.726H95.5596ZM105.328 201.726L100.072 195.174L101.176 193.854L107.416 201.726H105.328ZM124.151 201.726V198.942L124.079 198.486V193.83C124.079 192.758 123.775 191.934 123.167 191.358C122.575 190.782 121.687 190.494 120.503 190.494C119.687 190.494 118.911 190.63 118.175 190.902C117.439 191.174 116.815 191.534 116.303 191.982L115.535 190.71C116.175 190.166 116.943 189.75 117.839 189.462C118.735 189.158 119.679 189.006 120.671 189.006C122.303 189.006 123.559 189.414 124.439 190.23C125.335 191.03 125.783 192.254 125.783 193.902V201.726H124.151ZM119.807 201.846C118.863 201.846 118.039 201.694 117.335 201.39C116.647 201.07 116.119 200.638 115.751 200.094C115.383 199.534 115.199 198.894 115.199 198.174C115.199 197.518 115.351 196.926 115.655 196.398C115.975 195.854 116.487 195.422 117.191 195.102C117.911 194.766 118.871 194.598 120.071 194.598H124.415V195.87H120.119C118.903 195.87 118.055 196.086 117.575 196.518C117.111 196.95 116.879 197.486 116.879 198.126C116.879 198.846 117.159 199.422 117.719 199.854C118.279 200.286 119.063 200.502 120.071 200.502C121.031 200.502 121.855 200.286 122.543 199.854C123.247 199.406 123.759 198.766 124.079 197.934L124.463 199.11C124.143 199.942 123.583 200.606 122.783 201.102C121.999 201.598 121.007 201.846 119.807 201.846ZM141.924 201.846C140.676 201.846 139.556 201.574 138.564 201.03C137.588 200.47 136.82 199.71 136.26 198.75C135.7 197.774 135.42 196.662 135.42 195.414C135.42 194.15 135.7 193.038 136.26 192.078C136.82 191.118 137.588 190.366 138.564 189.822C139.556 189.278 140.676 189.006 141.924 189.006C142.996 189.006 143.964 189.214 144.828 189.63C145.692 190.046 146.372 190.67 146.868 191.502L145.596 192.366C145.164 191.726 144.628 191.254 143.988 190.95C143.348 190.646 142.652 190.494 141.9 190.494C141.004 190.494 140.196 190.702 139.476 191.118C138.756 191.518 138.188 192.086 137.772 192.822C137.356 193.558 137.148 194.422 137.148 195.414C137.148 196.406 137.356 197.27 137.772 198.006C138.188 198.742 138.756 199.318 139.476 199.734C140.196 200.134 141.004 200.334 141.9 200.334C142.652 200.334 143.348 200.182 143.988 199.878C144.628 199.574 145.164 199.11 145.596 198.486L146.868 199.35C146.372 200.166 145.692 200.79 144.828 201.222C143.964 201.638 142.996 201.846 141.924 201.846ZM158.112 201.726V198.942L158.04 198.486V193.83C158.04 192.758 157.736 191.934 157.128 191.358C156.536 190.782 155.648 190.494 154.464 190.494C153.648 190.494 152.872 190.63 152.136 190.902C151.4 191.174 150.776 191.534 150.264 191.982L149.496 190.71C150.136 190.166 150.904 189.75 151.8 189.462C152.696 189.158 153.64 189.006 154.632 189.006C156.264 189.006 157.52 189.414 158.4 190.23C159.296 191.03 159.744 192.254 159.744 193.902V201.726H158.112ZM153.768 201.846C152.824 201.846 152 201.694 151.296 201.39C150.608 201.07 150.08 200.638 149.712 200.094C149.344 199.534 149.16 198.894 149.16 198.174C149.16 197.518 149.312 196.926 149.616 196.398C149.936 195.854 150.448 195.422 151.152 195.102C151.872 194.766 152.832 194.598 154.032 194.598H158.376V195.87H154.08C152.864 195.87 152.016 196.086 151.536 196.518C151.072 196.95 150.84 197.486 150.84 198.126C150.84 198.846 151.12 199.422 151.68 199.854C152.24 200.286 153.024 200.502 154.032 200.502C154.992 200.502 155.816 200.286 156.504 199.854C157.208 199.406 157.72 198.766 158.04 197.934L158.424 199.11C158.104 199.942 157.544 200.606 156.744 201.102C155.96 201.598 154.968 201.846 153.768 201.846ZM164.372 201.726V189.126H166.004V192.558L165.836 191.958C166.188 190.998 166.78 190.27 167.612 189.774C168.444 189.262 169.476 189.006 170.708 189.006V190.662C170.644 190.662 170.58 190.662 170.516 190.662C170.452 190.646 170.388 190.638 170.324 190.638C168.996 190.638 167.956 191.046 167.204 191.862C166.452 192.662 166.076 193.806 166.076 195.294V201.726H164.372ZM178.716 201.846C177.516 201.846 176.436 201.574 175.476 201.03C174.532 200.486 173.788 199.734 173.244 198.774C172.7 197.798 172.428 196.678 172.428 195.414C172.428 194.134 172.7 193.014 173.244 192.054C173.788 191.094 174.532 190.35 175.476 189.822C176.436 189.278 177.516 189.006 178.716 189.006C179.82 189.006 180.804 189.254 181.668 189.75C182.548 190.246 183.244 190.974 183.756 191.934C184.284 192.878 184.548 194.038 184.548 195.414C184.548 196.774 184.292 197.934 183.78 198.894C183.268 199.854 182.572 200.59 181.692 201.102C180.828 201.598 179.836 201.846 178.716 201.846ZM178.836 200.334C179.732 200.334 180.532 200.134 181.236 199.734C181.956 199.318 182.516 198.742 182.916 198.006C183.332 197.254 183.54 196.39 183.54 195.414C183.54 194.422 183.332 193.558 182.916 192.822C182.516 192.086 181.956 191.518 181.236 191.118C180.532 190.702 179.732 190.494 178.836 190.494C177.956 190.494 177.164 190.702 176.46 191.118C175.756 191.518 175.196 192.086 174.78 192.822C174.364 193.558 174.156 194.422 174.156 195.414C174.156 196.39 174.364 197.254 174.78 198.006C175.196 198.742 175.756 199.318 176.46 199.734C177.164 200.134 177.956 200.334 178.836 200.334ZM183.588 201.726V197.934L183.756 195.39L183.516 192.846V183.918H185.22V201.726H183.588ZM190.038 196.686L189.702 184.926H191.718L191.358 196.686H190.038ZM190.71 201.846C190.358 201.846 190.054 201.726 189.798 201.486C189.558 201.23 189.438 200.934 189.438 200.598C189.438 200.246 189.558 199.958 189.798 199.734C190.054 199.494 190.358 199.374 190.71 199.374C191.078 199.374 191.374 199.494 191.598 199.734C191.838 199.958 191.958 200.246 191.958 200.598C191.958 200.934 191.838 201.23 191.598 201.486C191.374 201.726 191.078 201.846 190.71 201.846ZM22.4968 230.87C21.2328 230.87 20.0648 230.662 18.9928 230.246C17.9208 229.814 16.9928 229.214 16.2088 228.446C15.4248 227.678 14.8088 226.774 14.3608 225.734C13.9288 224.694 13.7128 223.558 13.7128 222.326C13.7128 221.094 13.9288 219.958 14.3608 218.918C14.8088 217.878 15.4248 216.974 16.2088 216.206C17.0088 215.438 17.9448 214.846 19.0168 214.43C20.0888 213.998 21.2568 213.782 22.5208 213.782C23.7368 213.782 24.8808 213.99 25.9528 214.406C27.0248 214.806 27.9288 215.414 28.6648 216.23L27.5368 217.358C26.8488 216.654 26.0888 216.15 25.2568 215.846C24.4248 215.526 23.5288 215.366 22.5688 215.366C21.5608 215.366 20.6248 215.542 19.7608 215.894C18.8968 216.23 18.1448 216.718 17.5048 217.358C16.8648 217.982 16.3608 218.718 15.9928 219.566C15.6408 220.398 15.4648 221.318 15.4648 222.326C15.4648 223.334 15.6408 224.262 15.9928 225.11C16.3608 225.942 16.8648 226.678 17.5048 227.318C18.1448 227.942 18.8968 228.43 19.7608 228.782C20.6248 229.118 21.5608 229.286 22.5688 229.286C23.5288 229.286 24.4248 229.126 25.2568 228.806C26.0888 228.486 26.8488 227.974 27.5368 227.27L28.6648 228.398C27.9288 229.214 27.0248 229.83 25.9528 230.246C24.8808 230.662 23.7288 230.87 22.4968 230.87ZM38.5228 218.006C39.5468 218.006 40.4428 218.206 41.2108 218.606C41.9948 218.99 42.6028 219.582 43.0348 220.382C43.4828 221.182 43.7068 222.19 43.7068 223.406V230.726H42.0028V223.574C42.0028 222.246 41.6668 221.246 40.9948 220.574C40.3388 219.886 39.4108 219.542 38.2108 219.542C37.3148 219.542 36.5308 219.726 35.8588 220.094C35.2028 220.446 34.6908 220.966 34.3228 221.654C33.9708 222.326 33.7948 223.142 33.7948 224.102V230.726H32.0908V212.918H33.7948V221.582L33.4588 220.934C33.8588 220.022 34.4988 219.31 35.3788 218.798C36.2588 218.27 37.3068 218.006 38.5228 218.006ZM53.4456 230.846C52.2296 230.846 51.1336 230.574 50.1576 230.03C49.1976 229.47 48.4376 228.71 47.8776 227.75C47.3176 226.774 47.0376 225.662 47.0376 224.414C47.0376 223.15 47.3176 222.038 47.8776 221.078C48.4376 220.118 49.1976 219.366 50.1576 218.822C51.1176 218.278 52.2136 218.006 53.4456 218.006C54.6936 218.006 55.7976 218.278 56.7576 218.822C57.7336 219.366 58.4936 220.118 59.0376 221.078C59.5976 222.038 59.8776 223.15 59.8776 224.414C59.8776 225.662 59.5976 226.774 59.0376 227.75C58.4936 228.71 57.7336 229.47 56.7576 230.03C55.7816 230.574 54.6776 230.846 53.4456 230.846ZM53.4456 229.334C54.3576 229.334 55.1656 229.134 55.8696 228.734C56.5736 228.318 57.1256 227.742 57.5256 227.006C57.9416 226.254 58.1496 225.39 58.1496 224.414C58.1496 223.422 57.9416 222.558 57.5256 221.822C57.1256 221.086 56.5736 220.518 55.8696 220.118C55.1656 219.702 54.3656 219.494 53.4696 219.494C52.5736 219.494 51.7736 219.702 51.0696 220.118C50.3656 220.518 49.8056 221.086 49.3896 221.822C48.9736 222.558 48.7656 223.422 48.7656 224.414C48.7656 225.39 48.9736 226.254 49.3896 227.006C49.8056 227.742 50.3656 228.318 51.0696 228.734C51.7736 229.134 52.5656 229.334 53.4456 229.334ZM68.4925 230.846C67.2765 230.846 66.1805 230.574 65.2045 230.03C64.2445 229.47 63.4845 228.71 62.9245 227.75C62.3645 226.774 62.0845 225.662 62.0845 224.414C62.0845 223.15 62.3645 222.038 62.9245 221.078C63.4845 220.118 64.2445 219.366 65.2045 218.822C66.1645 218.278 67.2605 218.006 68.4925 218.006C69.7405 218.006 70.8445 218.278 71.8045 218.822C72.7805 219.366 73.5405 220.118 74.0845 221.078C74.6445 222.038 74.9245 223.15 74.9245 224.414C74.9245 225.662 74.6445 226.774 74.0845 227.75C73.5405 228.71 72.7805 229.47 71.8045 230.03C70.8285 230.574 69.7245 230.846 68.4925 230.846ZM68.4925 229.334C69.4045 229.334 70.2125 229.134 70.9165 228.734C71.6205 228.318 72.1725 227.742 72.5725 227.006C72.9885 226.254 73.1965 225.39 73.1965 224.414C73.1965 223.422 72.9885 222.558 72.5725 221.822C72.1725 221.086 71.6205 220.518 70.9165 220.118C70.2125 219.702 69.4125 219.494 68.5165 219.494C67.6205 219.494 66.8205 219.702 66.1165 220.118C65.4125 220.518 64.8525 221.086 64.4365 221.822C64.0205 222.558 63.8125 223.422 63.8125 224.414C63.8125 225.39 64.0205 226.254 64.4365 227.006C64.8525 227.742 65.4125 228.318 66.1165 228.734C66.8205 229.134 67.6125 229.334 68.4925 229.334ZM81.7873 230.846C80.7473 230.846 79.7633 230.702 78.8353 230.414C77.9073 230.11 77.1793 229.734 76.6513 229.286L77.4193 227.942C77.9313 228.326 78.5873 228.662 79.3873 228.95C80.1873 229.222 81.0273 229.358 81.9073 229.358C83.1073 229.358 83.9713 229.174 84.4993 228.806C85.0273 228.422 85.2913 227.918 85.2913 227.294C85.2913 226.83 85.1393 226.47 84.8353 226.214C84.5473 225.942 84.1633 225.742 83.6833 225.614C83.2033 225.47 82.6673 225.35 82.0753 225.254C81.4833 225.158 80.8913 225.046 80.2993 224.918C79.7233 224.79 79.1953 224.606 78.7153 224.366C78.2353 224.11 77.8433 223.766 77.5393 223.334C77.2513 222.902 77.1073 222.326 77.1073 221.606C77.1073 220.918 77.2993 220.302 77.6833 219.758C78.0673 219.214 78.6273 218.79 79.3633 218.486C80.1153 218.166 81.0273 218.006 82.0993 218.006C82.9153 218.006 83.7313 218.118 84.5473 218.342C85.3633 218.55 86.0353 218.83 86.5633 219.182L85.8193 220.55C85.2593 220.166 84.6593 219.894 84.0193 219.734C83.3793 219.558 82.7393 219.47 82.0993 219.47C80.9633 219.47 80.1233 219.67 79.5793 220.07C79.0513 220.454 78.7873 220.95 78.7873 221.558C78.7873 222.038 78.9313 222.414 79.2193 222.686C79.5233 222.958 79.9153 223.174 80.3953 223.334C80.8913 223.478 81.4273 223.598 82.0033 223.694C82.5953 223.79 83.1793 223.91 83.7553 224.054C84.3473 224.182 84.8833 224.366 85.3633 224.606C85.8593 224.83 86.2513 225.158 86.5393 225.59C86.8433 226.006 86.9953 226.558 86.9953 227.246C86.9953 227.982 86.7873 228.622 86.3713 229.166C85.9713 229.694 85.3793 230.11 84.5953 230.414C83.8273 230.702 82.8913 230.846 81.7873 230.846ZM95.4741 230.846C94.1621 230.846 93.0101 230.574 92.0181 230.03C91.0261 229.47 90.2501 228.71 89.6901 227.75C89.1301 226.774 88.8501 225.662 88.8501 224.414C88.8501 223.166 89.1141 222.062 89.6421 221.102C90.1861 220.142 90.9221 219.39 91.8501 218.846C92.7941 218.286 93.8501 218.006 95.0181 218.006C96.2021 218.006 97.2501 218.278 98.1621 218.822C99.0901 219.35 99.8181 220.102 100.346 221.078C100.874 222.038 101.138 223.15 101.138 224.414C101.138 224.494 101.13 224.582 101.114 224.678C101.114 224.758 101.114 224.846 101.114 224.942H90.1461V223.67H100.202L99.5301 224.174C99.5301 223.262 99.3301 222.454 98.9301 221.75C98.5461 221.03 98.0181 220.47 97.3461 220.07C96.6741 219.67 95.8981 219.47 95.0181 219.47C94.1541 219.47 93.3781 219.67 92.6901 220.07C92.0021 220.47 91.4661 221.03 91.0821 221.75C90.6981 222.47 90.5061 223.294 90.5061 224.222V224.486C90.5061 225.446 90.7141 226.294 91.1301 227.03C91.5621 227.75 92.1541 228.318 92.9061 228.734C93.6741 229.134 94.5461 229.334 95.5221 229.334C96.2901 229.334 97.0021 229.198 97.6581 228.926C98.3301 228.654 98.9061 228.238 99.3861 227.678L100.346 228.782C99.7861 229.454 99.0821 229.966 98.2341 230.318C97.4021 230.67 96.4821 230.846 95.4741 230.846ZM110.984 235.502C110.392 235.502 109.824 235.406 109.28 235.214C108.752 235.022 108.296 234.734 107.912 234.35L108.704 233.078C109.024 233.382 109.368 233.614 109.736 233.774C110.12 233.95 110.544 234.038 111.008 234.038C111.568 234.038 112.048 233.878 112.448 233.558C112.864 233.254 113.256 232.71 113.624 231.926L114.44 230.078L114.632 229.814L119.816 218.126H121.496L115.184 232.238C114.832 233.054 114.44 233.702 114.008 234.182C113.592 234.662 113.136 234.998 112.64 235.19C112.144 235.398 111.592 235.502 110.984 235.502ZM114.344 231.086L108.536 218.126H110.312L115.448 229.694L114.344 231.086ZM128.68 230.846C127.464 230.846 126.368 230.574 125.392 230.03C124.432 229.47 123.672 228.71 123.112 227.75C122.552 226.774 122.272 225.662 122.272 224.414C122.272 223.15 122.552 222.038 123.112 221.078C123.672 220.118 124.432 219.366 125.392 218.822C126.352 218.278 127.448 218.006 128.68 218.006C129.928 218.006 131.032 218.278 131.992 218.822C132.968 219.366 133.728 220.118 134.272 221.078C134.832 222.038 135.112 223.15 135.112 224.414C135.112 225.662 134.832 226.774 134.272 227.75C133.728 228.71 132.968 229.47 131.992 230.03C131.016 230.574 129.912 230.846 128.68 230.846ZM128.68 229.334C129.592 229.334 130.4 229.134 131.104 228.734C131.808 228.318 132.36 227.742 132.76 227.006C133.176 226.254 133.384 225.39 133.384 224.414C133.384 223.422 133.176 222.558 132.76 221.822C132.36 221.086 131.808 220.518 131.104 220.118C130.4 219.702 129.6 219.494 128.704 219.494C127.808 219.494 127.008 219.702 126.304 220.118C125.6 220.518 125.04 221.086 124.624 221.822C124.208 222.558 124 223.422 124 224.414C124 225.39 124.208 226.254 124.624 227.006C125.04 227.742 125.6 228.318 126.304 228.734C127.008 229.134 127.8 229.334 128.68 229.334ZM143.799 230.846C142.727 230.846 141.791 230.646 140.991 230.246C140.191 229.846 139.567 229.246 139.119 228.446C138.687 227.646 138.471 226.646 138.471 225.446V218.126H140.175V225.254C140.175 226.598 140.503 227.614 141.159 228.302C141.831 228.974 142.767 229.31 143.967 229.31C144.847 229.31 145.607 229.134 146.247 228.782C146.903 228.414 147.399 227.886 147.735 227.198C148.087 226.51 148.263 225.686 148.263 224.726V218.126H149.967V230.726H148.335V227.27L148.599 227.894C148.199 228.822 147.575 229.55 146.727 230.078C145.895 230.59 144.919 230.846 143.799 230.846ZM154.716 230.726V218.126H156.348V221.558L156.18 220.958C156.532 219.998 157.124 219.27 157.956 218.774C158.788 218.262 159.82 218.006 161.052 218.006V219.662C160.988 219.662 160.924 219.662 160.86 219.662C160.796 219.646 160.732 219.638 160.668 219.638C159.34 219.638 158.3 220.046 157.548 220.862C156.796 221.662 156.42 222.806 156.42 224.294V230.726H154.716ZM174.614 230.846C173.43 230.846 172.518 230.526 171.878 229.886C171.238 229.246 170.918 228.342 170.918 227.174V215.342H172.622V227.078C172.622 227.814 172.806 228.382 173.174 228.782C173.558 229.182 174.102 229.382 174.806 229.382C175.558 229.382 176.182 229.166 176.678 228.734L177.278 229.958C176.942 230.262 176.534 230.486 176.054 230.63C175.59 230.774 175.11 230.846 174.614 230.846ZM168.662 219.542V218.126H176.462V219.542H168.662ZM185.287 230.846C183.975 230.846 182.823 230.574 181.831 230.03C180.839 229.47 180.063 228.71 179.503 227.75C178.943 226.774 178.663 225.662 178.663 224.414C178.663 223.166 178.927 222.062 179.455 221.102C179.999 220.142 180.735 219.39 181.663 218.846C182.607 218.286 183.663 218.006 184.831 218.006C186.015 218.006 187.063 218.278 187.975 218.822C188.903 219.35 189.631 220.102 190.159 221.078C190.687 222.038 190.951 223.15 190.951 224.414C190.951 224.494 190.943 224.582 190.927 224.678C190.927 224.758 190.927 224.846 190.927 224.942H179.959V223.67H190.015L189.343 224.174C189.343 223.262 189.143 222.454 188.743 221.75C188.359 221.03 187.831 220.47 187.159 220.07C186.487 219.67 185.711 219.47 184.831 219.47C183.967 219.47 183.191 219.67 182.503 220.07C181.815 220.47 181.279 221.03 180.895 221.75C180.511 222.47 180.319 223.294 180.319 224.222V224.486C180.319 225.446 180.527 226.294 180.943 227.03C181.375 227.75 181.967 228.318 182.719 228.734C183.487 229.134 184.359 229.334 185.335 229.334C186.103 229.334 186.815 229.198 187.471 228.926C188.143 228.654 188.719 228.238 189.199 227.678L190.159 228.782C189.599 229.454 188.895 229.966 188.047 230.318C187.215 230.67 186.295 230.846 185.287 230.846ZM201.963 230.726V227.942L201.891 227.486V222.83C201.891 221.758 201.587 220.934 200.979 220.358C200.387 219.782 199.499 219.494 198.315 219.494C197.499 219.494 196.723 219.63 195.987 219.902C195.251 220.174 194.627 220.534 194.115 220.982L193.347 219.71C193.987 219.166 194.755 218.75 195.651 218.462C196.547 218.158 197.491 218.006 198.483 218.006C200.115 218.006 201.371 218.414 202.251 219.23C203.147 220.03 203.595 221.254 203.595 222.902V230.726H201.963ZM197.619 230.846C196.675 230.846 195.851 230.694 195.147 230.39C194.459 230.07 193.931 229.638 193.563 229.094C193.195 228.534 193.011 227.894 193.011 227.174C193.011 226.518 193.163 225.926 193.467 225.398C193.787 224.854 194.299 224.422 195.003 224.102C195.723 223.766 196.683 223.598 197.883 223.598H202.227V224.87H197.931C196.715 224.87 195.867 225.086 195.387 225.518C194.923 225.95 194.691 226.486 194.691 227.126C194.691 227.846 194.971 228.422 195.531 228.854C196.091 229.286 196.875 229.502 197.883 229.502C198.843 229.502 199.667 229.286 200.355 228.854C201.059 228.406 201.571 227.766 201.891 226.934L202.275 228.11C201.955 228.942 201.395 229.606 200.595 230.102C199.811 230.598 198.819 230.846 197.619 230.846ZM223.968 218.006C224.992 218.006 225.88 218.206 226.632 218.606C227.4 218.99 227.992 219.582 228.408 220.382C228.84 221.182 229.056 222.19 229.056 223.406V230.726H227.352V223.574C227.352 222.246 227.032 221.246 226.392 220.574C225.768 219.886 224.88 219.542 223.728 219.542C222.864 219.542 222.112 219.726 221.472 220.094C220.848 220.446 220.36 220.966 220.008 221.654C219.672 222.326 219.504 223.142 219.504 224.102V230.726H217.8V223.574C217.8 222.246 217.48 221.246 216.84 220.574C216.2 219.886 215.304 219.542 214.152 219.542C213.304 219.542 212.56 219.726 211.92 220.094C211.28 220.446 210.784 220.966 210.432 221.654C210.096 222.326 209.928 223.142 209.928 224.102V230.726H208.224V218.126H209.856V221.534L209.592 220.934C209.976 220.022 210.592 219.31 211.44 218.798C212.304 218.27 213.32 218.006 214.488 218.006C215.72 218.006 216.768 218.318 217.632 218.942C218.496 219.55 219.056 220.47 219.312 221.702L218.64 221.438C219.008 220.414 219.656 219.59 220.584 218.966C221.528 218.326 222.656 218.006 223.968 218.006ZM233.749 225.686L233.413 213.926H235.429L235.069 225.686H233.749ZM234.421 230.846C234.069 230.846 233.765 230.726 233.509 230.486C233.269 230.23 233.149 229.934 233.149 229.598C233.149 229.246 233.269 228.958 233.509 228.734C233.765 228.494 234.069 228.374 234.421 228.374C234.789 228.374 235.085 228.494 235.309 228.734C235.549 228.958 235.669 229.246 235.669 229.598C235.669 229.934 235.549 230.23 235.309 230.486C235.085 230.726 234.789 230.846 234.421 230.846Z" fill="#343F4B"/>
<path d="M74.5605 346.991C75.2226 346.885 75.8687 346.685 76.482 346.396C77.2236 346.072 77.9943 345.831 78.7819 345.677C80.5166 345.493 82.2665 345.773 83.8767 346.49V334.287C83.8767 334.115 83.8449 333.946 83.7831 333.788C83.7213 333.631 83.6308 333.488 83.5168 333.368C83.4029 333.249 83.2679 333.155 83.1197 333.092C82.9715 333.03 82.8131 333 82.6539 333.004H71.0088C70.8423 332.995 70.6759 333.024 70.5205 333.089C70.3651 333.153 70.224 333.252 70.1062 333.379C69.8769 333.619 69.7415 333.943 69.7278 334.287V346.334C71.262 346.985 72.9238 347.211 74.5605 346.991V346.991Z" fill="white"/>
<path d="M76.8022 343.048C79.0371 343.048 80.8489 341.241 80.8489 339.012C80.8489 336.782 79.0371 334.975 76.8022 334.975C74.5673 334.975 72.7555 336.782 72.7555 339.012C72.7555 341.241 74.5673 343.048 76.8022 343.048Z" fill="#77CC55"/>
<path d="M85.3615 334.224C85.3429 333.835 85.2526 333.453 85.0958 333.102C84.9389 332.751 84.7187 332.436 84.4478 332.177C84.1769 331.918 83.8608 331.719 83.5179 331.593C83.1749 331.466 82.812 331.414 82.4502 331.439H70.805C70.4414 331.405 70.0752 331.451 69.7287 331.574C69.3823 331.697 69.0629 331.896 68.7903 332.156C68.5177 332.417 68.2975 332.735 68.1433 333.091C67.9891 333.446 67.9042 333.832 67.8937 334.224V356.879C67.9122 357.268 68.0025 357.65 68.1594 358.001C68.3162 358.353 68.5365 358.667 68.8073 358.926C69.0782 359.185 69.3943 359.384 69.7372 359.511C70.0802 359.637 70.4431 359.689 70.805 359.664H82.2464C82.6099 359.698 82.9762 359.652 83.3226 359.529C83.6691 359.406 83.9884 359.208 84.261 358.947C84.5337 358.686 84.7538 358.368 84.908 358.012C85.0622 357.657 85.1472 357.271 85.1577 356.879L85.3615 334.224ZM70.1063 333.317C70.224 333.19 70.3651 333.091 70.5205 333.026C70.676 332.961 70.8423 332.932 71.0088 332.941H82.6539C82.8145 332.937 82.9743 332.967 83.1241 333.029C83.274 333.091 83.4109 333.185 83.5272 333.304C83.6434 333.423 83.7367 333.566 83.8017 333.723C83.8666 333.881 83.902 334.051 83.9058 334.224V346.49C82.2972 345.807 80.5643 345.529 78.8401 345.677C78.0568 345.759 77.2956 346.004 76.5984 346.396C75.9851 346.685 75.339 346.885 74.677 346.991C73.0546 347.18 71.4138 346.933 69.9025 346.271V334.255C69.9063 333.912 70.0194 333.581 70.2227 333.317H70.1063Z" fill="#77CC55"/>
<path d="M96.5991 346.991C97.2612 346.885 97.9072 346.685 98.5206 346.396C99.2621 346.072 100.033 345.831 100.82 345.677C102.555 345.493 104.305 345.773 105.915 346.49V334.287C105.915 334.115 105.883 333.946 105.822 333.788C105.76 333.63 105.669 333.488 105.555 333.368C105.441 333.249 105.306 333.155 105.158 333.092C105.01 333.029 104.852 332.999 104.693 333.004H93.0473C92.8848 332.991 92.7218 333.018 92.5705 333.083C92.4192 333.148 92.2836 333.25 92.1739 333.379C91.9363 333.615 91.7907 333.94 91.7664 334.287V346.334C93.3006 346.985 94.9624 347.211 96.5991 346.991V346.991Z" fill="white"/>
<path d="M98.8406 343.048C101.076 343.048 102.887 341.241 102.887 339.012C102.887 336.782 101.076 334.975 98.8406 334.975C96.6057 334.975 94.7939 336.782 94.7939 339.012C94.7939 341.241 96.6057 343.048 98.8406 343.048Z" fill="#77CC55"/>
<path d="M107.4 334.224C107.381 333.835 107.291 333.453 107.134 333.102C106.977 332.751 106.757 332.436 106.486 332.177C106.215 331.918 105.899 331.719 105.556 331.593C105.213 331.466 104.85 331.414 104.489 331.439H92.8434C92.4799 331.405 92.1136 331.451 91.7672 331.574C91.4207 331.697 91.1014 331.896 90.8287 332.156C90.5561 332.417 90.3359 332.735 90.1818 333.091C90.0276 333.446 89.9426 333.832 89.9321 334.224V356.879C89.9506 357.268 90.0409 357.65 90.1978 358.001C90.3546 358.353 90.5749 358.667 90.8458 358.926C91.1167 359.185 91.4328 359.384 91.7757 359.511C92.1186 359.637 92.4816 359.689 92.8434 359.664H104.285C104.648 359.698 105.015 359.652 105.361 359.529C105.708 359.406 106.027 359.208 106.299 358.947C106.572 358.686 106.792 358.368 106.946 358.012C107.101 357.657 107.186 357.271 107.196 356.879L107.4 334.224ZM92.2612 333.317C92.3708 333.187 92.5064 333.086 92.6577 333.021C92.809 332.956 92.972 332.929 93.1345 332.941H104.78C104.94 332.937 105.1 332.967 105.25 333.029C105.4 333.091 105.537 333.185 105.653 333.304C105.769 333.423 105.862 333.566 105.927 333.723C105.992 333.881 106.028 334.051 106.032 334.224V346.49C104.423 345.807 102.69 345.529 100.966 345.677C100.183 345.759 99.4214 346.004 98.7242 346.396C98.1109 346.685 97.4648 346.885 96.8028 346.991C95.1804 347.18 93.5396 346.933 92.0283 346.271V334.255C92.0297 333.906 92.1546 333.571 92.3776 333.317H92.2612Z" fill="#77CC55"/>
<path d="M119.016 346.991C119.669 346.884 120.305 346.684 120.908 346.396C121.659 346.068 122.44 345.827 123.237 345.677C124.963 345.493 126.703 345.773 128.303 346.49V334.286C128.303 334.115 128.271 333.946 128.21 333.788C128.148 333.63 128.057 333.488 127.943 333.368C127.829 333.248 127.694 333.155 127.546 333.092C127.398 333.029 127.24 332.999 127.08 333.004H115.435C115.273 332.995 115.111 333.025 114.961 333.089C114.81 333.154 114.674 333.253 114.562 333.379C114.324 333.615 114.178 333.939 114.154 334.286V346.334C115.699 346.985 117.37 347.211 119.016 346.991V346.991Z" fill="white"/>
<path d="M121.229 343.048C123.464 343.048 125.275 341.241 125.275 339.012C125.275 336.782 123.464 334.975 121.229 334.975C118.994 334.975 117.182 336.782 117.182 339.012C117.182 341.241 118.994 343.048 121.229 343.048Z" fill="#77CC55"/>
<path d="M129.788 334.224C129.769 333.835 129.679 333.453 129.522 333.102C129.365 332.751 129.145 332.436 128.874 332.177C128.603 331.918 128.287 331.719 127.944 331.593C127.601 331.466 127.238 331.414 126.876 331.439H115.552C115.188 331.405 114.822 331.451 114.475 331.574C114.129 331.697 113.809 331.896 113.537 332.156C113.264 332.417 113.044 332.735 112.89 333.091C112.736 333.446 112.651 333.832 112.64 334.224V356.879C112.64 357.282 112.716 357.68 112.864 358.05C113.012 358.42 113.23 358.753 113.503 359.028C113.775 359.304 114.098 359.517 114.451 359.653C114.803 359.789 115.178 359.846 115.552 359.821H126.993C127.357 359.855 127.723 359.809 128.069 359.685C128.416 359.562 128.735 359.364 129.008 359.103C129.28 358.842 129.5 358.524 129.655 358.169C129.809 357.813 129.894 357.428 129.904 357.036L129.788 334.224ZM114.562 333.317C114.674 333.191 114.81 333.092 114.961 333.027C115.111 332.962 115.273 332.933 115.435 332.941H127.08C127.242 332.933 127.403 332.96 127.555 333.02C127.707 333.081 127.845 333.174 127.962 333.294C128.079 333.414 128.172 333.558 128.236 333.718C128.3 333.878 128.332 334.05 128.332 334.224V346.49C126.724 345.807 124.991 345.529 123.266 345.677C122.483 345.759 121.722 346.004 121.025 346.396C120.422 346.685 119.785 346.884 119.132 346.991C117.501 347.18 115.85 346.933 114.329 346.271V334.255C114.343 333.909 114.466 333.578 114.678 333.317H114.562Z" fill="#77CC55"/>
<path d="M140.734 315.449C140.477 315.372 140.205 315.372 139.948 315.449C139.681 315.537 139.44 315.699 139.25 315.918C138.893 316.349 138.696 316.906 138.696 317.483V337.353C141.205 338.445 143.923 338.864 146.615 338.573C147.694 338.364 148.748 338.028 149.759 337.572L150.574 337.228C148.926 336.018 147.462 334.54 146.237 332.847C144.209 330.016 142.95 326.637 142.598 323.084C142.598 322.396 142.598 321.739 142.598 321.05C142.608 319.096 142.893 317.155 143.442 315.293H140.851L140.734 315.449Z" fill="white"/>
<path d="M150.487 337.384L149.672 337.729C148.661 338.185 147.607 338.521 146.528 338.73C143.912 338.98 141.278 338.562 138.842 337.51V317.64C138.841 317.063 139.038 316.506 139.395 316.075C139.586 315.856 139.827 315.694 140.094 315.606C140.351 315.528 140.623 315.528 140.88 315.606H143.471C143.719 314.76 144.02 313.934 144.373 313.134H140.88C140.293 313.1 139.706 313.193 139.153 313.408C138.6 313.622 138.093 313.954 137.661 314.382C137.23 314.811 136.882 315.329 136.64 315.904C136.398 316.48 136.266 317.102 136.251 317.733V355.283C136.326 356.531 136.846 357.699 137.703 358.545C138.56 359.39 139.688 359.847 140.851 359.82H159.774C160.364 359.85 160.953 359.753 161.508 359.535C162.063 359.318 162.571 358.984 163.005 358.553C163.438 358.122 163.788 357.602 164.033 357.025C164.278 356.448 164.414 355.824 164.432 355.189V340.201C163.17 340.503 161.882 340.66 160.589 340.67C156.992 340.685 153.473 339.541 150.487 337.384V337.384Z" fill="#77CC55"/>
<path d="M167.955 314.291C167.955 313.461 167.648 312.665 167.102 312.078C166.556 311.492 165.816 311.162 165.044 311.162H148.537C147.057 313.213 146.058 315.618 145.625 318.171C146.822 317.185 148.211 316.501 149.688 316.171C151.164 315.84 152.691 315.872 154.155 316.262C155.315 316.519 156.414 317.026 157.386 317.753C158.358 318.48 159.182 319.412 159.808 320.492C160.434 321.572 160.85 322.777 161.029 324.035C161.208 325.293 161.148 326.577 160.851 327.809C160.246 329.795 159.079 331.529 157.513 332.768C155.948 334.008 154.062 334.692 152.117 334.724C154.457 336.443 157.205 337.406 160.037 337.501C162.869 337.595 165.667 336.816 168.1 335.256V320.362L167.955 314.291Z" fill="white"/>
<path d="M160.91 327.84C161.206 326.608 161.267 325.324 161.087 324.066C160.908 322.809 160.492 321.603 159.866 320.523C159.24 319.443 158.416 318.511 157.444 317.784C156.472 317.057 155.373 316.55 154.214 316.294C152.75 315.903 151.223 315.872 149.746 316.202C148.269 316.533 146.881 317.216 145.683 318.203C145.489 319.232 145.391 320.281 145.392 321.332C145.409 323.997 146.033 326.617 147.211 328.963C148.388 331.309 150.083 333.309 152.147 334.787C154.099 334.759 155.995 334.073 157.567 332.827C159.138 331.581 160.307 329.837 160.91 327.84V327.84Z" fill="#77CC55"/>
<path d="M171.798 314.166C171.708 312.379 170.973 310.7 169.75 309.484C168.527 308.269 166.912 307.614 165.247 307.657H152.118C150.825 308.635 149.676 309.816 148.711 311.162H165.218C165.99 311.162 166.731 311.492 167.277 312.079C167.823 312.665 168.13 313.461 168.13 314.291V335.476C169.494 334.64 170.731 333.584 171.798 332.346V314.166Z" fill="#77CC55"/>
<path d="M191.769 369.208L178.61 344.738C178.195 344.096 177.607 343.606 176.926 343.332C176.244 343.058 175.502 343.013 174.796 343.204L171.303 336.727L171.798 336.383C173.789 334.748 175.442 332.688 176.654 330.331C177.866 327.974 178.61 325.373 178.838 322.692C179.067 320.01 178.775 317.307 177.982 314.753C177.189 312.199 175.911 309.849 174.23 307.853C172.548 305.857 170.5 304.257 168.214 303.156C165.928 302.054 163.454 301.474 160.949 301.453C158.444 301.432 155.962 301.969 153.66 303.032C151.358 304.094 149.286 305.659 147.576 307.626C146.621 308.69 145.782 309.865 145.072 311.131C144.752 311.725 144.49 312.32 144.199 312.946C143.845 313.746 143.544 314.572 143.296 315.418C142.747 317.28 142.462 319.221 142.452 321.175C142.452 321.864 142.452 322.521 142.452 323.209C142.804 326.762 144.063 330.141 146.091 332.972C147.332 334.681 148.816 336.17 150.487 337.384C153.448 339.522 156.934 340.666 160.502 340.67C161.795 340.66 163.083 340.503 164.345 340.201C165.582 339.933 166.791 339.535 167.955 339.011L171.419 345.489C170.913 346.05 170.577 346.764 170.458 347.536C170.338 348.307 170.44 349.099 170.75 349.807L183.909 374.277C184.587 375.205 185.577 375.81 186.665 375.962C187.754 376.114 188.855 375.801 189.731 375.091C190.706 374.575 191.46 373.679 191.839 372.585C192.218 371.491 192.193 370.283 191.769 369.208ZM168.13 335.288C165.828 336.723 163.215 337.481 160.554 337.486C157.894 337.49 155.279 336.741 152.973 335.313C150.668 333.885 148.753 331.829 147.422 329.353C146.091 326.876 145.391 324.067 145.392 321.207C145.391 320.156 145.489 319.107 145.683 318.077C146.117 315.524 147.115 313.12 148.595 311.068C149.56 309.722 150.708 308.541 152.001 307.563C154.29 305.903 156.956 304.945 159.713 304.791C162.471 304.637 165.215 305.293 167.652 306.689C170.088 308.086 172.125 310.169 173.543 312.716C174.96 315.262 175.706 318.176 175.699 321.144C175.687 325.207 174.253 329.117 171.681 332.096C170.654 333.346 169.456 334.422 168.13 335.288Z" fill="#343F4B"/>
</svg>
