<svg width="260" height="400" viewBox="0 0 260 400" fill="none" xmlns="http://www.w3.org/2000/svg">
<rect width="260" height="400" rx="24" fill="white"/>
<path d="M130 114C154.853 114 175 93.8528 175 69C175 44.1472 154.853 24 130 24C105.147 24 85 44.1472 85 69C85 93.8528 105.147 114 130 114Z" fill="#EAEAEA"/>
<path d="M150.016 81.924L161.986 79.971C162.211 79.9354 162.421 79.8373 162.593 79.688C162.765 79.5387 162.891 79.3442 162.958 79.1266C163.024 78.909 163.028 78.677 162.97 78.4572C162.911 78.2373 162.791 78.0384 162.625 77.883L152.419 68.28C152.186 68.0582 152.049 67.7534 152.039 67.4316C152.029 67.1099 152.146 66.7971 152.365 66.561L162.4 55.95C162.556 55.7854 162.662 55.5805 162.708 55.3585C162.753 55.1365 162.735 54.9062 162.657 54.6937C162.578 54.4812 162.441 54.295 162.263 54.1559C162.084 54.0169 161.869 53.9307 161.644 53.907L148.774 52.575C148.61 52.5574 148.452 52.5069 148.308 52.4265C148.164 52.3462 148.038 52.2376 147.937 52.1074C147.836 51.9771 147.763 51.8278 147.721 51.6685C147.679 51.5092 147.67 51.343 147.694 51.18L149.494 39.66C149.531 39.4338 149.503 39.2017 149.413 38.9907C149.324 38.7797 149.176 38.5983 148.988 38.4674C148.8 38.3366 148.579 38.2617 148.35 38.2514C148.121 38.241 147.893 38.2957 147.694 38.409L136.48 44.547C136.34 44.6246 136.185 44.6735 136.026 44.6911C135.866 44.7086 135.705 44.6943 135.551 44.6492C135.397 44.604 135.253 44.5287 135.129 44.4278C135.004 44.3268 134.9 44.2022 134.824 44.061L127.975 31.515C127.867 31.3155 127.706 31.1501 127.509 31.0376C127.312 30.925 127.087 30.8699 126.861 30.8783C126.634 30.8867 126.414 30.9584 126.226 31.0853C126.038 31.2121 125.89 31.389 125.797 31.596L120.199 44.196C120.131 44.3456 120.034 44.48 119.914 44.5914C119.793 44.7027 119.651 44.7886 119.497 44.844C119.342 44.8995 119.178 44.9232 119.014 44.914C118.851 44.9047 118.69 44.8625 118.543 44.79L107.248 39.129C107.045 39.0252 106.817 38.9806 106.59 39.0002C106.363 39.0198 106.146 39.1028 105.964 39.2399C105.782 39.3769 105.642 39.5624 105.56 39.7752C105.479 39.9879 105.458 40.2193 105.502 40.443L107.86 52.872C107.89 53.0281 107.889 53.1885 107.857 53.3441C107.824 53.4997 107.762 53.6474 107.672 53.7787C107.583 53.91 107.468 54.0223 107.335 54.1092C107.202 54.1961 107.053 54.2559 106.897 54.285L94.099 56.688C93.8761 56.7309 93.6694 56.835 93.5022 56.9886C93.335 57.1421 93.2138 57.3392 93.1522 57.5577C93.0905 57.7763 93.0909 58.0076 93.1532 58.226C93.2155 58.4443 93.3373 58.641 93.505 58.794L103.306 67.587C103.436 67.6963 103.542 67.8319 103.616 67.9849C103.69 68.138 103.731 68.305 103.737 68.4749C103.742 68.6449 103.711 68.8141 103.646 68.9713C103.581 69.1285 103.484 69.2701 103.36 69.387L93.694 79.107C93.5342 79.2682 93.4228 79.4708 93.3723 79.6921C93.3217 79.9133 93.3342 80.1443 93.4082 80.3588C93.4822 80.5733 93.6148 80.7628 93.791 80.9058C93.9672 81.0489 94.1799 81.1397 94.405 81.168L108.13 82.914C108.291 82.9339 108.446 82.9858 108.587 83.0666C108.728 83.1475 108.851 83.2557 108.949 83.3849C109.047 83.5141 109.118 83.6616 109.159 83.8188C109.199 83.976 109.207 84.1396 109.183 84.3L107.572 96.72C107.545 96.9428 107.58 97.1686 107.674 97.3726C107.767 97.5765 107.916 97.7505 108.102 97.8754C108.288 98.0003 108.506 98.0711 108.73 98.0801C108.954 98.089 109.176 98.0357 109.372 97.926L119.677 91.959C119.819 91.8762 119.976 91.8233 120.139 91.8034C120.302 91.7836 120.468 91.7972 120.625 91.8436C120.783 91.8899 120.929 91.968 121.056 92.073C121.182 92.1779 121.286 92.3076 121.36 92.454L127.516 104.37C127.616 104.573 127.772 104.744 127.964 104.863C128.157 104.983 128.379 105.046 128.605 105.046C128.832 105.046 129.054 104.983 129.246 104.863C129.438 104.744 129.594 104.573 129.694 104.37L135.994 91.095C136.134 90.8054 136.383 90.5825 136.686 90.4747C136.989 90.3669 137.322 90.3828 137.614 90.519L149.8 96.234C150.005 96.3313 150.233 96.3694 150.458 96.344C150.683 96.3186 150.897 96.2308 151.074 96.0903C151.252 95.9499 151.387 95.7625 151.464 95.5493C151.541 95.3362 151.557 95.1057 151.51 94.884L149.026 83.4C148.988 83.2377 148.984 83.0693 149.014 82.9053C149.044 82.7413 149.107 82.5852 149.2 82.4468C149.293 82.3083 149.413 82.1905 149.554 82.1006C149.694 82.0106 149.851 81.9505 150.016 81.924Z" fill="#FFE066"/>
<path d="M138.181 82.275L115.357 64.275C111.897 69.8679 110.651 76.5516 111.863 83.0156C113.075 89.4796 116.659 95.2576 121.91 99.2168C127.162 103.176 133.703 105.031 140.251 104.417C146.799 103.804 152.881 100.767 157.306 95.901" fill="#FFA94D"/>
<path d="M148.405 89.457C153.782 87.0557 158.213 82.9416 161.005 77.757C159.771 74.2143 157.415 71.1705 154.295 69.0868C151.175 67.0032 147.461 65.9932 143.716 66.21C134.338 66.885 127.354 75.3 128.11 85.02C128.224 86.4385 128.498 87.8396 128.929 89.196C134.158 91.248 141.169 92.517 148.405 89.457Z" fill="#E03131"/>
<path d="M149.899 94.3171C142.699 97.2151 135.814 95.5411 130.792 93.2191C132.411 95.8806 134.726 98.0494 137.488 99.4912C140.249 100.933 143.352 101.593 146.461 101.4C155.731 100.734 162.661 92.4901 162.076 82.9141C159.646 87.3691 155.83 91.9321 149.899 94.3171Z" fill="white"/>
<path d="M151.834 91.167C151.804 90.3599 151.473 89.5932 150.907 89.0172C150.341 88.4412 149.58 88.0973 148.774 88.053H148.576C148.204 88.0819 147.842 88.1853 147.512 88.3569C147.181 88.5285 146.888 88.7649 146.65 89.052C146.065 89.7549 145.78 90.6605 145.858 91.572C145.884 92.4131 146.239 93.2105 146.846 93.7928C147.454 94.3751 148.266 94.6958 149.107 94.686C149.478 94.6567 149.839 94.5541 150.169 94.3841C150.5 94.2142 150.794 93.9803 151.033 93.696C151.327 93.348 151.548 92.9454 151.686 92.5114C151.823 92.0774 151.874 91.6205 151.834 91.167Z" fill="white"/>
<path d="M162.058 82.572C161.928 80.9245 161.577 79.3019 161.014 77.748C158.981 81.422 156.155 84.5977 152.743 87.045C152.183 86.465 151.503 86.014 150.751 85.7234C149.998 85.4327 149.192 85.3094 148.387 85.362C147.661 85.4158 146.952 85.6138 146.303 85.9445C145.654 86.2752 145.077 86.7319 144.607 87.288C143.729 88.3239 143.22 89.6216 143.158 90.978C138.339 91.6686 133.424 91.0468 128.929 89.178C129.382 90.5907 130.008 91.9419 130.792 93.201C135.166 95.3374 140.059 96.1804 144.895 95.631C145.411 96.1782 146.031 96.6162 146.719 96.9192C147.407 97.2222 148.148 97.384 148.9 97.395H149.287C150.013 97.3393 150.721 97.1405 151.37 96.8099C152.018 96.4793 152.595 96.0236 153.067 95.469C153.949 94.4258 154.456 93.1172 154.507 91.752C157.652 89.4066 160.232 86.3868 162.058 82.914C162.076 82.788 162.067 82.68 162.058 82.572ZM151.033 93.696C150.979 93.759 150.907 93.813 150.844 93.876C150.38 94.344 149.764 94.6312 149.107 94.686H148.9C148.094 94.646 147.332 94.3046 146.765 93.7296C146.198 93.1546 145.868 92.3878 145.84 91.581C145.81 91.1599 145.852 90.7367 145.966 90.33C146.092 89.8634 146.32 89.4302 146.632 89.061C146.87 88.774 147.163 88.5376 147.494 88.366C147.824 88.1944 148.186 88.091 148.558 88.062H148.756C149.308 88.0639 149.847 88.23 150.304 88.539C150.706 88.8189 151.046 89.1791 151.302 89.5968C151.558 90.0146 151.725 90.4808 151.792 90.9662C151.858 91.4516 151.824 91.9456 151.69 92.417C151.557 92.8884 151.327 93.3269 151.015 93.705L151.033 93.696Z" fill="#343F4B"/>
<path d="M134.032 57.0931C134.01 56.8808 133.945 56.6751 133.842 56.4882C133.739 56.3014 133.599 56.1372 133.431 56.0054C133.263 55.8736 133.071 55.7768 132.865 55.721C132.659 55.6651 132.444 55.6512 132.232 55.6801L120.838 57.0121L110.929 58.2001C110.612 58.2363 110.314 58.3656 110.071 58.5716C109.827 58.7776 109.651 59.0511 109.563 59.3574C109.476 59.6638 109.481 59.9892 109.578 60.2927C109.675 60.5961 109.861 60.8639 110.11 61.0621L114.16 64.2571L133.96 79.8901C134.21 80.0881 134.513 80.2076 134.83 80.2334C135.148 80.2592 135.466 80.1902 135.745 80.035C136.023 79.8799 136.25 79.6456 136.395 79.3619C136.54 79.0781 136.598 78.7577 136.561 78.4411L134.032 57.0931Z" fill="#FFA94D"/>
<path d="M16.7341 194.935H25.6141V196.471H16.7341V194.935ZM16.9261 203.599H15.1501V186.799H26.6701V188.335H16.9261V203.599ZM37.3579 203.599V200.815L37.2859 200.359V195.703C37.2859 194.631 36.9819 193.807 36.3739 193.231C35.7819 192.655 34.8939 192.367 33.7099 192.367C32.8939 192.367 32.1179 192.503 31.3819 192.775C30.6459 193.047 30.0219 193.407 29.5099 193.855L28.7419 192.583C29.3819 192.039 30.1499 191.623 31.0459 191.335C31.9419 191.031 32.8859 190.879 33.8779 190.879C35.5099 190.879 36.7659 191.287 37.6459 192.103C38.5419 192.903 38.9899 194.127 38.9899 195.775V203.599H37.3579ZM33.0139 203.719C32.0699 203.719 31.2459 203.567 30.5419 203.263C29.8539 202.943 29.3259 202.511 28.9579 201.967C28.5899 201.407 28.4059 200.767 28.4059 200.047C28.4059 199.391 28.5579 198.799 28.8619 198.271C29.1819 197.727 29.6939 197.295 30.3979 196.975C31.1179 196.639 32.0779 196.471 33.2779 196.471H37.6219V197.743H33.3259C32.1099 197.743 31.2619 197.959 30.7819 198.391C30.3179 198.823 30.0859 199.359 30.0859 199.999C30.0859 200.719 30.3659 201.295 30.9259 201.727C31.4859 202.159 32.2699 202.375 33.2779 202.375C34.2379 202.375 35.0619 202.159 35.7499 201.727C36.4539 201.279 36.9659 200.639 37.2859 199.807L37.6699 200.983C37.3499 201.815 36.7899 202.479 35.9899 202.975C35.2059 203.471 34.2139 203.719 33.0139 203.719ZM48.8502 203.719C47.6022 203.719 46.4822 203.447 45.4902 202.903C44.5142 202.343 43.7462 201.583 43.1862 200.623C42.6262 199.647 42.3462 198.535 42.3462 197.287C42.3462 196.023 42.6262 194.911 43.1862 193.951C43.7462 192.991 44.5142 192.239 45.4902 191.695C46.4822 191.151 47.6022 190.879 48.8502 190.879C49.9222 190.879 50.8902 191.087 51.7542 191.503C52.6182 191.919 53.2982 192.543 53.7942 193.375L52.5222 194.239C52.0902 193.599 51.5542 193.127 50.9142 192.823C50.2742 192.519 49.5782 192.367 48.8262 192.367C47.9302 192.367 47.1222 192.575 46.4022 192.991C45.6822 193.391 45.1142 193.959 44.6982 194.695C44.2822 195.431 44.0742 196.295 44.0742 197.287C44.0742 198.279 44.2822 199.143 44.6982 199.879C45.1142 200.615 45.6822 201.191 46.4022 201.607C47.1222 202.007 47.9302 202.207 48.8262 202.207C49.5782 202.207 50.2742 202.055 50.9142 201.751C51.5542 201.447 52.0902 200.983 52.5222 200.359L53.7942 201.223C53.2982 202.039 52.6182 202.663 51.7542 203.095C50.8902 203.511 49.9222 203.719 48.8502 203.719ZM62.2827 203.719C60.9707 203.719 59.8187 203.447 58.8267 202.903C57.8347 202.343 57.0587 201.583 56.4987 200.623C55.9387 199.647 55.6587 198.535 55.6587 197.287C55.6587 196.039 55.9227 194.935 56.4507 193.975C56.9947 193.015 57.7307 192.263 58.6587 191.719C59.6027 191.159 60.6587 190.879 61.8267 190.879C63.0107 190.879 64.0587 191.151 64.9707 191.695C65.8987 192.223 66.6267 192.975 67.1547 193.951C67.6827 194.911 67.9467 196.023 67.9467 197.287C67.9467 197.367 67.9387 197.455 67.9227 197.551C67.9227 197.631 67.9227 197.719 67.9227 197.815H56.9547V196.543H67.0107L66.3387 197.047C66.3387 196.135 66.1387 195.327 65.7387 194.623C65.3547 193.903 64.8267 193.343 64.1547 192.943C63.4827 192.543 62.7067 192.343 61.8267 192.343C60.9627 192.343 60.1867 192.543 59.4987 192.943C58.8107 193.343 58.2747 193.903 57.8907 194.623C57.5067 195.343 57.3147 196.167 57.3147 197.095V197.359C57.3147 198.319 57.5227 199.167 57.9387 199.903C58.3707 200.623 58.9627 201.191 59.7147 201.607C60.4827 202.007 61.3547 202.207 62.3307 202.207C63.0987 202.207 63.8107 202.071 64.4667 201.799C65.1387 201.527 65.7147 201.111 66.1947 200.551L67.1547 201.655C66.5947 202.327 65.8907 202.839 65.0427 203.191C64.2107 203.543 63.2907 203.719 62.2827 203.719ZM81.6803 203.719C80.4963 203.719 79.5843 203.399 78.9443 202.759C78.3043 202.119 77.9843 201.215 77.9843 200.047V188.215H79.6883V199.951C79.6883 200.687 79.8723 201.255 80.2403 201.655C80.6243 202.055 81.1683 202.255 81.8723 202.255C82.6243 202.255 83.2483 202.039 83.7443 201.607L84.3443 202.831C84.0083 203.135 83.6003 203.359 83.1203 203.503C82.6563 203.647 82.1763 203.719 81.6803 203.719ZM75.7283 192.415V190.999H83.5283V192.415H75.7283ZM93.8783 190.879C94.9023 190.879 95.7983 191.079 96.5663 191.479C97.3503 191.863 97.9583 192.455 98.3903 193.255C98.8383 194.055 99.0623 195.063 99.0623 196.279V203.599H97.3583V196.447C97.3583 195.119 97.0223 194.119 96.3503 193.447C95.6943 192.759 94.7663 192.415 93.5663 192.415C92.6703 192.415 91.8863 192.599 91.2143 192.967C90.5583 193.319 90.0463 193.839 89.6783 194.527C89.3263 195.199 89.1503 196.015 89.1503 196.975V203.599H87.4463V185.791H89.1503V194.455L88.8143 193.807C89.2143 192.895 89.8543 192.183 90.7343 191.671C91.6143 191.143 92.6623 190.879 93.8783 190.879ZM109.017 203.719C107.705 203.719 106.553 203.447 105.561 202.903C104.569 202.343 103.793 201.583 103.233 200.623C102.673 199.647 102.393 198.535 102.393 197.287C102.393 196.039 102.657 194.935 103.185 193.975C103.729 193.015 104.465 192.263 105.393 191.719C106.337 191.159 107.393 190.879 108.561 190.879C109.745 190.879 110.793 191.151 111.705 191.695C112.633 192.223 113.361 192.975 113.889 193.951C114.417 194.911 114.681 196.023 114.681 197.287C114.681 197.367 114.673 197.455 114.657 197.551C114.657 197.631 114.657 197.719 114.657 197.815H103.689V196.543H113.745L113.073 197.047C113.073 196.135 112.873 195.327 112.473 194.623C112.089 193.903 111.561 193.343 110.889 192.943C110.217 192.543 109.441 192.343 108.561 192.343C107.697 192.343 106.921 192.543 106.233 192.943C105.545 193.343 105.009 193.903 104.625 194.623C104.241 195.343 104.049 196.167 104.049 197.095V197.359C104.049 198.319 104.257 199.167 104.673 199.903C105.105 200.623 105.697 201.191 106.449 201.607C107.217 202.007 108.089 202.207 109.065 202.207C109.833 202.207 110.545 202.071 111.201 201.799C111.873 201.527 112.449 201.111 112.929 200.551L113.889 201.655C113.329 202.327 112.625 202.839 111.777 203.191C110.945 203.543 110.025 203.719 109.017 203.719ZM129.567 203.719C128.351 203.719 127.255 203.447 126.279 202.903C125.319 202.343 124.559 201.583 123.999 200.623C123.439 199.647 123.159 198.535 123.159 197.287C123.159 196.023 123.439 194.911 123.999 193.951C124.559 192.991 125.319 192.239 126.279 191.695C127.239 191.151 128.335 190.879 129.567 190.879C130.815 190.879 131.919 191.151 132.879 191.695C133.855 192.239 134.615 192.991 135.159 193.951C135.719 194.911 135.999 196.023 135.999 197.287C135.999 198.535 135.719 199.647 135.159 200.623C134.615 201.583 133.855 202.343 132.879 202.903C131.903 203.447 130.799 203.719 129.567 203.719ZM129.567 202.207C130.479 202.207 131.287 202.007 131.991 201.607C132.695 201.191 133.247 200.615 133.647 199.879C134.063 199.127 134.271 198.263 134.271 197.287C134.271 196.295 134.063 195.431 133.647 194.695C133.247 193.959 132.695 193.391 131.991 192.991C131.287 192.575 130.487 192.367 129.591 192.367C128.695 192.367 127.895 192.575 127.191 192.991C126.487 193.391 125.927 193.959 125.511 194.695C125.095 195.431 124.887 196.295 124.887 197.287C124.887 198.263 125.095 199.127 125.511 199.879C125.927 200.615 126.487 201.191 127.191 201.607C127.895 202.007 128.687 202.207 129.567 202.207ZM145.982 203.719C144.894 203.719 143.91 203.471 143.03 202.975C142.15 202.463 141.446 201.735 140.918 200.791C140.406 199.831 140.15 198.663 140.15 197.287C140.15 195.911 140.406 194.751 140.918 193.807C141.43 192.847 142.126 192.119 143.006 191.623C143.886 191.127 144.878 190.879 145.982 190.879C147.182 190.879 148.254 191.151 149.198 191.695C150.158 192.223 150.91 192.975 151.454 193.951C151.998 194.911 152.27 196.023 152.27 197.287C152.27 198.567 151.998 199.687 151.454 200.647C150.91 201.607 150.158 202.359 149.198 202.903C148.254 203.447 147.182 203.719 145.982 203.719ZM139.478 208.255V190.999H141.11V194.791L140.942 197.311L141.182 199.855V208.255H139.478ZM145.862 202.207C146.758 202.207 147.558 202.007 148.262 201.607C148.966 201.191 149.526 200.615 149.942 199.879C150.358 199.127 150.566 198.263 150.566 197.287C150.566 196.311 150.358 195.455 149.942 194.719C149.526 193.983 148.966 193.407 148.262 192.991C147.558 192.575 146.758 192.367 145.862 192.367C144.966 192.367 144.158 192.575 143.438 192.991C142.734 193.407 142.174 193.983 141.758 194.719C141.358 195.455 141.158 196.311 141.158 197.287C141.158 198.263 141.358 199.127 141.758 199.879C142.174 200.615 142.734 201.191 143.438 201.607C144.158 202.007 144.966 202.207 145.862 202.207ZM162.247 203.719C161.159 203.719 160.175 203.471 159.295 202.975C158.415 202.463 157.711 201.735 157.183 200.791C156.671 199.831 156.415 198.663 156.415 197.287C156.415 195.911 156.671 194.751 157.183 193.807C157.695 192.847 158.391 192.119 159.271 191.623C160.151 191.127 161.143 190.879 162.247 190.879C163.447 190.879 164.519 191.151 165.463 191.695C166.423 192.223 167.175 192.975 167.719 193.951C168.263 194.911 168.535 196.023 168.535 197.287C168.535 198.567 168.263 199.687 167.719 200.647C167.175 201.607 166.423 202.359 165.463 202.903C164.519 203.447 163.447 203.719 162.247 203.719ZM155.743 208.255V190.999H157.375V194.791L157.207 197.311L157.447 199.855V208.255H155.743ZM162.127 202.207C163.023 202.207 163.823 202.007 164.527 201.607C165.231 201.191 165.791 200.615 166.207 199.879C166.623 199.127 166.831 198.263 166.831 197.287C166.831 196.311 166.623 195.455 166.207 194.719C165.791 193.983 165.231 193.407 164.527 192.991C163.823 192.575 163.023 192.367 162.127 192.367C161.231 192.367 160.423 192.575 159.703 192.991C158.999 193.407 158.439 193.983 158.023 194.719C157.623 195.455 157.423 196.311 157.423 197.287C157.423 198.263 157.623 199.127 158.023 199.879C158.439 200.615 158.999 201.191 159.703 201.607C160.423 202.007 161.231 202.207 162.127 202.207ZM177.145 203.719C175.929 203.719 174.833 203.447 173.857 202.903C172.897 202.343 172.137 201.583 171.577 200.623C171.017 199.647 170.737 198.535 170.737 197.287C170.737 196.023 171.017 194.911 171.577 193.951C172.137 192.991 172.897 192.239 173.857 191.695C174.817 191.151 175.913 190.879 177.145 190.879C178.393 190.879 179.497 191.151 180.457 191.695C181.433 192.239 182.193 192.991 182.737 193.951C183.297 194.911 183.577 196.023 183.577 197.287C183.577 198.535 183.297 199.647 182.737 200.623C182.193 201.583 181.433 202.343 180.457 202.903C179.481 203.447 178.377 203.719 177.145 203.719ZM177.145 202.207C178.057 202.207 178.865 202.007 179.569 201.607C180.273 201.191 180.825 200.615 181.225 199.879C181.641 199.127 181.849 198.263 181.849 197.287C181.849 196.295 181.641 195.431 181.225 194.695C180.825 193.959 180.273 193.391 179.569 192.991C178.865 192.575 178.065 192.367 177.169 192.367C176.273 192.367 175.473 192.575 174.769 192.991C174.065 193.391 173.505 193.959 173.089 194.695C172.673 195.431 172.465 196.295 172.465 197.287C172.465 198.263 172.673 199.127 173.089 199.879C173.505 200.615 174.065 201.191 174.769 201.607C175.473 202.007 176.265 202.207 177.145 202.207ZM193.488 190.879C194.512 190.879 195.408 191.079 196.176 191.479C196.96 191.863 197.568 192.455 198 193.255C198.448 194.055 198.672 195.063 198.672 196.279V203.599H196.968V196.447C196.968 195.119 196.632 194.119 195.96 193.447C195.304 192.759 194.376 192.415 193.176 192.415C192.28 192.415 191.496 192.599 190.824 192.967C190.168 193.319 189.656 193.839 189.288 194.527C188.936 195.199 188.76 196.015 188.76 196.975V203.599H187.056V190.999H188.688V194.455L188.424 193.807C188.824 192.895 189.464 192.183 190.344 191.671C191.224 191.143 192.272 190.879 193.488 190.879ZM208.626 203.719C207.314 203.719 206.162 203.447 205.17 202.903C204.178 202.343 203.402 201.583 202.842 200.623C202.282 199.647 202.002 198.535 202.002 197.287C202.002 196.039 202.266 194.935 202.794 193.975C203.338 193.015 204.074 192.263 205.002 191.719C205.946 191.159 207.002 190.879 208.17 190.879C209.354 190.879 210.402 191.151 211.314 191.695C212.242 192.223 212.97 192.975 213.498 193.951C214.026 194.911 214.29 196.023 214.29 197.287C214.29 197.367 214.282 197.455 214.266 197.551C214.266 197.631 214.266 197.719 214.266 197.815H203.298V196.543H213.354L212.682 197.047C212.682 196.135 212.482 195.327 212.082 194.623C211.698 193.903 211.17 193.343 210.498 192.943C209.826 192.543 209.05 192.343 208.17 192.343C207.306 192.343 206.53 192.543 205.842 192.943C205.154 193.343 204.618 193.903 204.234 194.623C203.85 195.343 203.658 196.167 203.658 197.095V197.359C203.658 198.319 203.866 199.167 204.282 199.903C204.714 200.623 205.306 201.191 206.058 201.607C206.826 202.007 207.698 202.207 208.674 202.207C209.442 202.207 210.154 202.071 210.81 201.799C211.482 201.527 212.058 201.111 212.538 200.551L213.498 201.655C212.938 202.327 212.234 202.839 211.386 203.191C210.554 203.543 209.634 203.719 208.626 203.719ZM224.191 190.879C225.215 190.879 226.111 191.079 226.879 191.479C227.663 191.863 228.271 192.455 228.703 193.255C229.151 194.055 229.375 195.063 229.375 196.279V203.599H227.671V196.447C227.671 195.119 227.335 194.119 226.663 193.447C226.007 192.759 225.079 192.415 223.879 192.415C222.983 192.415 222.199 192.599 221.527 192.967C220.871 193.319 220.359 193.839 219.991 194.527C219.639 195.199 219.463 196.015 219.463 196.975V203.599H217.759V190.999H219.391V194.455L219.127 193.807C219.527 192.895 220.167 192.183 221.047 191.671C221.927 191.143 222.975 190.879 224.191 190.879ZM237.962 203.719C236.778 203.719 235.866 203.399 235.226 202.759C234.586 202.119 234.266 201.215 234.266 200.047V188.215H235.97V199.951C235.97 200.687 236.154 201.255 236.522 201.655C236.906 202.055 237.45 202.255 238.154 202.255C238.906 202.255 239.53 202.039 240.026 201.607L240.626 202.831C240.29 203.135 239.882 203.359 239.402 203.503C238.938 203.647 238.458 203.719 237.962 203.719ZM232.01 192.415V190.999H239.81V192.415H232.01ZM243.8 198.559L243.464 186.799H245.48L245.12 198.559H243.8ZM244.472 203.719C244.12 203.719 243.816 203.599 243.56 203.359C243.32 203.103 243.2 202.807 243.2 202.471C243.2 202.119 243.32 201.831 243.56 201.607C243.816 201.367 244.12 201.247 244.472 201.247C244.84 201.247 245.136 201.367 245.36 201.607C245.6 201.831 245.72 202.119 245.72 202.471C245.72 202.807 245.6 203.103 245.36 203.359C245.136 203.599 244.84 203.719 244.472 203.719ZM47.2083 232.599L41.5443 215.799H43.3683L48.6723 231.615H47.7603L53.2323 215.799H54.8643L60.2643 231.615H59.4003L64.7523 215.799H66.4563L60.7923 232.599H58.9203L53.7603 217.599H54.2403L49.0563 232.599H47.2083ZM69.2823 232.599V219.999H70.9863V232.599H69.2823ZM70.1463 217.215C69.7943 217.215 69.4983 217.095 69.2583 216.855C69.0183 216.615 68.8983 216.327 68.8983 215.991C68.8983 215.655 69.0183 215.375 69.2583 215.151C69.4983 214.911 69.7943 214.791 70.1463 214.791C70.4983 214.791 70.7943 214.903 71.0343 215.127C71.2743 215.351 71.3943 215.631 71.3943 215.967C71.3943 216.319 71.2743 216.615 71.0343 216.855C70.8103 217.095 70.5143 217.215 70.1463 217.215ZM82.1596 219.879C83.1836 219.879 84.0796 220.079 84.8476 220.479C85.6316 220.863 86.2396 221.455 86.6716 222.255C87.1196 223.055 87.3436 224.063 87.3436 225.279V232.599H85.6396V225.447C85.6396 224.119 85.3036 223.119 84.6316 222.447C83.9756 221.759 83.0476 221.415 81.8476 221.415C80.9516 221.415 80.1676 221.599 79.4956 221.967C78.8396 222.319 78.3276 222.839 77.9596 223.527C77.6076 224.199 77.4316 225.015 77.4316 225.975V232.599H75.7276V219.999H77.3596V223.455L77.0956 222.807C77.4956 221.895 78.1356 221.183 79.0156 220.671C79.8956 220.143 80.9436 219.879 82.1596 219.879ZM102.212 232.719C101.028 232.719 100.116 232.399 99.4756 231.759C98.8356 231.119 98.5156 230.215 98.5156 229.047V217.215H100.22V228.951C100.22 229.687 100.404 230.255 100.772 230.655C101.156 231.055 101.7 231.255 102.404 231.255C103.156 231.255 103.78 231.039 104.276 230.607L104.876 231.831C104.54 232.135 104.132 232.359 103.652 232.503C103.188 232.647 102.708 232.719 102.212 232.719ZM96.2596 221.415V219.999H104.06V221.415H96.2596ZM114.41 219.879C115.434 219.879 116.33 220.079 117.098 220.479C117.882 220.863 118.49 221.455 118.922 222.255C119.37 223.055 119.594 224.063 119.594 225.279V232.599H117.89V225.447C117.89 224.119 117.554 223.119 116.882 222.447C116.226 221.759 115.298 221.415 114.098 221.415C113.202 221.415 112.418 221.599 111.746 221.967C111.09 222.319 110.578 222.839 110.21 223.527C109.858 224.199 109.682 225.015 109.682 225.975V232.599H107.978V214.791H109.682V223.455L109.346 222.807C109.746 221.895 110.386 221.183 111.266 220.671C112.146 220.143 113.194 219.879 114.41 219.879ZM129.548 232.719C128.236 232.719 127.084 232.447 126.092 231.903C125.1 231.343 124.324 230.583 123.764 229.623C123.204 228.647 122.924 227.535 122.924 226.287C122.924 225.039 123.188 223.935 123.716 222.975C124.26 222.015 124.996 221.263 125.924 220.719C126.868 220.159 127.924 219.879 129.092 219.879C130.276 219.879 131.324 220.151 132.236 220.695C133.164 221.223 133.892 221.975 134.42 222.951C134.948 223.911 135.212 225.023 135.212 226.287C135.212 226.367 135.204 226.455 135.188 226.551C135.188 226.631 135.188 226.719 135.188 226.815H124.22V225.543H134.276L133.604 226.047C133.604 225.135 133.404 224.327 133.004 223.623C132.62 222.903 132.092 222.343 131.42 221.943C130.748 221.543 129.972 221.343 129.092 221.343C128.228 221.343 127.452 221.543 126.764 221.943C126.076 222.343 125.54 222.903 125.156 223.623C124.772 224.343 124.58 225.167 124.58 226.095V226.359C124.58 227.319 124.788 228.167 125.204 228.903C125.636 229.623 126.228 230.191 126.98 230.607C127.748 231.007 128.62 231.207 129.596 231.207C130.364 231.207 131.076 231.071 131.732 230.799C132.404 230.527 132.98 230.111 133.46 229.551L134.42 230.655C133.86 231.327 133.156 231.839 132.308 232.191C131.476 232.543 130.556 232.719 129.548 232.719ZM150.338 237.375C149.186 237.375 148.082 237.207 147.026 236.871C145.97 236.535 145.114 236.055 144.458 235.431L145.322 234.135C145.914 234.663 146.642 235.079 147.506 235.383C148.386 235.703 149.314 235.863 150.29 235.863C151.89 235.863 153.066 235.487 153.818 234.735C154.57 233.999 154.946 232.847 154.946 231.279V228.135L155.186 225.975L155.018 223.815V219.999H156.65V231.063C156.65 233.239 156.114 234.831 155.042 235.839C153.986 236.863 152.418 237.375 150.338 237.375ZM150.026 232.119C148.826 232.119 147.746 231.863 146.786 231.351C145.826 230.823 145.066 230.095 144.506 229.167C143.962 228.239 143.69 227.175 143.69 225.975C143.69 224.775 143.962 223.719 144.506 222.807C145.066 221.879 145.826 221.159 146.786 220.647C147.746 220.135 148.826 219.879 150.026 219.879C151.146 219.879 152.154 220.111 153.05 220.575C153.946 221.039 154.658 221.727 155.186 222.639C155.714 223.551 155.978 224.663 155.978 225.975C155.978 227.287 155.714 228.399 155.186 229.311C154.658 230.223 153.946 230.919 153.05 231.399C152.154 231.879 151.146 232.119 150.026 232.119ZM150.194 230.607C151.122 230.607 151.946 230.415 152.666 230.031C153.386 229.631 153.954 229.087 154.37 228.399C154.786 227.695 154.994 226.887 154.994 225.975C154.994 225.063 154.786 224.263 154.37 223.575C153.954 222.887 153.386 222.351 152.666 221.967C151.946 221.567 151.122 221.367 150.194 221.367C149.282 221.367 148.458 221.567 147.722 221.967C147.002 222.351 146.434 222.887 146.018 223.575C145.618 224.263 145.418 225.063 145.418 225.975C145.418 226.887 145.618 227.695 146.018 228.399C146.434 229.087 147.002 229.631 147.722 230.031C148.458 230.415 149.282 230.607 150.194 230.607ZM169.288 232.599V229.815L169.216 229.359V224.703C169.216 223.631 168.912 222.807 168.304 222.231C167.712 221.655 166.824 221.367 165.64 221.367C164.824 221.367 164.048 221.503 163.312 221.775C162.576 222.047 161.952 222.407 161.44 222.855L160.672 221.583C161.312 221.039 162.08 220.623 162.976 220.335C163.872 220.031 164.816 219.879 165.808 219.879C167.44 219.879 168.696 220.287 169.576 221.103C170.472 221.903 170.92 223.127 170.92 224.775V232.599H169.288ZM164.944 232.719C164 232.719 163.176 232.567 162.472 232.263C161.784 231.943 161.256 231.511 160.888 230.967C160.52 230.407 160.336 229.767 160.336 229.047C160.336 228.391 160.488 227.799 160.792 227.271C161.112 226.727 161.624 226.295 162.328 225.975C163.048 225.639 164.008 225.471 165.208 225.471H169.552V226.743H165.256C164.04 226.743 163.192 226.959 162.712 227.391C162.248 227.823 162.016 228.359 162.016 228.999C162.016 229.719 162.296 230.295 162.856 230.727C163.416 231.159 164.2 231.375 165.208 231.375C166.168 231.375 166.992 231.159 167.68 230.727C168.384 230.279 168.896 229.639 169.216 228.807L169.6 229.983C169.28 230.815 168.72 231.479 167.92 231.975C167.136 232.471 166.144 232.719 164.944 232.719ZM191.292 219.879C192.316 219.879 193.204 220.079 193.956 220.479C194.724 220.863 195.316 221.455 195.732 222.255C196.164 223.055 196.38 224.063 196.38 225.279V232.599H194.676V225.447C194.676 224.119 194.356 223.119 193.716 222.447C193.092 221.759 192.204 221.415 191.052 221.415C190.188 221.415 189.436 221.599 188.796 221.967C188.172 222.319 187.684 222.839 187.332 223.527C186.996 224.199 186.828 225.015 186.828 225.975V232.599H185.124V225.447C185.124 224.119 184.804 223.119 184.164 222.447C183.524 221.759 182.628 221.415 181.476 221.415C180.628 221.415 179.884 221.599 179.244 221.967C178.604 222.319 178.108 222.839 177.756 223.527C177.42 224.199 177.252 225.015 177.252 225.975V232.599H175.548V219.999H177.18V223.407L176.916 222.807C177.3 221.895 177.916 221.183 178.764 220.671C179.628 220.143 180.644 219.879 181.812 219.879C183.044 219.879 184.092 220.191 184.956 220.815C185.82 221.423 186.38 222.343 186.636 223.575L185.964 223.311C186.332 222.287 186.98 221.463 187.908 220.839C188.852 220.199 189.98 219.879 191.292 219.879ZM206.353 232.719C205.041 232.719 203.889 232.447 202.897 231.903C201.905 231.343 201.129 230.583 200.569 229.623C200.009 228.647 199.729 227.535 199.729 226.287C199.729 225.039 199.993 223.935 200.521 222.975C201.065 222.015 201.801 221.263 202.729 220.719C203.673 220.159 204.729 219.879 205.897 219.879C207.081 219.879 208.129 220.151 209.041 220.695C209.969 221.223 210.697 221.975 211.225 222.951C211.753 223.911 212.017 225.023 212.017 226.287C212.017 226.367 212.009 226.455 211.993 226.551C211.993 226.631 211.993 226.719 211.993 226.815H201.025V225.543H211.081L210.409 226.047C210.409 225.135 210.209 224.327 209.809 223.623C209.425 222.903 208.897 222.343 208.225 221.943C207.553 221.543 206.777 221.343 205.897 221.343C205.033 221.343 204.257 221.543 203.569 221.943C202.881 222.343 202.345 222.903 201.961 223.623C201.577 224.343 201.385 225.167 201.385 226.095V226.359C201.385 227.319 201.593 228.167 202.009 228.903C202.441 229.623 203.033 230.191 203.785 230.607C204.553 231.007 205.425 231.207 206.401 231.207C207.169 231.207 207.881 231.071 208.537 230.799C209.209 230.527 209.785 230.111 210.265 229.551L211.225 230.655C210.665 231.327 209.961 231.839 209.113 232.191C208.281 232.543 207.361 232.719 206.353 232.719ZM215.557 227.559L215.221 215.799H217.237L216.877 227.559H215.557ZM216.229 232.719C215.877 232.719 215.573 232.599 215.317 232.359C215.077 232.103 214.957 231.807 214.957 231.471C214.957 231.119 215.077 230.831 215.317 230.607C215.573 230.367 215.877 230.247 216.229 230.247C216.597 230.247 216.893 230.367 217.117 230.607C217.357 230.831 217.477 231.119 217.477 231.471C217.477 231.807 217.357 232.103 217.117 232.359C216.893 232.599 216.597 232.719 216.229 232.719Z" fill="#343F4B"/>
<path d="M148.632 354.062L158.771 352.18C158.965 352.157 159.149 352.07 159.299 351.93C159.45 351.791 159.561 351.604 159.618 351.394C159.676 351.184 159.677 350.96 159.622 350.749C159.568 350.538 159.459 350.35 159.31 350.208L150.655 341.102C150.559 340.995 150.482 340.868 150.43 340.727C150.378 340.586 150.351 340.435 150.351 340.283C150.351 340.131 150.378 339.98 150.43 339.839C150.482 339.698 150.559 339.571 150.655 339.464L159.148 329.326C159.281 329.17 159.371 328.974 159.41 328.762C159.448 328.55 159.432 328.33 159.365 328.127C159.297 327.925 159.181 327.748 159.028 327.616C158.875 327.485 158.693 327.404 158.501 327.384L147.581 326.109C147.306 326.064 147.058 325.898 146.891 325.648C146.724 325.398 146.652 325.084 146.691 324.774L148.174 313.757C148.203 313.543 148.179 313.325 148.103 313.127C148.028 312.929 147.904 312.758 147.747 312.635C147.59 312.512 147.405 312.441 147.213 312.43C147.022 312.419 146.832 312.468 146.664 312.573L137.173 318.431C137.054 318.505 136.924 318.553 136.789 318.571C136.654 318.588 136.517 318.576 136.387 318.533C136.256 318.491 136.135 318.42 136.029 318.324C135.923 318.228 135.835 318.11 135.77 317.975L129.946 305.835C129.861 305.643 129.73 305.482 129.568 305.369C129.406 305.257 129.22 305.197 129.029 305.197C128.839 305.197 128.652 305.257 128.49 305.369C128.328 305.482 128.198 305.643 128.113 305.835L123.367 317.975C123.309 318.117 123.227 318.245 123.124 318.35C123.021 318.455 122.901 318.536 122.77 318.587C122.639 318.638 122.5 318.658 122.361 318.647C122.223 318.636 122.088 318.593 121.965 318.522L112.365 313.119C112.195 313.026 112.005 312.988 111.817 313.009C111.628 313.03 111.448 313.109 111.298 313.238C111.147 313.367 111.031 313.54 110.962 313.739C110.894 313.938 110.875 314.154 110.909 314.364L112.905 326.231C112.952 326.536 112.891 326.851 112.735 327.106C112.578 327.361 112.339 327.538 112.069 327.597L101.283 329.873C101.097 329.918 100.926 330.019 100.787 330.165C100.649 330.311 100.548 330.497 100.495 330.702C100.443 330.908 100.441 331.125 100.489 331.332C100.538 331.538 100.635 331.726 100.771 331.876L109.076 340.283C109.176 340.391 109.256 340.52 109.31 340.664C109.365 340.807 109.393 340.962 109.393 341.118C109.393 341.274 109.365 341.428 109.31 341.572C109.256 341.715 109.176 341.845 109.076 341.952L100.986 351.27C100.847 351.422 100.75 351.615 100.704 351.827C100.659 352.039 100.667 352.261 100.73 352.467C100.792 352.674 100.904 352.856 101.055 352.993C101.205 353.131 101.387 353.217 101.58 353.243L113.228 354.912C113.363 354.931 113.494 354.979 113.612 355.055C113.73 355.131 113.833 355.233 113.916 355.355C113.999 355.476 114.06 355.615 114.094 355.763C114.129 355.911 114.137 356.065 114.118 356.217L112.77 368.054C112.743 368.269 112.77 368.488 112.849 368.687C112.928 368.885 113.055 369.054 113.216 369.175C113.377 369.295 113.564 369.362 113.757 369.368C113.95 369.374 114.141 369.318 114.307 369.207L123.043 363.532C123.163 363.452 123.295 363.4 123.433 363.38C123.571 363.36 123.711 363.371 123.845 363.414C123.978 363.457 124.103 363.529 124.211 363.628C124.319 363.726 124.408 363.848 124.472 363.987L129.676 375.368C129.766 375.559 129.9 375.718 130.063 375.83C130.227 375.941 130.415 376 130.607 376C130.798 376 130.986 375.941 131.15 375.83C131.314 375.718 131.448 375.559 131.537 375.368L136.93 362.682C136.988 362.544 137.069 362.42 137.17 362.317C137.27 362.215 137.388 362.136 137.516 362.085C137.644 362.034 137.78 362.013 137.915 362.021C138.05 362.03 138.183 362.069 138.305 362.135L148.632 367.659C148.807 367.758 149.004 367.799 149.199 367.776C149.393 367.754 149.578 367.669 149.732 367.531C149.885 367.394 150 367.21 150.063 367.002C150.126 366.793 150.135 366.568 150.088 366.354L148.012 355.398C147.95 355.128 147.979 354.842 148.094 354.595C148.208 354.349 148.4 354.159 148.632 354.062V354.062Z" fill="#FFE066"/>
<path d="M171.336 343.075C172.338 342.897 173.316 342.581 174.249 342.134C175.387 341.583 176.583 341.196 177.808 340.981C180.45 340.682 183.117 341.12 185.574 342.256L185.412 322.68C185.408 322.405 185.357 322.133 185.26 321.881C185.163 321.628 185.023 321.399 184.848 321.208C184.673 321.016 184.466 320.865 184.238 320.764C184.011 320.662 183.769 320.612 183.524 320.616H165.89C165.387 320.628 164.905 320.849 164.537 321.235C164.169 321.621 163.941 322.146 163.894 322.71V342.043C166.265 343.057 168.818 343.411 171.336 343.075V343.075Z" fill="white"/>
<path d="M174.734 336.763C178.159 336.763 180.936 333.868 180.936 330.298C180.936 326.728 178.159 323.833 174.734 323.833C171.309 323.833 168.532 326.728 168.532 330.298C168.532 333.868 171.309 336.763 174.734 336.763Z" fill="#3399FF"/>
<path d="M187.866 322.498C187.81 321.266 187.326 320.108 186.519 319.274C185.712 318.439 184.646 317.995 183.551 318.036H165.89C165.347 318.008 164.805 318.101 164.294 318.311C163.784 318.52 163.315 318.842 162.916 319.257C162.518 319.672 162.196 320.172 161.97 320.729C161.745 321.285 161.62 321.886 161.602 322.498V358.918C161.658 360.153 162.141 361.314 162.947 362.153C163.753 362.992 164.819 363.444 165.917 363.41H183.443C183.997 363.456 184.553 363.374 185.078 363.17C185.603 362.966 186.085 362.645 186.496 362.225C186.907 361.805 187.238 361.295 187.469 360.727C187.7 360.158 187.825 359.543 187.839 358.918L187.866 322.498ZM164.514 321.041C164.694 320.837 164.909 320.675 165.145 320.566C165.381 320.456 165.634 320.401 165.89 320.403H183.551C183.795 320.391 184.039 320.435 184.267 320.531C184.496 320.628 184.705 320.776 184.881 320.966C185.058 321.156 185.198 321.384 185.294 321.637C185.39 321.89 185.439 322.162 185.439 322.437V342.226C182.967 341.155 180.314 340.72 177.673 340.951C176.466 341.091 175.293 341.493 174.222 342.134C173.289 342.581 172.311 342.897 171.309 343.075C168.818 343.353 166.304 342.957 163.975 341.922V322.498C163.986 321.95 164.167 321.423 164.487 321.01L164.514 321.041Z" fill="#3399FF"/>
<path d="M81.8686 342.984C82.8699 342.806 83.848 342.49 84.7808 342.044C85.9219 341.5 87.1169 341.113 88.3401 340.89C90.9913 340.586 93.6681 341.024 96.1328 342.165L95.971 322.498C95.9569 321.94 95.7481 321.41 95.3898 321.024C95.0315 320.638 94.5526 320.426 94.0565 320.434H76.4218C76.1705 320.432 75.9215 320.488 75.6898 320.597C75.458 320.707 75.2484 320.868 75.0736 321.071C74.7069 321.448 74.4845 321.97 74.4534 322.528V341.861C76.8078 342.907 79.3526 343.292 81.8686 342.984V342.984Z" fill="white"/>
<path d="M85.2661 336.641C88.6913 336.641 91.4679 333.747 91.4679 330.176C91.4679 326.606 88.6913 323.712 85.2661 323.712C81.841 323.712 79.0643 326.606 79.0643 330.176C79.0643 333.747 81.841 336.641 85.2661 336.641Z" fill="#3399FF"/>
<path d="M98.3978 322.498C98.3419 321.271 97.8622 320.118 97.0611 319.284C96.26 318.451 95.2011 318.003 94.1105 318.036H76.4488C75.9047 318.008 75.361 318.101 74.8491 318.31C74.3371 318.519 73.867 318.84 73.4659 319.255C73.0648 319.67 72.7406 320.17 72.5121 320.727C72.2836 321.283 72.1553 321.885 72.1345 322.498V358.918C72.1904 360.147 72.6692 361.304 73.4695 362.142C74.2698 362.981 75.3287 363.435 76.4218 363.41H93.9756C94.5302 363.46 95.0879 363.381 95.6144 363.179C96.1409 362.977 96.625 362.656 97.0368 362.235C97.4487 361.814 97.7795 361.302 98.0089 360.732C98.2384 360.162 98.3616 359.544 98.3708 358.918L98.3978 322.498ZM75.0736 321.041C75.2485 320.838 75.4581 320.676 75.6898 320.567C75.9215 320.457 76.1705 320.402 76.4218 320.403H94.0835C94.5795 320.395 95.0585 320.607 95.4168 320.993C95.7751 321.38 95.9839 321.909 95.998 322.467V342.134C93.5164 341.065 90.8547 340.63 88.2053 340.86C86.9985 341.004 85.8273 341.406 84.7538 342.043C83.821 342.49 82.843 342.806 81.8417 342.984C79.359 343.263 76.8533 342.867 74.5343 341.831V322.498C74.527 321.946 74.7108 321.413 75.0467 321.01L75.0736 321.041Z" fill="#3399FF"/>
<path d="M120.967 352.848L113.983 328.264H119.376L122.073 338.644C122.801 341.679 123.502 344.35 124.014 347.415C124.58 344.38 125.254 341.558 125.982 338.735L128.679 328.264H133.91L126.737 352.848H120.967Z" fill="#C95D4F"/>
<path d="M134.908 347.962C136.22 348.763 137.676 349.22 139.168 349.297C140.651 349.297 141.271 348.721 141.271 347.81C141.271 346.9 140.786 346.475 138.925 345.777C135.663 344.532 134.395 342.529 134.449 340.405C134.449 337.096 136.957 334.577 140.867 334.577C142.408 334.551 143.935 334.903 145.343 335.609L144.453 339.433C143.397 338.797 142.225 338.444 141.028 338.401C139.842 338.401 139.168 338.948 139.168 339.858C139.168 340.769 139.761 341.133 141.703 341.922C144.723 343.075 145.99 344.775 146.017 347.415C146.017 350.724 143.671 353.152 139.168 353.152C137.397 353.199 135.641 352.773 134.045 351.907L134.908 347.962Z" fill="#C95D4F"/>
</svg>
