<svg width="505" height="847" viewBox="0 0 505 847" fill="none" xmlns="http://www.w3.org/2000/svg" xmlns:xlink="http://www.w3.org/1999/xlink">
<g id="Frame 14">
<g clip-path="url(#clip0_104_149)">
<rect width="505" height="847" rx="24" fill="white"/>
<g id="Group 5">
<path id="Curva inferior" d="M-1.5378e-05 127V-7.62939e-06H354L258.738 5.94115C160.276 12.0819 67.8092 55.3454 -1.5378e-05 127V127Z" fill="#D9D9D9"/>
<g id="Frame 24">
<text id="Pokemon Number" fill="black" xml:space="preserve" style="white-space: pre" font-family="Montserrat" font-size="20" font-weight="600" letter-spacing="0em"><tspan x="10.2051" y="31.17">#000</tspan></text>
</g>
</g>
<g id="Frame 16">
<g id="Frame 20">
<circle id="Type 1" cx="447" cy="219.466" r="19.4663" fill="#7F7F7F"/>
<g id="Frame 31">
<text id="TEXTO GEN&#195;&#137;RICO" fill="black" xml:space="preserve" style="white-space: pre" font-family="Montserrat" font-size="9.94623" font-weight="600" letter-spacing="0em"><tspan x="401.431" y="261.603">TEXTO GEN&#xc9;RICO</tspan></text>
</g>
</g>
<g id="Frame 22">
<g id="Frame 21">
<circle id="Type 2" cx="447" cy="310.489" r="9.94944" fill="#7F7F7F"/>
</g>
<g id="Frame 32">
<text id="TEXTO GEN&#195;&#137;RICO_2" fill="black" xml:space="preserve" style="white-space: pre" font-family="Montserrat" font-size="9.94623" font-weight="600" letter-spacing="0em"><tspan x="401.431" y="351.76">TEXTO GEN&#xc9;RICO</tspan></text>
</g>
</g>
</g>
<rect id="pika 1" y="94" width="401" height="426" fill="url(#pattern0)"/>
<g id="Frame">
<path id="Vector" d="M0 506.041V847H505V437.413C445.744 482.046 303.336 513.508 136.963 513.508C91.1593 513.58 45.4013 511.085 0 506.041Z" fill="#D9D9D9"/>
</g>
<g id="Group 30">
<g id="Frame 28" clip-path="url(#clip1_104_149)">
<rect width="365" height="272.81" transform="translate(70 546.373)" fill="#D9D9D9"/>
<text id="Pokemon Name" fill="black" xml:space="preserve" style="white-space: pre" font-family="Montserrat" font-size="20" font-weight="600" letter-spacing="0em"><tspan x="170.283" y="567.543">Pokemon name</tspan></text>
<g id="Frame 13">
<rect width="348" height="232.81" transform="translate(78.5 586.373)" fill="#D9D9D9"/>
<g id="Status n&#195;&#163;o mecher">
<g id="Frame 7">
<rect x="90.5" y="586.373" width="72.2624" height="33.4233" rx="16.7116" fill="#C9C9C9"/>
<text id="ATTACK" fill="black" xml:space="preserve" style="white-space: pre" font-family="Montserrat" font-size="11.4963" font-weight="600" letter-spacing="0em"><tspan x="103.145" y="606.918">ATTACK</tspan></text>
</g>
<g id="Frame 8">
<rect x="90.5" y="636.219" width="72.2624" height="33.4233" rx="16.7116" fill="#C9C9C9"/>
<text id="DEFENSE" fill="black" xml:space="preserve" style="white-space: pre" font-family="Montserrat" font-size="11.4963" font-weight="600" letter-spacing="0em"><tspan x="98.4013" y="656.764">DEFENSE</tspan></text>
</g>
<g id="Frame 9">
<rect x="90.5" y="686.066" width="72.2624" height="33.4233" rx="16.7116" fill="#C9C9C9"/>
<text id="SP. ATK" fill="black" xml:space="preserve" style="white-space: pre" font-family="Montserrat" font-size="11.4963" font-weight="600" letter-spacing="0em"><tspan x="104.267" y="706.611">SP. ATK</tspan></text>
</g>
<g id="Frame 10">
<rect x="90.5" y="735.913" width="72.2624" height="33.4233" rx="16.7116" fill="#C9C9C9"/>
<text id="SP. DEF" fill="black" xml:space="preserve" style="white-space: pre" font-family="Montserrat" font-size="11.4963" font-weight="600" letter-spacing="0em"><tspan x="103.757" y="756.457">SP. DEF</tspan></text>
</g>
<g id="Frame 11">
<rect x="90.5" y="785.759" width="72.2624" height="33.4233" rx="16.7116" fill="#C9C9C9"/>
<text id="SPEED" fill="black" xml:space="preserve" style="white-space: pre" font-family="Montserrat" font-size="11.4963" font-weight="600" letter-spacing="0em"><tspan x="106.451" y="806.304">SPEED</tspan></text>
</g>
</g>
<g id="Bars">
<g id="ATK Bar">
<rect x="174.762" y="598.373" width="183.738" height="10.9048" rx="5.45239" fill="#C9C9C9"/>
</g>
<g id="DEF Bar">
<rect x="174.762" y="647.849" width="183.738" height="10.9048" rx="5.45239" fill="#C9C9C9"/>
</g>
<g id="SP Atk Bar">
<rect x="174.762" y="697.325" width="183.738" height="10.9048" rx="5.45239" fill="#C9C9C9"/>
</g>
<g id="SP Def Bar">
<rect x="174.762" y="746.802" width="183.738" height="10.9048" rx="5.45239" fill="#C9C9C9"/>
</g>
<g id="Spd Bar">
<rect x="174.762" y="796.278" width="183.738" height="10.9048" rx="5.45239" fill="#C9C9C9"/>
</g>
</g>
<g id="Status Numbers">
<g id="ATK">
<rect x="370.5" y="586.373" width="44" height="33.4233" rx="16.7116" fill="#C9C9C9"/>
<text id="000" fill="black" xml:space="preserve" style="white-space: pre" font-family="Montserrat" font-size="11.4963" font-weight="600" letter-spacing="0em"><tspan x="380.897" y="606.918">000</tspan></text>
</g>
<g id="DEF">
<rect x="370.5" y="636.219" width="44" height="33.4233" rx="16.7116" fill="#C9C9C9"/>
<text id="000_2" fill="black" xml:space="preserve" style="white-space: pre" font-family="Montserrat" font-size="11.4963" font-weight="600" letter-spacing="0em"><tspan x="380.897" y="656.764">000</tspan></text>
</g>
<g id="SP.ATK">
<rect x="370.5" y="686.066" width="44" height="33.4233" rx="16.7116" fill="#C9C9C9"/>
<text id="000_3" fill="black" xml:space="preserve" style="white-space: pre" font-family="Montserrat" font-size="11.4963" font-weight="600" letter-spacing="0em"><tspan x="380.897" y="706.611">000</tspan></text>
</g>
<g id="SP. DEF_2">
<rect x="370.5" y="735.913" width="44" height="33.4233" rx="16.7116" fill="#C9C9C9"/>
<text id="000_4" fill="black" xml:space="preserve" style="white-space: pre" font-family="Montserrat" font-size="11.4963" font-weight="600" letter-spacing="0em"><tspan x="380.897" y="756.457">000</tspan></text>
</g>
<g id="SPD">
<rect x="370.5" y="785.759" width="44" height="33.4233" rx="16.7116" fill="#C9C9C9"/>
<text id="0 00" fill="black" xml:space="preserve" style="white-space: pre" font-family="Montserrat" font-size="11.4963" font-weight="600" letter-spacing="0em"><tspan x="379.309" y="806.304">0 00</tspan></text>
</g>
</g>
</g>
</g>
</g>
</g>
</g>
<defs>
<pattern id="pattern0" patternContentUnits="objectBoundingBox" width="1" height="1">
<use xlink:href="#image0_104_149" transform="translate(0 0.0293427) scale(0.00195312 0.0018385)"/>
</pattern>
<clipPath id="clip0_104_149">
<rect width="505" height="847" rx="24" fill="white"/>
</clipPath>
<clipPath id="clip1_104_149">
<rect width="365" height="272.81" fill="white" transform="translate(70 546.373)"/>
</clipPath>
<image id="image0_104_149" data-name="pika.png" width="512" height="512" xlink:href="https://raw.githubusercontent.com/PokeAPI/sprites/master/sprites/pokemon/other/home/25.png"/>
</defs>
</svg>
